Hoogli-Light_006.ufo
<glyph name="parenright" format="1">
  <advance width="322"/>
  <unicode hex="0029"/>
  <outline>
    <contour>
      <point x="78" y="-107" type="curve" smooth="yes"/>
      <point x="86" y="-115"/>
      <point x="99" y="-115"/>
      <point x="106" y="-107" type="curve" smooth="yes"/>
      <point x="193" y="-17"/>
      <point x="255" y="115"/>
      <point x="255" y="259" type="curve" smooth="yes"/>
      <point x="255" y="404"/>
      <point x="189" y="543"/>
      <point x="107" y="633" type="curve" smooth="yes"/>
      <point x="100" y="641"/>
      <point x="87" y="642"/>
      <point x="79" y="635" type="curve" smooth="yes"/>
      <point x="71" y="628"/>
      <point x="70" y="615"/>
      <point x="77" y="607" type="curve" smooth="yes"/>
      <point x="153" y="523"/>
      <point x="215" y="394"/>
      <point x="215" y="259" type="curve" smooth="yes"/>
      <point x="215" y="125"/>
      <point x="157" y="3"/>
      <point x="78" y="-79" type="curve" smooth="yes"/>
      <point x="70" y="-87"/>
      <point x="70" y="-100"/>
    </contour>
  </outline>
</glyph>
<glyph name="one" format="1">
  <advance width="314"/>
  <unicode hex="0031"/>
  <outline>
    <contour>
      <point x="200" y="-9" type="curve" smooth="yes"/>
      <point x="211" y="-9"/>
      <point x="220" y="0"/>
      <point x="220" y="11" type="curve" smooth="yes"/>
      <point x="220" y="513" type="line" smooth="yes"/>
      <point x="220" y="524"/>
      <point x="211" y="533"/>
      <point x="200" y="533" type="curve" smooth="yes"/>
      <point x="189" y="533"/>
      <point x="180" y="524"/>
      <point x="180" y="513" type="curve" smooth="yes"/>
      <point x="180" y="11" type="line" smooth="yes"/>
      <point x="180" y="0"/>
      <point x="189" y="-9"/>
    </contour>
    <contour>
      <point x="210" y="502" type="line" smooth="yes"/>
      <point x="219" y="508"/>
      <point x="223" y="520"/>
      <point x="218" y="530" type="curve" smooth="yes"/>
      <point x="212" y="539"/>
      <point x="200" y="543"/>
      <point x="190" y="538" type="curve" smooth="yes"/>
      <point x="54" y="464" type="line" smooth="yes"/>
      <point x="45" y="458"/>
      <point x="41" y="446"/>
      <point x="46" y="436" type="curve" smooth="yes"/>
      <point x="52" y="427"/>
      <point x="64" y="423"/>
      <point x="74" y="428" type="curve" smooth="yes"/>
    </contour>
  </outline>
</glyph>
<glyph name="two" format="1">
  <advance width="503"/>
  <unicode hex="0032"/>
  <outline>
    <contour>
      <point x="420" y="410" type="curve" smooth="yes"/>
      <point x="420" y="479"/>
      <point x="369" y="549"/>
      <point x="256" y="549" type="curve" smooth="yes"/>
      <point x="197" y="549"/>
      <point x="140" y="533"/>
      <point x="86" y="500" type="curve" smooth="yes"/>
      <point x="77" y="494"/>
      <point x="74" y="482"/>
      <point x="80" y="472" type="curve" smooth="yes"/>
      <point x="86" y="463"/>
      <point x="98" y="460"/>
      <point x="108" y="466" type="curve" smooth="yes"/>
      <point x="154" y="495"/>
      <point x="205" y="509"/>
      <point x="256" y="509" type="curve" smooth="yes"/>
      <point x="337" y="509"/>
      <point x="380" y="463"/>
      <point x="380" y="410" type="curve" smooth="yes"/>
      <point x="380" y="349"/>
      <point x="343" y="303"/>
      <point x="236" y="201" type="curve" smooth="yes"/>
      <point x="61" y="34" type="line" smooth="yes"/>
      <point x="53" y="27"/>
      <point x="53" y="14"/>
      <point x="61" y="6" type="curve" smooth="yes"/>
      <point x="68" y="-2"/>
      <point x="81" y="-2"/>
      <point x="89" y="6" type="curve" smooth="yes"/>
      <point x="264" y="173" type="line" smooth="yes"/>
      <point x="385" y="289"/>
      <point x="420" y="341"/>
    </contour>
    <contour>
      <point x="434" y="-9" type="line" smooth="yes"/>
      <point x="445" y="-9"/>
      <point x="454" y="0"/>
      <point x="454" y="11" type="curve" smooth="yes"/>
      <point x="454" y="22"/>
      <point x="445" y="31"/>
      <point x="434" y="31" type="curve" smooth="yes"/>
      <point x="65" y="31" type="line" smooth="yes"/>
      <point x="54" y="31"/>
      <point x="45" y="22"/>
      <point x="45" y="11" type="curve" smooth="yes"/>
      <point x="45" y="0"/>
      <point x="54" y="-9"/>
      <point x="65" y="-9" type="curve" smooth="yes"/>
    </contour>
  </outline>
</glyph>
<glyph name="seven" format="1">
  <advance width="459"/>
  <unicode hex="0037"/>
  <outline>
    <contour>
      <point x="187" y="-9" type="curve" smooth="yes"/>
      <point x="198" y="-9"/>
      <point x="207" y="0"/>
      <point x="207" y="11" type="curve" smooth="yes"/>
      <point x="207" y="69" type="line" smooth="yes"/>
      <point x="207" y="128"/>
      <point x="229" y="187"/>
      <point x="255" y="235" type="curve" smooth="yes"/>
      <point x="286" y="289"/>
      <point x="395" y="435"/>
      <point x="435" y="509" type="curve" smooth="yes"/>
      <point x="440" y="519"/>
      <point x="436" y="531"/>
      <point x="427" y="537" type="curve" smooth="yes"/>
      <point x="417" y="542"/>
      <point x="405" y="538"/>
      <point x="399" y="529" type="curve" smooth="yes"/>
      <point x="359" y="455"/>
      <point x="252" y="309"/>
      <point x="221" y="255" type="curve" smooth="yes"/>
      <point x="191" y="201"/>
      <point x="167" y="134"/>
      <point x="167" y="69" type="curve" smooth="yes"/>
      <point x="167" y="11" type="line" smooth="yes"/>
      <point x="167" y="0"/>
      <point x="176" y="-9"/>
    </contour>
    <contour>
      <point x="409" y="500" type="line" smooth="yes"/>
      <point x="420" y="500"/>
      <point x="429" y="509"/>
      <point x="429" y="520" type="curve" smooth="yes"/>
      <point x="429" y="531"/>
      <point x="420" y="540"/>
      <point x="409" y="540" type="curve" smooth="yes"/>
      <point x="49" y="540" type="line" smooth="yes"/>
      <point x="38" y="540"/>
      <point x="29" y="531"/>
      <point x="29" y="520" type="curve" smooth="yes"/>
      <point x="29" y="509"/>
      <point x="38" y="500"/>
      <point x="49" y="500" type="curve" smooth="yes"/>
    </contour>
  </outline>
</glyph>
<glyph name="D" format="1">
  <advance width="613"/>
  <unicode hex="0044"/>
  <outline>
    <contour>
      <point x="299" y="-9" type="line" smooth="yes"/>
      <point x="455" y="-9"/>
      <point x="557" y="112"/>
      <point x="557" y="266" type="curve" smooth="yes"/>
      <point x="557" y="428"/>
      <point x="435" y="540"/>
      <point x="299" y="540" type="curve" smooth="yes"/>
      <point x="114" y="540" type="line" smooth="yes"/>
      <point x="103" y="540"/>
      <point x="94" y="531"/>
      <point x="94" y="520" type="curve" smooth="yes"/>
      <point x="94" y="11" type="line" smooth="yes"/>
      <point x="94" y="0"/>
      <point x="103" y="-9"/>
      <point x="114" y="-9" type="curve" smooth="yes"/>
    </contour>
    <contour>
      <point x="134" y="520" type="line"/>
      <point x="114" y="500" type="line"/>
      <point x="299" y="500" type="line" smooth="yes"/>
      <point x="415" y="500"/>
      <point x="517" y="402"/>
      <point x="517" y="266" type="curve" smooth="yes"/>
      <point x="517" y="136"/>
      <point x="433" y="31"/>
      <point x="299" y="31" type="curve" smooth="yes"/>
      <point x="114" y="31" type="line"/>
      <point x="134" y="11" type="line"/>
    </contour>
    <contour>
      <point x="244" y="540" type="move" name="top"/>
    </contour>
  </outline>
</glyph>
<glyph name="H" format="1">
  <advance width="633"/>
  <unicode hex="0048"/>
  <outline>
    <contour>
      <point x="518" y="-9" type="curve" smooth="yes"/>
      <point x="529" y="-9"/>
      <point x="538" y="0"/>
      <point x="538" y="11" type="curve" smooth="yes"/>
      <point x="538" y="520" type="line" smooth="yes"/>
      <point x="538" y="531"/>
      <point x="529" y="540"/>
      <point x="518" y="540" type="curve" smooth="yes"/>
      <point x="507" y="540"/>
      <point x="498" y="531"/>
      <point x="498" y="520" type="curve" smooth="yes"/>
      <point x="498" y="11" type="line" smooth="yes"/>
      <point x="498" y="0"/>
      <point x="507" y="-9"/>
    </contour>
    <contour>
      <point x="114" y="-9" type="curve" smooth="yes"/>
      <point x="125" y="-9"/>
      <point x="134" y="0"/>
      <point x="134" y="11" type="curve" smooth="yes"/>
      <point x="134" y="520" type="line" smooth="yes"/>
      <point x="134" y="531"/>
      <point x="125" y="540"/>
      <point x="114" y="540" type="curve" smooth="yes"/>
      <point x="103" y="540"/>
      <point x="94" y="531"/>
      <point x="94" y="520" type="curve" smooth="yes"/>
      <point x="94" y="11" type="line" smooth="yes"/>
      <point x="94" y="0"/>
      <point x="103" y="-9"/>
    </contour>
    <contour>
      <point x="517" y="264" type="line" smooth="yes"/>
      <point x="528" y="264"/>
      <point x="537" y="273"/>
      <point x="537" y="284" type="curve" smooth="yes"/>
      <point x="537" y="295"/>
      <point x="528" y="304"/>
      <point x="517" y="304" type="curve" smooth="yes"/>
      <point x="118" y="304" type="line" smooth="yes"/>
      <point x="107" y="304"/>
      <point x="98" y="295"/>
      <point x="98" y="284" type="curve" smooth="yes"/>
      <point x="98" y="273"/>
      <point x="107" y="264"/>
      <point x="118" y="264" type="curve" smooth="yes"/>
    </contour>
  </outline>
</glyph>
<glyph name="J" format="1">
  <advance width="378"/>
  <unicode hex="004A"/>
  <outline>
    <contour>
      <point x="153" y="-18" type="curve" smooth="yes"/>
      <point x="245" y="-18"/>
      <point x="297" y="38"/>
      <point x="297" y="160" type="curve" smooth="yes"/>
      <point x="297" y="520" type="line" smooth="yes"/>
      <point x="297" y="531"/>
      <point x="288" y="540"/>
      <point x="277" y="540" type="curve" smooth="yes"/>
      <point x="266" y="540"/>
      <point x="257" y="531"/>
      <point x="257" y="520" type="curve" smooth="yes"/>
      <point x="257" y="160" type="line" smooth="yes"/>
      <point x="257" y="72"/>
      <point x="225" y="22"/>
      <point x="153" y="22" type="curve" smooth="yes"/>
      <point x="125" y="22"/>
      <point x="96" y="27"/>
      <point x="68" y="40" type="curve" smooth="yes"/>
      <point x="59" y="45"/>
      <point x="46" y="40"/>
      <point x="42" y="30" type="curve" smooth="yes"/>
      <point x="37" y="21"/>
      <point x="42" y="8"/>
      <point x="52" y="4" type="curve" smooth="yes"/>
      <point x="84" y="-11"/>
      <point x="119" y="-18"/>
    </contour>
  </outline>
</glyph>
<glyph name="K" format="1">
  <advance width="555"/>
  <unicode hex="004B"/>
  <outline>
    <contour>
      <point x="127" y="172" type="curve" smooth="yes"/>
      <point x="179" y="218"/>
      <point x="376" y="396"/>
      <point x="481" y="506" type="curve" smooth="yes"/>
      <point x="489" y="514"/>
      <point x="489" y="527"/>
      <point x="481" y="534" type="curve" smooth="yes"/>
      <point x="473" y="542"/>
      <point x="460" y="542"/>
      <point x="453" y="534" type="curve" smooth="yes"/>
      <point x="348" y="424"/>
      <point x="151" y="248"/>
      <point x="101" y="202" type="curve" smooth="yes"/>
      <point x="93" y="195"/>
      <point x="92" y="182"/>
      <point x="99" y="174" type="curve" smooth="yes"/>
      <point x="106" y="166"/>
      <point x="119" y="165"/>
    </contour>
    <contour>
      <point x="114" y="-9" type="curve" smooth="yes"/>
      <point x="125" y="-9"/>
      <point x="134" y="0"/>
      <point x="134" y="11" type="curve" smooth="yes"/>
      <point x="134" y="520" type="line" smooth="yes"/>
      <point x="134" y="531"/>
      <point x="125" y="540"/>
      <point x="114" y="540" type="curve" smooth="yes"/>
      <point x="103" y="540"/>
      <point x="94" y="531"/>
      <point x="94" y="520" type="curve" smooth="yes"/>
      <point x="94" y="11" type="line" smooth="yes"/>
      <point x="94" y="0"/>
      <point x="103" y="-9"/>
    </contour>
    <contour>
      <point x="501" y="-4" type="curve" smooth="yes"/>
      <point x="509" y="3"/>
      <point x="510" y="16"/>
      <point x="503" y="24" type="curve" smooth="yes"/>
      <point x="445" y="90"/>
      <point x="319" y="243"/>
      <point x="259" y="316" type="curve" smooth="yes"/>
      <point x="253" y="324"/>
      <point x="240" y="325"/>
      <point x="231" y="318" type="curve" smooth="yes"/>
      <point x="223" y="312"/>
      <point x="222" y="299"/>
      <point x="229" y="290" type="curve" smooth="yes"/>
      <point x="289" y="217"/>
      <point x="415" y="64"/>
      <point x="473" y="-2" type="curve" smooth="yes"/>
      <point x="480" y="-10"/>
      <point x="493" y="-11"/>
    </contour>
    <contour>
      <point x="271" y="13" type="move" name="bottom"/>
    </contour>
  </outline>
</glyph>
<glyph name="L" format="1">
  <advance width="452"/>
  <unicode hex="004C"/>
  <outline>
    <contour>
      <point x="114" y="-9" type="curve" smooth="yes"/>
      <point x="125" y="-9"/>
      <point x="134" y="0"/>
      <point x="134" y="11" type="curve" smooth="yes"/>
      <point x="134" y="520" type="line" smooth="yes"/>
      <point x="134" y="531"/>
      <point x="125" y="540"/>
      <point x="114" y="540" type="curve" smooth="yes"/>
      <point x="103" y="540"/>
      <point x="94" y="531"/>
      <point x="94" y="520" type="curve" smooth="yes"/>
      <point x="94" y="11" type="line" smooth="yes"/>
      <point x="94" y="0"/>
      <point x="103" y="-9"/>
    </contour>
    <contour>
      <point x="399" y="-9" type="line" smooth="yes"/>
      <point x="410" y="-9"/>
      <point x="419" y="0"/>
      <point x="419" y="11" type="curve" smooth="yes"/>
      <point x="419" y="22"/>
      <point x="410" y="31"/>
      <point x="399" y="31" type="curve" smooth="yes"/>
      <point x="123" y="31" type="line" smooth="yes"/>
      <point x="112" y="31"/>
      <point x="103" y="22"/>
      <point x="103" y="11" type="curve" smooth="yes"/>
      <point x="103" y="0"/>
      <point x="112" y="-9"/>
      <point x="123" y="-9" type="curve" smooth="yes"/>
    </contour>
    <contour>
      <point x="114" y="540" type="move" name="top"/>
    </contour>
    <contour>
      <point x="250" y="-8" type="move" name="bottom"/>
    </contour>
  </outline>
</glyph>
<glyph name="S" format="1">
  <advance width="521"/>
  <unicode hex="0053"/>
  <outline>
    <contour>
      <point x="261" y="-18" type="curve" smooth="yes"/>
      <point x="400" y="-18"/>
      <point x="453" y="54"/>
      <point x="453" y="130" type="curve" smooth="yes"/>
      <point x="453" y="204"/>
      <point x="411" y="266"/>
      <point x="266" y="299" type="curve" smooth="yes"/>
      <point x="146" y="322"/>
      <point x="117" y="370"/>
      <point x="117" y="417" type="curve" smooth="yes"/>
      <point x="117" y="465"/>
      <point x="167" y="507"/>
      <point x="240" y="507" type="curve" smooth="yes"/>
      <point x="310" y="507"/>
      <point x="343" y="495"/>
      <point x="391" y="476" type="curve" smooth="yes"/>
      <point x="401" y="472"/>
      <point x="413" y="478"/>
      <point x="417" y="488" type="curve" smooth="yes"/>
      <point x="421" y="498"/>
      <point x="415" y="510"/>
      <point x="405" y="514" type="curve" smooth="yes"/>
      <point x="353" y="535"/>
      <point x="316" y="547"/>
      <point x="240" y="547" type="curve" smooth="yes"/>
      <point x="135" y="547"/>
      <point x="77" y="481"/>
      <point x="77" y="417" type="curve" smooth="yes"/>
      <point x="77" y="360"/>
      <point x="98" y="290"/>
      <point x="258" y="259" type="curve" smooth="yes"/>
      <point x="369" y="234"/>
      <point x="413" y="190"/>
      <point x="413" y="130" type="curve" smooth="yes"/>
      <point x="413" y="70"/>
      <point x="362" y="22"/>
      <point x="261" y="22" type="curve" smooth="yes"/>
      <point x="202" y="22"/>
      <point x="145" y="35"/>
      <point x="94" y="64" type="curve" smooth="yes"/>
      <point x="85" y="70"/>
      <point x="72" y="66"/>
      <point x="67" y="57" type="curve" smooth="yes"/>
      <point x="61" y="48"/>
      <point x="65" y="35"/>
      <point x="74" y="30" type="curve" smooth="yes"/>
      <point x="131" y="-3"/>
      <point x="194" y="-18"/>
    </contour>
    <contour>
      <point x="238" y="546" type="move" name="top"/>
    </contour>
    <contour>
      <point x="263" y="-21" type="move" name="bottom"/>
    </contour>
  </outline>
</glyph>
<glyph name="underscore" format="1">
  <advance width="490"/>
  <unicode hex="005F"/>
  <outline>
    <contour>
      <point x="463" y="-121" type="line" smooth="yes"/>
      <point x="474" y="-121"/>
      <point x="483" y="-112"/>
      <point x="483" y="-101" type="curve" smooth="yes"/>
      <point x="483" y="-90"/>
      <point x="474" y="-81"/>
      <point x="463" y="-81" type="curve" smooth="yes"/>
      <point x="27" y="-81" type="line" smooth="yes"/>
      <point x="16" y="-81"/>
      <point x="7" y="-90"/>
      <point x="7" y="-101" type="curve" smooth="yes"/>
      <point x="7" y="-112"/>
      <point x="16" y="-121"/>
      <point x="27" y="-121" type="curve" smooth="yes"/>
    </contour>
  </outline>
</glyph>
<glyph name="j" format="1">
  <advance width="214"/>
  <unicode hex="006A"/>
  <outline>
    <contour>
      <point x="-2" y="-172" type="curve" smooth="yes"/>
      <point x="80" y="-140"/>
      <point x="127" y="-82"/>
      <point x="127" y="33" type="curve" smooth="yes"/>
      <point x="127" y="372" type="line" smooth="yes"/>
      <point x="127" y="383"/>
      <point x="118" y="392"/>
      <point x="107" y="392" type="curve" smooth="yes"/>
      <point x="96" y="392"/>
      <point x="87" y="383"/>
      <point x="87" y="372" type="curve" smooth="yes"/>
      <point x="87" y="33" type="line" smooth="yes"/>
      <point x="87" y="-60"/>
      <point x="50" y="-108"/>
      <point x="-16" y="-134" type="curve" smooth="yes"/>
      <point x="-26" y="-138"/>
      <point x="-32" y="-150"/>
      <point x="-28" y="-160" type="curve" smooth="yes"/>
      <point x="-24" y="-170"/>
      <point x="-12" y="-176"/>
    </contour>
    <contour>
      <point x="108" y="518" type="curve" smooth="yes"/>
      <point x="128" y="518"/>
      <point x="146" y="536"/>
      <point x="146" y="563" type="curve" smooth="yes"/>
      <point x="146" y="592"/>
      <point x="128" y="611"/>
      <point x="107" y="611" type="curve" smooth="yes"/>
      <point x="85" y="611"/>
      <point x="68" y="592"/>
      <point x="68" y="563" type="curve" smooth="yes"/>
      <point x="68" y="537"/>
      <point x="85" y="518"/>
    </contour>
  </outline>
</glyph>
<glyph name="o" format="1">
  <advance width="510"/>
  <unicode hex="006F"/>
  <outline>
    <contour>
      <point x="254" y="-10" type="curve" smooth="yes"/>
      <point x="379" y="-10"/>
      <point x="457" y="77"/>
      <point x="457" y="189" type="curve" smooth="yes"/>
      <point x="457" y="304"/>
      <point x="379" y="398"/>
      <point x="254" y="398" type="curve" smooth="yes"/>
      <point x="129" y="398"/>
      <point x="52" y="304"/>
      <point x="52" y="191" type="curve"/>
      <point x="52" y="78"/>
      <point x="131" y="-10"/>
    </contour>
    <contour>
      <point x="254" y="30" type="curve" smooth="yes"/>
      <point x="155" y="30"/>
      <point x="92" y="100"/>
      <point x="92" y="191" type="curve" smooth="yes"/>
      <point x="92" y="282"/>
      <point x="153" y="358"/>
      <point x="254" y="358" type="curve" smooth="yes"/>
      <point x="355" y="358"/>
      <point x="417" y="282"/>
      <point x="417" y="189" type="curve" smooth="yes"/>
      <point x="417" y="99"/>
      <point x="353" y="30"/>
    </contour>
    <contour>
      <point x="254" y="399" type="move" name="top"/>
    </contour>
    <contour>
      <point x="254" y="-9" type="move" name="bottom"/>
    </contour>
  </outline>
</glyph>
<glyph name="q" format="1">
  <advance width="510"/>
  <unicode hex="0071"/>
  <outline>
    <contour>
      <point x="228" y="-1" type="curve" smooth="yes"/>
      <point x="301" y="-1"/>
      <point x="373" y="38"/>
      <point x="426" y="122" type="curve" smooth="yes"/>
      <point x="432" y="132"/>
      <point x="429" y="144"/>
      <point x="420" y="150" type="curve" smooth="yes"/>
      <point x="410" y="156"/>
      <point x="398" y="153"/>
      <point x="392" y="144" type="curve" smooth="yes"/>
      <point x="349" y="74"/>
      <point x="289" y="39"/>
      <point x="228" y="39" type="curve" smooth="yes"/>
      <point x="158" y="39"/>
      <point x="93" y="93"/>
      <point x="93" y="183" type="curve" smooth="yes"/>
      <point x="93" y="292"/>
      <point x="169" y="358"/>
      <point x="259" y="358" type="curve" smooth="yes"/>
      <point x="315" y="358"/>
      <point x="359" y="344"/>
      <point x="399" y="318" type="curve" smooth="yes"/>
      <point x="408" y="312"/>
      <point x="421" y="315"/>
      <point x="427" y="324" type="curve" smooth="yes"/>
      <point x="433" y="333"/>
      <point x="430" y="346"/>
      <point x="421" y="352" type="curve" smooth="yes"/>
      <point x="375" y="382"/>
      <point x="323" y="398"/>
      <point x="259" y="398" type="curve" smooth="yes"/>
      <point x="149" y="398"/>
      <point x="53" y="318"/>
      <point x="53" y="183" type="curve"/>
      <point x="53" y="67"/>
      <point x="138" y="-1"/>
    </contour>
    <contour>
      <point x="410" y="-201" type="curve" smooth="yes"/>
      <point x="421" y="-201"/>
      <point x="430" y="-192"/>
      <point x="430" y="-181" type="curve" smooth="yes"/>
      <point x="430" y="378" type="line" smooth="yes"/>
      <point x="430" y="389"/>
      <point x="421" y="398"/>
      <point x="410" y="398" type="curve" smooth="yes"/>
      <point x="399" y="398"/>
      <point x="390" y="389"/>
      <point x="390" y="378" type="curve" smooth="yes"/>
      <point x="390" y="-181" type="line" smooth="yes"/>
      <point x="390" y="-192"/>
      <point x="399" y="-201"/>
    </contour>
  </outline>
</glyph>
<glyph name="hbar" format="1">
  <advance width="492"/>
  <unicode hex="0127"/>
  <outline>
    <contour>
      <point x="239" y="444" type="line" smooth="yes"/>
      <point x="250" y="444"/>
      <point x="259" y="453"/>
      <point x="259" y="464" type="curve" smooth="yes"/>
      <point x="259" y="475"/>
      <point x="250" y="484"/>
      <point x="239" y="484" type="curve" smooth="yes"/>
      <point x="26" y="484" type="line" smooth="yes"/>
      <point x="15" y="484"/>
      <point x="6" y="475"/>
      <point x="6" y="464" type="curve" smooth="yes"/>
      <point x="6" y="453"/>
      <point x="15" y="444"/>
      <point x="26" y="444" type="curve" smooth="yes"/>
    </contour>
    <contour>
      <point x="402" y="-10" type="curve" smooth="yes"/>
      <point x="413" y="-10"/>
      <point x="422" y="-1"/>
      <point x="422" y="10" type="curve" smooth="yes"/>
      <point x="422" y="220" type="line" smooth="yes"/>
      <point x="422" y="349"/>
      <point x="360" y="389"/>
      <point x="284" y="389" type="curve" smooth="yes"/>
      <point x="213" y="389"/>
      <point x="145" y="346"/>
      <point x="91" y="292" type="curve" smooth="yes"/>
      <point x="83" y="285"/>
      <point x="83" y="271"/>
      <point x="91" y="264" type="curve" smooth="yes"/>
      <point x="98" y="256"/>
      <point x="112" y="256"/>
      <point x="119" y="264" type="curve" smooth="yes"/>
      <point x="165" y="310"/>
      <point x="223" y="349"/>
      <point x="284" y="349" type="curve" smooth="yes"/>
      <point x="342" y="349"/>
      <point x="382" y="311"/>
      <point x="382" y="220" type="curve" smooth="yes"/>
      <point x="382" y="10" type="line" smooth="yes"/>
      <point x="382" y="-1"/>
      <point x="391" y="-10"/>
    </contour>
    <contour>
      <point x="101" y="-10" type="curve" smooth="yes"/>
      <point x="112" y="-10"/>
      <point x="121" y="-1"/>
      <point x="121" y="10" type="curve" smooth="yes"/>
      <point x="121" y="547" type="line" smooth="yes"/>
      <point x="121" y="558"/>
      <point x="112" y="567"/>
      <point x="101" y="567" type="curve" smooth="yes"/>
      <point x="90" y="567"/>
      <point x="81" y="558"/>
      <point x="81" y="547" type="curve" smooth="yes"/>
      <point x="81" y="10" type="line" smooth="yes"/>
      <point x="81" y="-1"/>
      <point x="90" y="-10"/>
    </contour>
  </outline>
</glyph>
<glyph name="Lslash" format="1">
  <advance width="468"/>
  <unicode hex="0141"/>
  <outline>
    <contour>
      <point x="287" y="332" type="line" smooth="yes"/>
      <point x="296" y="338"/>
      <point x="299" y="351"/>
      <point x="293" y="360" type="curve" smooth="yes"/>
      <point x="287" y="369"/>
      <point x="274" y="372"/>
      <point x="265" y="366" type="curve" smooth="yes"/>
      <point x="39" y="217" type="line" smooth="yes"/>
      <point x="30" y="211"/>
      <point x="27" y="198"/>
      <point x="33" y="189" type="curve" smooth="yes"/>
      <point x="39" y="180"/>
      <point x="52" y="177"/>
      <point x="61" y="183" type="curve" smooth="yes"/>
    </contour>
    <contour>
      <point x="130" y="-9" type="curve" smooth="yes"/>
      <point x="141" y="-9"/>
      <point x="150" y="0"/>
      <point x="150" y="11" type="curve" smooth="yes"/>
      <point x="150" y="520" type="line" smooth="yes"/>
      <point x="150" y="531"/>
      <point x="141" y="540"/>
      <point x="130" y="540" type="curve" smooth="yes"/>
      <point x="119" y="540"/>
      <point x="110" y="531"/>
      <point x="110" y="520" type="curve" smooth="yes"/>
      <point x="110" y="11" type="line" smooth="yes"/>
      <point x="110" y="0"/>
      <point x="119" y="-9"/>
    </contour>
    <contour>
      <point x="415" y="-9" type="line" smooth="yes"/>
      <point x="426" y="-9"/>
      <point x="435" y="0"/>
      <point x="435" y="11" type="curve" smooth="yes"/>
      <point x="435" y="22"/>
      <point x="426" y="31"/>
      <point x="415" y="31" type="curve" smooth="yes"/>
      <point x="139" y="31" type="line" smooth="yes"/>
      <point x="128" y="31"/>
      <point x="119" y="22"/>
      <point x="119" y="11" type="curve" smooth="yes"/>
      <point x="119" y="0"/>
      <point x="128" y="-9"/>
      <point x="139" y="-9" type="curve" smooth="yes"/>
    </contour>
  </outline>
</glyph>
<glyph name="lslash" format="1">
  <advance width="226"/>
  <unicode hex="0142"/>
  <outline>
    <contour>
      <point x="208" y="342" type="line" smooth="yes"/>
      <point x="216" y="348"/>
      <point x="219" y="361"/>
      <point x="212" y="370" type="curve" smooth="yes"/>
      <point x="206" y="378"/>
      <point x="193" y="381"/>
      <point x="184" y="374" type="curve" smooth="yes"/>
      <point x="20" y="256" type="line" smooth="yes"/>
      <point x="12" y="250"/>
      <point x="9" y="237"/>
      <point x="16" y="228" type="curve" smooth="yes"/>
      <point x="22" y="220"/>
      <point x="35" y="217"/>
      <point x="44" y="224" type="curve" smooth="yes"/>
    </contour>
    <contour>
      <point x="113" y="-10" type="curve" smooth="yes"/>
      <point x="124" y="-10"/>
      <point x="133" y="-1"/>
      <point x="133" y="10" type="curve" smooth="yes"/>
      <point x="133" y="547" type="line" smooth="yes"/>
      <point x="133" y="558"/>
      <point x="124" y="567"/>
      <point x="113" y="567" type="curve" smooth="yes"/>
      <point x="102" y="567"/>
      <point x="93" y="558"/>
      <point x="93" y="547" type="curve" smooth="yes"/>
      <point x="93" y="10" type="line" smooth="yes"/>
      <point x="93" y="-1"/>
      <point x="102" y="-10"/>
    </contour>
  </outline>
</glyph>
<glyph name="eng" format="1">
  <advance width="492"/>
  <unicode hex="014B"/>
  <outline>
    <contour>
      <point x="402" y="-6" type="curve" smooth="yes"/>
      <point x="413" y="-6"/>
      <point x="422" y="3"/>
      <point x="422" y="14" type="curve" smooth="yes"/>
      <point x="422" y="224" type="line" smooth="yes"/>
      <point x="422" y="354"/>
      <point x="360" y="394"/>
      <point x="284" y="394" type="curve" smooth="yes"/>
      <point x="213" y="394"/>
      <point x="145" y="351"/>
      <point x="91" y="296" type="curve" smooth="yes"/>
      <point x="83" y="288"/>
      <point x="83" y="275"/>
      <point x="91" y="268" type="curve" smooth="yes"/>
      <point x="99" y="260"/>
      <point x="112" y="260"/>
      <point x="119" y="268" type="curve" smooth="yes"/>
      <point x="165" y="315"/>
      <point x="223" y="354"/>
      <point x="284" y="354" type="curve" smooth="yes"/>
      <point x="342" y="354"/>
      <point x="382" y="316"/>
      <point x="382" y="224" type="curve" smooth="yes"/>
      <point x="382" y="14" type="line" smooth="yes"/>
      <point x="382" y="3"/>
      <point x="391" y="-6"/>
    </contour>
    <contour>
      <point x="101" y="-6" type="curve" smooth="yes"/>
      <point x="112" y="-6"/>
      <point x="121" y="3"/>
      <point x="121" y="14" type="curve" smooth="yes"/>
      <point x="121" y="374" type="line" smooth="yes"/>
      <point x="121" y="385"/>
      <point x="112" y="394"/>
      <point x="101" y="394" type="curve" smooth="yes"/>
      <point x="90" y="394"/>
      <point x="81" y="385"/>
      <point x="81" y="374" type="curve" smooth="yes"/>
      <point x="81" y="14" type="line" smooth="yes"/>
      <point x="81" y="3"/>
      <point x="90" y="-6"/>
    </contour>
    <contour>
      <point x="308" y="-157" type="curve" smooth="yes"/>
      <point x="390" y="-124"/>
      <point x="422" y="-72"/>
      <point x="422" y="3" type="curve" smooth="yes"/>
      <point x="422" y="152" type="line" smooth="yes"/>
      <point x="422" y="163"/>
      <point x="413" y="172"/>
      <point x="402" y="172" type="curve" smooth="yes"/>
      <point x="391" y="172"/>
      <point x="382" y="163"/>
      <point x="382" y="152" type="curve" smooth="yes"/>
      <point x="382" y="3" type="line" smooth="yes"/>
      <point x="382" y="-60"/>
      <point x="360" y="-93"/>
      <point x="294" y="-119" type="curve" smooth="yes"/>
      <point x="284" y="-123"/>
      <point x="278" y="-135"/>
      <point x="282" y="-145" type="curve" smooth="yes"/>
      <point x="286" y="-155"/>
      <point x="298" y="-161"/>
    </contour>
    <contour>
      <point x="254" y="402" type="move" name="top"/>
    </contour>
    <contour>
      <point x="240" y="30" type="move" name="bottom"/>
    </contour>
  </outline>
</glyph>
<glyph name="tcaron" format="1">
  <advance width="342"/>
  <unicode hex="0165"/>
  <outline>
    <contour>
      <point x="273" y="489" type="curve" smooth="yes"/>
      <point x="283" y="486"/>
      <point x="294" y="493"/>
      <point x="296" y="504" type="curve" smooth="yes"/>
      <point x="319" y="633" type="line" smooth="yes"/>
      <point x="321" y="643"/>
      <point x="315" y="653"/>
      <point x="304" y="656" type="curve" smooth="yes"/>
      <point x="294" y="659"/>
      <point x="283" y="652"/>
      <point x="281" y="641" type="curve" smooth="yes"/>
      <point x="258" y="512" type="line" smooth="yes"/>
      <point x="256" y="502"/>
      <point x="262" y="492"/>
    </contour>
    <contour>
      <point x="278" y="-9" type="curve" smooth="yes"/>
      <point x="288" y="-9"/>
      <point x="298" y="0"/>
      <point x="298" y="11" type="curve" smooth="yes"/>
      <point x="298" y="21"/>
      <point x="289" y="31"/>
      <point x="278" y="31" type="curve" smooth="yes"/>
      <point x="190" y="33"/>
      <point x="146" y="66"/>
      <point x="146" y="134" type="curve" smooth="yes"/>
      <point x="146" y="503" type="line" smooth="yes"/>
      <point x="146" y="514"/>
      <point x="137" y="523"/>
      <point x="126" y="523" type="curve" smooth="yes"/>
      <point x="115" y="523"/>
      <point x="106" y="514"/>
      <point x="106" y="503" type="curve" smooth="yes"/>
      <point x="106" y="134" type="line" smooth="yes"/>
      <point x="106" y="46"/>
      <point x="154" y="-7"/>
    </contour>
    <contour>
      <point x="292" y="350" type="line" smooth="yes"/>
      <point x="303" y="350"/>
      <point x="312" y="359"/>
      <point x="312" y="370" type="curve" smooth="yes"/>
      <point x="312" y="381"/>
      <point x="303" y="390"/>
      <point x="292" y="390" type="curve" smooth="yes"/>
      <point x="33" y="390" type="line" smooth="yes"/>
      <point x="22" y="390"/>
      <point x="13" y="381"/>
      <point x="13" y="370" type="curve" smooth="yes"/>
      <point x="13" y="359"/>
      <point x="22" y="350"/>
      <point x="33" y="350" type="curve" smooth="yes"/>
    </contour>
  </outline>
</glyph>
<glyph name="brevecomb" format="1">
  <advance width="0"/>
  <unicode hex="0306"/>
  <outline>
    <contour>
      <point x="0" y="494" type="curve" smooth="yes"/>
      <point x="58" y="494"/>
      <point x="93" y="523"/>
      <point x="121" y="569" type="curve" smooth="yes"/>
      <point x="127" y="578"/>
      <point x="124" y="590"/>
      <point x="114" y="596" type="curve" smooth="yes"/>
      <point x="105" y="602"/>
      <point x="93" y="599"/>
      <point x="87" y="589" type="curve" smooth="yes"/>
      <point x="67" y="557"/>
      <point x="42" y="534"/>
      <point x="0" y="534" type="curve" smooth="yes"/>
      <point x="-38" y="534"/>
      <point x="-69" y="558"/>
      <point x="-90" y="590" type="curve" smooth="yes"/>
      <point x="-96" y="599"/>
      <point x="-109" y="602"/>
      <point x="-118" y="596" type="curve" smooth="yes"/>
      <point x="-127" y="590"/>
      <point x="-130" y="577"/>
      <point x="-124" y="568" type="curve" smooth="yes"/>
      <point x="-95" y="524"/>
      <point x="-50" y="494"/>
    </contour>
    <contour>
      <point x="0" y="394" type="move" name="_top"/>
    </contour>
  </outline>
</glyph>
<glyph name="dotaccentcomb" format="1">
  <advance width="0"/>
  <unicode hex="0307"/>
  <outline>
    <contour>
      <point x="1" y="501" type="curve" smooth="yes"/>
      <point x="21" y="501"/>
      <point x="39" y="516"/>
      <point x="39" y="546" type="curve" smooth="yes"/>
      <point x="39" y="576"/>
      <point x="20" y="593"/>
      <point x="1" y="593" type="curve" smooth="yes"/>
      <point x="-22" y="593"/>
      <point x="-39" y="574"/>
      <point x="-39" y="546" type="curve" smooth="yes"/>
      <point x="-39" y="518"/>
      <point x="-22" y="501"/>
    </contour>
    <contour>
      <point x="0" y="394" type="move" name="_top"/>
    </contour>
  </outline>
</glyph>
<glyph name="commaaccentcomb" format="1">
  <advance width="0"/>
  <unicode hex="0326"/>
  <outline>
    <contour>
      <point x="-66" y="-256" type="curve" smooth="yes"/>
      <point x="-6" y="-229"/>
      <point x="27" y="-185"/>
      <point x="27" y="-140" type="curve" smooth="yes"/>
      <point x="27" y="-123"/>
      <point x="25" y="-104"/>
      <point x="16" y="-91" type="curve" smooth="yes"/>
      <point x="10" y="-82"/>
      <point x="-3" y="-77"/>
      <point x="-12" y="-83" type="curve" smooth="yes"/>
      <point x="-21" y="-89"/>
      <point x="-26" y="-102"/>
      <point x="-20" y="-111" type="curve" smooth="yes"/>
      <point x="-15" y="-119"/>
      <point x="-13" y="-129"/>
      <point x="-13" y="-140" type="curve" smooth="yes"/>
      <point x="-13" y="-173"/>
      <point x="-41" y="-204"/>
      <point x="-82" y="-220" type="curve" smooth="yes"/>
      <point x="-92" y="-224"/>
      <point x="-96" y="-236"/>
      <point x="-92" y="-246" type="curve" smooth="yes"/>
      <point x="-88" y="-256"/>
      <point x="-75" y="-260"/>
    </contour>
    <contour>
      <point x="-1" y="0" type="move" name="_bottom"/>
    </contour>
  </outline>
</glyph>
<glyph name="pi" format="1">
  <advance width="635"/>
  <unicode hex="03C0"/>
  <outline>
    <contour>
      <point x="515" y="-4" type="curve" smooth="yes"/>
      <point x="524" y="-10"/>
      <point x="536" y="-7"/>
      <point x="542" y="3" type="curve" smooth="yes"/>
      <point x="548" y="12"/>
      <point x="545" y="24"/>
      <point x="535" y="30" type="curve" smooth="yes"/>
      <point x="483" y="62"/>
      <point x="461" y="109"/>
      <point x="461" y="219" type="curve" smooth="yes"/>
      <point x="461" y="407" type="line" smooth="yes"/>
      <point x="461" y="418"/>
      <point x="452" y="427"/>
      <point x="441" y="427" type="curve" smooth="yes"/>
      <point x="430" y="427"/>
      <point x="421" y="418"/>
      <point x="421" y="407" type="qcurve"/>
      <point x="421" y="219" type="line" smooth="yes"/>
      <point x="421" y="87"/>
      <point x="453" y="34"/>
    </contour>
    <contour>
      <point x="189" y="-7" type="curve" smooth="yes"/>
      <point x="200" y="-7"/>
      <point x="209" y="2"/>
      <point x="209" y="13" type="curve" smooth="yes"/>
      <point x="209" y="407" type="line" smooth="yes"/>
      <point x="209" y="418"/>
      <point x="200" y="427"/>
      <point x="189" y="427" type="curve" smooth="yes"/>
      <point x="178" y="427"/>
      <point x="169" y="418"/>
      <point x="169" y="407" type="qcurve"/>
      <point x="169" y="13" type="line" smooth="yes"/>
      <point x="169" y="2"/>
      <point x="178" y="-7"/>
    </contour>
    <contour>
      <point x="553" y="393" type="line" smooth="yes"/>
      <point x="564" y="393"/>
      <point x="573" y="402"/>
      <point x="573" y="413" type="curve" smooth="yes"/>
      <point x="573" y="424"/>
      <point x="564" y="433"/>
      <point x="553" y="433" type="qcurve"/>
      <point x="81" y="433" type="line" smooth="yes"/>
      <point x="70" y="433"/>
      <point x="61" y="424"/>
      <point x="61" y="413" type="curve" smooth="yes"/>
      <point x="61" y="402"/>
      <point x="70" y="393"/>
      <point x="81" y="393" type="curve" smooth="yes"/>
    </contour>
  </outline>
</glyph>
<glyph name="bCha" format="1">
  <advance width="500"/>
  <unicode hex="099B"/>
  <outline>
    <contour>
      <point x="495" y="-82" type="curve" smooth="yes"/>
      <point x="509" y="-82"/>
      <point x="517" y="-72"/>
      <point x="517" y="-63" type="curve" smooth="yes"/>
      <point x="517" y="-55"/>
      <point x="512" y="-46"/>
      <point x="496" y="-46" type="curve" smooth="yes"/>
      <point x="452" y="-46"/>
      <point x="382" y="33"/>
      <point x="307" y="89" type="curve" smooth="yes"/>
      <point x="271" y="116"/>
      <point x="220" y="148"/>
      <point x="182" y="148" type="curve" smooth="yes"/>
      <point x="144" y="148"/>
      <point x="122" y="126"/>
      <point x="122" y="100" type="curve" smooth="yes"/>
      <point x="122" y="65"/>
      <point x="158" y="46"/>
      <point x="200" y="46" type="curve" smooth="yes"/>
      <point x="311" y="46"/>
      <point x="453" y="145"/>
      <point x="453" y="270" type="curve" smooth="yes"/>
      <point x="453" y="356"/>
      <point x="377" y="425"/>
      <point x="280" y="425" type="curve" smooth="yes"/>
      <point x="202" y="425"/>
      <point x="139" y="461"/>
      <point x="139" y="515" type="curve" smooth="yes"/>
      <point x="139" y="552"/>
      <point x="159" y="554"/>
      <point x="187" y="554" type="curve" smooth="yes"/>
      <point x="500" y="554" type="line" smooth="yes"/>
      <point x="511" y="554"/>
      <point x="520" y="562"/>
      <point x="520" y="571" type="curve" smooth="yes"/>
      <point x="520" y="580"/>
      <point x="511" y="587"/>
      <point x="500" y="587" type="curve" smooth="yes"/>
      <point x="176" y="587" type="line" smooth="yes"/>
      <point x="119" y="587"/>
      <point x="100" y="574"/>
      <point x="100" y="511" type="curve"/>
      <point x="115" y="525" type="line"/>
      <point x="102" y="561"/>
      <point x="85" y="587"/>
      <point x="24" y="587" type="curve" smooth="yes"/>
      <point x="0" y="587" type="line" smooth="yes"/>
      <point x="-11" y="587"/>
      <point x="-20" y="580"/>
      <point x="-20" y="571" type="curve" smooth="yes"/>
      <point x="-20" y="562"/>
      <point x="-11" y="554"/>
      <point x="0" y="554" type="curve" smooth="yes"/>
      <point x="35" y="554" type="line" smooth="yes"/>
      <point x="84" y="554"/>
      <point x="100" y="513"/>
      <point x="100" y="482" type="curve"/>
      <point x="98" y="277" type="line" smooth="yes"/>
      <point x="97" y="203"/>
      <point x="134" y="184"/>
      <point x="181" y="184" type="curve" smooth="yes"/>
      <point x="254" y="184"/>
      <point x="357" y="284"/>
      <point x="357" y="359" type="curve" smooth="yes"/>
      <point x="357" y="389"/>
      <point x="338" y="403"/>
      <point x="329" y="403" type="curve"/>
      <point x="334" y="386" type="line"/>
      <point x="400" y="357"/>
      <point x="415" y="317"/>
      <point x="415" y="273" type="curve" smooth="yes"/>
      <point x="415" y="184"/>
      <point x="297" y="88"/>
      <point x="199" y="88" type="curve" smooth="yes"/>
      <point x="180" y="88"/>
      <point x="169" y="96"/>
      <point x="169" y="102" type="curve" smooth="yes"/>
      <point x="169" y="107"/>
      <point x="174" y="110"/>
      <point x="183" y="110" type="curve" smooth="yes"/>
      <point x="200" y="110"/>
      <point x="240" y="87"/>
      <point x="264" y="71" type="curve"/>
      <point x="342" y="14"/>
      <point x="438" y="-82"/>
    </contour>
    <contour>
      <point x="176" y="219" type="curve" smooth="yes"/>
      <point x="149" y="219"/>
      <point x="138" y="236"/>
      <point x="138" y="276" type="curve" smooth="yes"/>
      <point x="138" y="484" type="line"/>
      <point x="123" y="474" type="line"/>
      <point x="141" y="403"/>
      <point x="209" y="390"/>
      <point x="257" y="390" type="curve" smooth="yes"/>
      <point x="297" y="390"/>
      <point x="322" y="383"/>
      <point x="322" y="355" type="curve" smooth="yes"/>
      <point x="322" y="308"/>
      <point x="230" y="219"/>
    </contour>
  </outline>
</glyph>
<glyph name="bBha" format="1">
  <advance width="571"/>
  <unicode hex="09AD"/>
  <outline>
    <contour>
      <point x="332" y="57" type="curve" smooth="yes"/>
      <point x="457" y="57"/>
      <point x="526" y="150"/>
      <point x="526" y="253" type="curve" smooth="yes"/>
      <point x="526" y="323"/>
      <point x="484" y="405"/>
      <point x="456" y="405" type="curve" smooth="yes"/>
      <point x="444" y="405"/>
      <point x="440" y="396"/>
      <point x="434" y="377" type="curve" smooth="yes"/>
      <point x="420" y="333"/>
      <point x="385" y="295"/>
      <point x="317" y="295" type="curve" smooth="yes"/>
      <point x="281" y="295"/>
      <point x="255" y="312"/>
      <point x="231" y="333" type="curve"/>
      <point x="224" y="324" type="line"/>
      <point x="235" y="318"/>
      <point x="248" y="315"/>
      <point x="260" y="315" type="curve" smooth="yes"/>
      <point x="297" y="315"/>
      <point x="335" y="342"/>
      <point x="335" y="384" type="curve" smooth="yes"/>
      <point x="335" y="424"/>
      <point x="302" y="459"/>
      <point x="259" y="459" type="curve" smooth="yes"/>
      <point x="219" y="459"/>
      <point x="180" y="428"/>
      <point x="180" y="380" type="curve" smooth="yes"/>
      <point x="180" y="322"/>
      <point x="239" y="256"/>
      <point x="323" y="256" type="curve" smooth="yes"/>
      <point x="423" y="256"/>
      <point x="467" y="343"/>
      <point x="467" y="380" type="curve"/>
      <point x="454" y="372" type="line"/>
      <point x="475" y="343"/>
      <point x="486" y="302"/>
      <point x="486" y="264" type="curve" smooth="yes"/>
      <point x="486" y="187"/>
      <point x="440" y="102"/>
      <point x="326" y="102" type="curve" smooth="yes"/>
      <point x="174" y="102"/>
      <point x="90" y="296"/>
      <point x="63" y="415" type="curve" smooth="yes"/>
      <point x="60" y="428"/>
      <point x="55" y="438"/>
      <point x="43" y="438" type="curve" smooth="yes"/>
      <point x="31" y="438"/>
      <point x="29" y="426"/>
      <point x="29" y="420" type="curve" smooth="yes"/>
      <point x="29" y="354"/>
      <point x="114" y="57"/>
    </contour>
    <contour>
      <point x="256" y="343" type="curve" smooth="yes"/>
      <point x="237" y="343"/>
      <point x="216" y="357"/>
      <point x="216" y="383" type="curve" smooth="yes"/>
      <point x="216" y="410"/>
      <point x="237" y="423"/>
      <point x="256" y="423" type="curve" smooth="yes"/>
      <point x="276" y="423"/>
      <point x="296" y="410"/>
      <point x="296" y="383" type="curve" smooth="yes"/>
      <point x="296" y="357"/>
      <point x="276" y="343"/>
    </contour>
    <contour>
      <point x="571" y="554" type="line" smooth="yes"/>
      <point x="582" y="554"/>
      <point x="591" y="562"/>
      <point x="591" y="571" type="curve" smooth="yes"/>
      <point x="591" y="580"/>
      <point x="582" y="587"/>
      <point x="571" y="587" type="curve" smooth="yes"/>
      <point x="0" y="587" type="line" smooth="yes"/>
      <point x="-11" y="587"/>
      <point x="-20" y="580"/>
      <point x="-20" y="571" type="curve" smooth="yes"/>
      <point x="-20" y="562"/>
      <point x="-11" y="554"/>
      <point x="0" y="554" type="curve" smooth="yes"/>
    </contour>
  </outline>
</glyph>
<glyph name="bSignVocalicR" format="1">
  <advance width="0"/>
  <unicode hex="09C3"/>
  <outline>
    <contour>
      <point x="-67" y="-203" type="curve" smooth="yes"/>
      <point x="-60" y="-203"/>
      <point x="-54" y="-198"/>
      <point x="-54" y="-189" type="curve" smooth="yes"/>
      <point x="-54" y="-173"/>
      <point x="-66" y="-166"/>
      <point x="-88" y="-152" type="curve" smooth="yes"/>
      <point x="-267" y="-40" type="line"/>
      <point x="-267" y="-59" type="line"/>
      <point x="-121" y="-14" type="line" smooth="yes"/>
      <point x="-109" y="-10"/>
      <point x="-101" y="1"/>
      <point x="-101" y="13" type="curve" smooth="yes"/>
      <point x="-101" y="68" type="line" smooth="yes"/>
      <point x="-101" y="79"/>
      <point x="-110" y="88"/>
      <point x="-121" y="88" type="curve" smooth="yes"/>
      <point x="-132" y="88"/>
      <point x="-141" y="79"/>
      <point x="-141" y="68" type="curve" smooth="yes"/>
      <point x="-141" y="4" type="line"/>
      <point x="-127" y="25" type="line"/>
      <point x="-257" y="-17" type="line" smooth="yes"/>
      <point x="-280" y="-25"/>
      <point x="-292" y="-35"/>
      <point x="-292" y="-49" type="curve" smooth="yes"/>
      <point x="-292" y="-69"/>
      <point x="-267" y="-81"/>
      <point x="-237" y="-100" type="curve" smooth="yes"/>
      <point x="-176" y="-139"/>
      <point x="-83" y="-203"/>
    </contour>
  </outline>
</glyph>
<glyph name="bSignVocalicRr" format="1">
  <advance width="0"/>
  <unicode hex="09C4"/>
  <outline>
    <contour>
      <point x="-60" y="-313" type="curve" smooth="yes"/>
      <point x="-54" y="-313"/>
      <point x="-48" y="-308"/>
      <point x="-48" y="-298" type="curve" smooth="yes"/>
      <point x="-48" y="-281"/>
      <point x="-56" y="-276"/>
      <point x="-78" y="-262" type="curve" smooth="yes"/>
      <point x="-249" y="-154" type="line"/>
      <point x="-251" y="-169" type="line"/>
      <point x="-162" y="-138" type="line"/>
      <point x="-202" y="-112" type="line"/>
      <point x="-254" y="-130" type="line" smooth="yes"/>
      <point x="-270" y="-135"/>
      <point x="-282" y="-145"/>
      <point x="-282" y="-159" type="curve" smooth="yes"/>
      <point x="-282" y="-179"/>
      <point x="-257" y="-191"/>
      <point x="-227" y="-210" type="curve" smooth="yes"/>
      <point x="-166" y="-249"/>
      <point x="-73" y="-313"/>
    </contour>
    <contour>
      <point x="-67" y="-203" type="curve" smooth="yes"/>
      <point x="-60" y="-203"/>
      <point x="-54" y="-198"/>
      <point x="-54" y="-189" type="curve" smooth="yes"/>
      <point x="-54" y="-173"/>
      <point x="-66" y="-166"/>
      <point x="-88" y="-152" type="curve" smooth="yes"/>
      <point x="-267" y="-40" type="line"/>
      <point x="-267" y="-59" type="line"/>
      <point x="-121" y="-14" type="line" smooth="yes"/>
      <point x="-109" y="-10"/>
      <point x="-101" y="1"/>
      <point x="-101" y="13" type="curve" smooth="yes"/>
      <point x="-101" y="68" type="line" smooth="yes"/>
      <point x="-101" y="79"/>
      <point x="-110" y="88"/>
      <point x="-121" y="88" type="curve" smooth="yes"/>
      <point x="-132" y="88"/>
      <point x="-141" y="79"/>
      <point x="-141" y="68" type="curve" smooth="yes"/>
      <point x="-141" y="4" type="line"/>
      <point x="-127" y="25" type="line"/>
      <point x="-257" y="-17" type="line" smooth="yes"/>
      <point x="-280" y="-25"/>
      <point x="-292" y="-35"/>
      <point x="-292" y="-49" type="curve" smooth="yes"/>
      <point x="-292" y="-69"/>
      <point x="-267" y="-81"/>
      <point x="-237" y="-100" type="curve" smooth="yes"/>
      <point x="-176" y="-139"/>
      <point x="-83" y="-203"/>
    </contour>
  </outline>
</glyph>
<glyph name="bSignAi" format="1">
  <advance width="292"/>
  <unicode hex="09C8"/>
  <outline>
    <contour>
      <point x="241" y="-12" type="curve" smooth="yes"/>
      <point x="289" y="-12"/>
      <point x="320" y="9"/>
      <point x="320" y="48" type="curve" smooth="yes"/>
      <point x="320" y="83"/>
      <point x="294" y="106"/>
      <point x="262" y="106" type="curve" smooth="yes"/>
      <point x="225" y="106"/>
      <point x="205" y="76"/>
      <point x="205" y="53" type="curve" smooth="yes"/>
      <point x="205" y="31"/>
      <point x="223" y="2"/>
      <point x="253" y="4" type="curve"/>
      <point x="248" y="13" type="line"/>
      <point x="166" y="10"/>
      <point x="94" y="111"/>
      <point x="94" y="214" type="curve" smooth="yes"/>
      <point x="94" y="321"/>
      <point x="173" y="433"/>
      <point x="206" y="491" type="curve" smooth="yes"/>
      <point x="233" y="538"/>
      <point x="251" y="585"/>
      <point x="251" y="630" type="curve" smooth="yes"/>
      <point x="251" y="673"/>
      <point x="234" y="722"/>
      <point x="150" y="722" type="curve" smooth="yes"/>
      <point x="116" y="722"/>
      <point x="69" y="714"/>
      <point x="41" y="714" type="curve" smooth="yes"/>
      <point x="3" y="714"/>
      <point x="-18" y="729"/>
      <point x="-27" y="774" type="curve" smooth="yes"/>
      <point x="-31" y="794"/>
      <point x="-36" y="798"/>
      <point x="-43" y="798" type="curve" smooth="yes"/>
      <point x="-49" y="798"/>
      <point x="-57" y="795"/>
      <point x="-57" y="776" type="curve" smooth="yes"/>
      <point x="-57" y="732"/>
      <point x="-26" y="683"/>
      <point x="55" y="683" type="curve" smooth="yes"/>
      <point x="84" y="683"/>
      <point x="129" y="689"/>
      <point x="154" y="689" type="curve" smooth="yes"/>
      <point x="208" y="689"/>
      <point x="220" y="662"/>
      <point x="220" y="626" type="curve" smooth="yes"/>
      <point x="220" y="594"/>
      <point x="211" y="566"/>
      <point x="196" y="540" type="curve"/>
      <point x="220" y="533" type="line"/>
      <point x="220" y="571"/>
      <point x="192" y="587"/>
      <point x="156" y="587" type="curve" smooth="yes"/>
      <point x="0" y="587" type="line" smooth="yes"/>
      <point x="-11" y="587"/>
      <point x="-20" y="580"/>
      <point x="-20" y="571" type="curve" smooth="yes"/>
      <point x="-20" y="562"/>
      <point x="-11" y="554"/>
      <point x="0" y="554" type="curve" smooth="yes"/>
      <point x="139" y="554" type="line" smooth="yes"/>
      <point x="154" y="554"/>
      <point x="195" y="557"/>
      <point x="195" y="538" type="curve" smooth="yes"/>
      <point x="195" y="501"/>
      <point x="54" y="365"/>
      <point x="54" y="210" type="curve" smooth="yes"/>
      <point x="54" y="94"/>
      <point x="133" y="-12"/>
    </contour>
    <contour>
      <point x="262" y="22" type="curve" smooth="yes"/>
      <point x="247" y="22"/>
      <point x="237" y="32"/>
      <point x="237" y="47" type="curve" smooth="yes"/>
      <point x="237" y="62"/>
      <point x="247" y="72"/>
      <point x="262" y="72" type="curve" smooth="yes"/>
      <point x="277" y="72"/>
      <point x="287" y="62"/>
      <point x="287" y="47" type="curve" smooth="yes"/>
      <point x="287" y="32"/>
      <point x="277" y="22"/>
    </contour>
  </outline>
</glyph>
<glyph name="bFour" format="1">
  <advance width="521"/>
  <unicode hex="09EA"/>
  <outline>
    <contour>
      <point x="274" y="-12" type="curve" smooth="yes"/>
      <point x="382" y="-12"/>
      <point x="454" y="49"/>
      <point x="454" y="140" type="curve" smooth="yes"/>
      <point x="454" y="340"/>
      <point x="130" y="277"/>
      <point x="130" y="435" type="curve" smooth="yes"/>
      <point x="130" y="505"/>
      <point x="191" y="545"/>
      <point x="255" y="545" type="curve" smooth="yes"/>
      <point x="316" y="545"/>
      <point x="392" y="511"/>
      <point x="392" y="439" type="curve" smooth="yes"/>
      <point x="392" y="289"/>
      <point x="79" y="309"/>
      <point x="79" y="144" type="curve" smooth="yes"/>
      <point x="79" y="52"/>
      <point x="163" y="-12"/>
    </contour>
    <contour>
      <point x="272" y="21" type="curve" smooth="yes"/>
      <point x="186" y="21"/>
      <point x="123" y="70"/>
      <point x="123" y="138" type="curve" smooth="yes"/>
      <point x="123" y="290"/>
      <point x="433" y="244"/>
      <point x="433" y="437" type="curve" smooth="yes"/>
      <point x="433" y="541"/>
      <point x="324" y="578"/>
      <point x="255" y="578" type="curve" smooth="yes"/>
      <point x="178" y="578"/>
      <point x="90" y="528"/>
      <point x="90" y="439" type="curve" smooth="yes"/>
      <point x="90" y="232"/>
      <point x="414" y="296"/>
      <point x="414" y="144" type="curve" smooth="yes"/>
      <point x="414" y="76"/>
      <point x="365" y="21"/>
    </contour>
  </outline>
</glyph>
<glyph name="bFive" format="1">
  <advance width="524"/>
  <unicode hex="09EB"/>
  <outline>
    <contour>
      <point x="273" y="-12" type="curve" smooth="yes"/>
      <point x="372" y="-12"/>
      <point x="457" y="37"/>
      <point x="457" y="68" type="curve" smooth="yes"/>
      <point x="457" y="76"/>
      <point x="453" y="89"/>
      <point x="431" y="89" type="curve" smooth="yes"/>
      <point x="395" y="89"/>
      <point x="331" y="116"/>
      <point x="331" y="205" type="curve" smooth="yes"/>
      <point x="331" y="358"/>
      <point x="481" y="445"/>
      <point x="481" y="476" type="curve" smooth="yes"/>
      <point x="481" y="483"/>
      <point x="476" y="491"/>
      <point x="464" y="491" type="curve" smooth="yes"/>
      <point x="445" y="491"/>
      <point x="421" y="466"/>
      <point x="363" y="466" type="curve" smooth="yes"/>
      <point x="309" y="466"/>
      <point x="228" y="497"/>
      <point x="228" y="540" type="curve" smooth="yes"/>
      <point x="228" y="548"/>
      <point x="238" y="556"/>
      <point x="238" y="565" type="curve" smooth="yes"/>
      <point x="238" y="569"/>
      <point x="233" y="579"/>
      <point x="222" y="579" type="curve" smooth="yes"/>
      <point x="217" y="579"/>
      <point x="208" y="577"/>
      <point x="191" y="560" type="curve" smooth="yes"/>
      <point x="156" y="524"/>
      <point x="48" y="411"/>
      <point x="48" y="244" type="curve" smooth="yes"/>
      <point x="48" y="77"/>
      <point x="157" y="-12"/>
    </contour>
    <contour>
      <point x="276" y="25" type="curve" smooth="yes"/>
      <point x="176" y="25"/>
      <point x="86" y="98"/>
      <point x="86" y="242" type="curve" smooth="yes"/>
      <point x="86" y="376"/>
      <point x="164" y="474"/>
      <point x="211" y="527" type="curve"/>
      <point x="193" y="536" type="line"/>
      <point x="191" y="473"/>
      <point x="284" y="432"/>
      <point x="346" y="432" type="curve" smooth="yes"/>
      <point x="383" y="432"/>
      <point x="406" y="437"/>
      <point x="422" y="447" type="curve"/>
      <point x="421" y="460" type="line"/>
      <point x="350" y="391"/>
      <point x="292" y="297"/>
      <point x="292" y="213" type="curve" smooth="yes"/>
      <point x="292" y="105"/>
      <point x="358" y="59"/>
      <point x="415" y="55" type="curve"/>
      <point x="409" y="72" type="line"/>
      <point x="387" y="50"/>
      <point x="328" y="25"/>
    </contour>
  </outline>
</glyph>
<glyph name="bEight" format="1">
  <advance width="532"/>
  <unicode hex="09EE"/>
  <outline>
    <contour>
      <point x="229" y="-12" type="curve" smooth="yes"/>
      <point x="327" y="-12"/>
      <point x="429" y="108"/>
      <point x="429" y="216" type="curve" smooth="yes"/>
      <point x="429" y="281"/>
      <point x="405" y="329"/>
      <point x="365" y="359" type="curve"/>
      <point x="356" y="350" type="line"/>
      <point x="370" y="343"/>
      <point x="392" y="339"/>
      <point x="415" y="339" type="curve" smooth="yes"/>
      <point x="451" y="339"/>
      <point x="487" y="349"/>
      <point x="487" y="370" type="curve" smooth="yes"/>
      <point x="487" y="375"/>
      <point x="485" y="387"/>
      <point x="471" y="387" type="curve" smooth="yes"/>
      <point x="457" y="387"/>
      <point x="444" y="368"/>
      <point x="412" y="368" type="curve" smooth="yes"/>
      <point x="370" y="368"/>
      <point x="322" y="385"/>
      <point x="279" y="385" type="curve" smooth="yes"/>
      <point x="252" y="385"/>
      <point x="208" y="380"/>
      <point x="208" y="362" type="curve" smooth="yes"/>
      <point x="208" y="356"/>
      <point x="211" y="348"/>
      <point x="224" y="348" type="curve" smooth="yes"/>
      <point x="236" y="348"/>
      <point x="253" y="354"/>
      <point x="274" y="354" type="curve" smooth="yes"/>
      <point x="348" y="354"/>
      <point x="388" y="304"/>
      <point x="388" y="216" type="curve" smooth="yes"/>
      <point x="388" y="125"/>
      <point x="306" y="28"/>
      <point x="229" y="28" type="curve" smooth="yes"/>
      <point x="177" y="28"/>
      <point x="157" y="55"/>
      <point x="157" y="116" type="curve" smooth="yes"/>
      <point x="157" y="473" type="line" smooth="yes"/>
      <point x="157" y="540"/>
      <point x="132" y="585"/>
      <point x="85" y="585" type="curve" smooth="yes"/>
      <point x="68" y="585"/>
      <point x="61" y="577"/>
      <point x="61" y="571" type="curve" smooth="yes"/>
      <point x="61" y="566"/>
      <point x="66" y="559"/>
      <point x="75" y="556" type="curve" smooth="yes"/>
      <point x="118" y="540"/>
      <point x="118" y="513"/>
      <point x="118" y="473" type="curve" smooth="yes"/>
      <point x="118" y="116" type="line" smooth="yes"/>
      <point x="118" y="29"/>
      <point x="152" y="-12"/>
    </contour>
  </outline>
</glyph>
<glyph name="guilsinglright" format="1">
  <advance width="251"/>
  <unicode hex="203A"/>
  <outline>
    <contour>
      <point x="63" y="15" type="curve" smooth="yes"/>
      <point x="72" y="8"/>
      <point x="85" y="10"/>
      <point x="91" y="19" type="curve" smooth="yes"/>
      <point x="208" y="177" type="line" smooth="yes"/>
      <point x="215" y="186"/>
      <point x="213" y="199"/>
      <point x="204" y="205" type="curve" smooth="yes"/>
      <point x="195" y="212"/>
      <point x="182" y="210"/>
      <point x="176" y="201" type="curve" smooth="yes"/>
      <point x="59" y="43" type="line" smooth="yes"/>
      <point x="52" y="34"/>
      <point x="54" y="21"/>
    </contour>
    <contour>
      <point x="204" y="178" type="curve" smooth="yes"/>
      <point x="213" y="184"/>
      <point x="215" y="197"/>
      <point x="208" y="206" type="curve" smooth="yes"/>
      <point x="91" y="364" type="line" smooth="yes"/>
      <point x="85" y="373"/>
      <point x="72" y="375"/>
      <point x="63" y="368" type="curve" smooth="yes"/>
      <point x="54" y="362"/>
      <point x="52" y="349"/>
      <point x="59" y="340" type="curve" smooth="yes"/>
      <point x="176" y="182" type="line" smooth="yes"/>
      <point x="182" y="173"/>
      <point x="195" y="171"/>
    </contour>
  </outline>
</glyph>
<glyph name="uni20BA" format="1">
  <advance width="490"/>
  <unicode hex="20BA"/>
  <outline>
    <contour>
      <point x="254" y="-12" type="line" smooth="yes"/>
      <point x="255" y="-12"/>
      <point x="255" y="-12"/>
      <point x="256" y="-12" type="curve" smooth="yes"/>
      <point x="370" y="-9"/>
      <point x="444" y="53"/>
      <point x="455" y="160" type="curve" smooth="yes"/>
      <point x="456" y="171"/>
      <point x="448" y="181"/>
      <point x="437" y="182" type="curve" smooth="yes"/>
      <point x="426" y="183"/>
      <point x="416" y="175"/>
      <point x="415" y="164" type="curve" smooth="yes"/>
      <point x="406" y="77"/>
      <point x="346" y="31"/>
      <point x="254" y="28" type="curve"/>
      <point x="256" y="28" type="line"/>
      <point x="142" y="31" type="line" smooth="yes"/>
      <point x="131" y="31"/>
      <point x="121" y="22"/>
      <point x="121" y="12" type="curve" smooth="yes"/>
      <point x="121" y="1"/>
      <point x="130" y="-9"/>
      <point x="140" y="-9" type="curve" smooth="yes"/>
    </contour>
    <contour>
      <point x="305" y="249" type="line" smooth="yes"/>
      <point x="315" y="253"/>
      <point x="321" y="265"/>
      <point x="317" y="275" type="curve" smooth="yes"/>
      <point x="313" y="285"/>
      <point x="301" y="291"/>
      <point x="291" y="287" type="curve" smooth="yes"/>
      <point x="43" y="193" type="line" smooth="yes"/>
      <point x="33" y="189"/>
      <point x="27" y="177"/>
      <point x="31" y="167" type="curve" smooth="yes"/>
      <point x="35" y="157"/>
      <point x="47" y="151"/>
      <point x="57" y="155" type="curve" smooth="yes"/>
    </contour>
    <contour>
      <point x="133" y="-9" type="curve" smooth="yes"/>
      <point x="144" y="-9"/>
      <point x="153" y="0"/>
      <point x="153" y="11" type="curve" smooth="yes"/>
      <point x="153" y="520" type="line" smooth="yes"/>
      <point x="153" y="531"/>
      <point x="144" y="540"/>
      <point x="133" y="540" type="curve" smooth="yes"/>
      <point x="122" y="540"/>
      <point x="113" y="531"/>
      <point x="113" y="520" type="curve" smooth="yes"/>
      <point x="113" y="11" type="line" smooth="yes"/>
      <point x="113" y="0"/>
      <point x="122" y="-9"/>
    </contour>
    <contour>
      <point x="305" y="416" type="line" smooth="yes"/>
      <point x="315" y="420"/>
      <point x="321" y="432"/>
      <point x="317" y="442" type="curve" smooth="yes"/>
      <point x="313" y="452"/>
      <point x="301" y="458"/>
      <point x="291" y="454" type="curve" smooth="yes"/>
      <point x="43" y="360" type="line" smooth="yes"/>
      <point x="33" y="356"/>
      <point x="27" y="344"/>
      <point x="31" y="334" type="curve" smooth="yes"/>
      <point x="35" y="324"/>
      <point x="47" y="318"/>
      <point x="57" y="322" type="curve" smooth="yes"/>
    </contour>
  </outline>
</glyph>
<glyph name="summation" format="1">
  <advance width="479"/>
  <unicode hex="2211"/>
  <outline>
    <contour>
      <point x="38" y="-4" type="curve" smooth="yes"/>
      <point x="47" y="-11"/>
      <point x="60" y="-10"/>
      <point x="66" y="-2" type="curve" smooth="yes"/>
      <point x="273" y="251" type="line" smooth="yes"/>
      <point x="280" y="260"/>
      <point x="279" y="273"/>
      <point x="271" y="279" type="curve" smooth="yes"/>
      <point x="262" y="286"/>
      <point x="249" y="285"/>
      <point x="243" y="277" type="curve" smooth="yes"/>
      <point x="36" y="24" type="line" smooth="yes"/>
      <point x="29" y="15"/>
      <point x="30" y="2"/>
    </contour>
    <contour>
      <point x="407" y="-9" type="line" smooth="yes"/>
      <point x="418" y="-9"/>
      <point x="427" y="0"/>
      <point x="427" y="11" type="curve" smooth="yes"/>
      <point x="427" y="22"/>
      <point x="418" y="31"/>
      <point x="407" y="31" type="curve" smooth="yes"/>
      <point x="60" y="31" type="line" smooth="yes"/>
      <point x="49" y="31"/>
      <point x="40" y="22"/>
      <point x="40" y="11" type="curve" smooth="yes"/>
      <point x="40" y="0"/>
      <point x="49" y="-9"/>
      <point x="60" y="-9" type="curve" smooth="yes"/>
    </contour>
    <contour>
      <point x="271" y="255" type="curve" smooth="yes"/>
      <point x="280" y="262"/>
      <point x="281" y="275"/>
      <point x="275" y="283" type="curve" smooth="yes"/>
      <point x="79" y="532" type="line" smooth="yes"/>
      <point x="72" y="541"/>
      <point x="59" y="542"/>
      <point x="51" y="536" type="curve" smooth="yes"/>
      <point x="42" y="529"/>
      <point x="41" y="516"/>
      <point x="47" y="508" type="curve" smooth="yes"/>
      <point x="243" y="259" type="line" smooth="yes"/>
      <point x="250" y="250"/>
      <point x="263" y="249"/>
    </contour>
    <contour>
      <point x="402" y="500" type="line" smooth="yes"/>
      <point x="413" y="500"/>
      <point x="422" y="509"/>
      <point x="422" y="520" type="curve" smooth="yes"/>
      <point x="422" y="531"/>
      <point x="413" y="540"/>
      <point x="402" y="540" type="curve" smooth="yes"/>
      <point x="70" y="540" type="line" smooth="yes"/>
      <point x="59" y="540"/>
      <point x="50" y="531"/>
      <point x="50" y="520" type="curve" smooth="yes"/>
      <point x="50" y="509"/>
      <point x="59" y="500"/>
      <point x="70" y="500" type="curve" smooth="yes"/>
    </contour>
  </outline>
</glyph>
<glyph name="uni2215" format="1">
  <advance width="447"/>
  <unicode hex="2215"/>
  <outline>
    <contour>
      <point x="67" y="-6" type="curve" smooth="yes"/>
      <point x="76" y="-12"/>
      <point x="89" y="-8"/>
      <point x="94" y="1" type="curve" smooth="yes"/>
      <point x="392" y="510" type="line" smooth="yes"/>
      <point x="398" y="519"/>
      <point x="394" y="532"/>
      <point x="385" y="537" type="curve" smooth="yes"/>
      <point x="376" y="543"/>
      <point x="363" y="539"/>
      <point x="358" y="530" type="curve" smooth="yes"/>
      <point x="60" y="21" type="line" smooth="yes"/>
      <point x="54" y="12"/>
      <point x="58" y="-1"/>
    </contour>
  </outline>
</glyph>
<glyph name="uni2219" format="1">
  <advance width="206"/>
  <unicode hex="2219"/>
  <outline>
    <contour>
      <point x="105" y="168" type="curve" smooth="yes"/>
      <point x="128" y="168"/>
      <point x="146" y="183"/>
      <point x="146" y="218" type="curve" smooth="yes"/>
      <point x="146" y="247"/>
      <point x="127" y="268"/>
      <point x="104" y="268" type="curve" smooth="yes"/>
      <point x="77" y="268"/>
      <point x="63" y="247"/>
      <point x="63" y="218" type="curve" smooth="yes"/>
      <point x="63" y="184"/>
      <point x="83" y="168"/>
    </contour>
  </outline>
</glyph>
<glyph name="radical" format="1">
  <advance width="534"/>
  <unicode hex="221A"/>
  <outline>
    <contour>
      <point x="268" y="-21" type="curve" smooth="yes"/>
      <point x="278" y="-24"/>
      <point x="290" y="-19"/>
      <point x="294" y="-9" type="curve" smooth="yes"/>
      <point x="342" y="126"/>
      <point x="444" y="433"/>
      <point x="489" y="607" type="curve" smooth="yes"/>
      <point x="492" y="617"/>
      <point x="485" y="629"/>
      <point x="475" y="631" type="curve" smooth="yes"/>
      <point x="465" y="634"/>
      <point x="453" y="627"/>
      <point x="451" y="617" type="curve" smooth="yes"/>
      <point x="406" y="445"/>
      <point x="304" y="138"/>
      <point x="256" y="5" type="curve" smooth="yes"/>
      <point x="253" y="-5"/>
      <point x="258" y="-17"/>
    </contour>
    <contour>
      <point x="281" y="-13" type="curve" smooth="yes"/>
      <point x="291" y="-8"/>
      <point x="295" y="5"/>
      <point x="290" y="14" type="curve" smooth="yes"/>
      <point x="250" y="91"/>
      <point x="185" y="230"/>
      <point x="144" y="324" type="curve" smooth="yes"/>
      <point x="140" y="334"/>
      <point x="128" y="339"/>
      <point x="118" y="334" type="curve" smooth="yes"/>
      <point x="108" y="330"/>
      <point x="103" y="318"/>
      <point x="108" y="308" type="curve" smooth="yes"/>
      <point x="149" y="214"/>
      <point x="214" y="73"/>
      <point x="254" y="-4" type="curve" smooth="yes"/>
      <point x="259" y="-14"/>
      <point x="272" y="-18"/>
    </contour>
    <contour>
      <point x="126" y="308" type="line" smooth="yes"/>
      <point x="136" y="311"/>
      <point x="142" y="322"/>
      <point x="139" y="333" type="curve" smooth="yes"/>
      <point x="136" y="343"/>
      <point x="125" y="349"/>
      <point x="114" y="346" type="curve" smooth="yes"/>
      <point x="45" y="325" type="line" smooth="yes"/>
      <point x="35" y="322"/>
      <point x="29" y="311"/>
      <point x="32" y="300" type="curve" smooth="yes"/>
      <point x="35" y="290"/>
      <point x="46" y="284"/>
      <point x="57" y="287" type="curve" smooth="yes"/>
    </contour>
  </outline>
</glyph>
<glyph name="integral" format="1">
  <advance width="304"/>
  <unicode hex="222B"/>
  <outline>
    <contour>
      <point x="126" y="-6" type="curve" smooth="yes"/>
      <point x="137" y="-6"/>
      <point x="146" y="3"/>
      <point x="146" y="14" type="curve" smooth="yes"/>
      <point x="146" y="450" type="line" smooth="yes"/>
      <point x="146" y="513"/>
      <point x="177" y="553"/>
      <point x="270" y="558" type="curve" smooth="yes"/>
      <point x="281" y="559"/>
      <point x="290" y="568"/>
      <point x="289" y="579" type="curve" smooth="yes"/>
      <point x="288" y="590"/>
      <point x="279" y="599"/>
      <point x="268" y="598" type="curve" smooth="yes"/>
      <point x="141" y="591"/>
      <point x="106" y="533"/>
      <point x="106" y="450" type="curve" smooth="yes"/>
      <point x="106" y="14" type="line" smooth="yes"/>
      <point x="106" y="3"/>
      <point x="115" y="-6"/>
    </contour>
    <contour>
      <point x="-16" y="-195" type="curve" smooth="yes"/>
      <point x="110" y="-188"/>
      <point x="146" y="-130"/>
      <point x="146" y="-47" type="curve" smooth="yes"/>
      <point x="146" y="389" type="line" smooth="yes"/>
      <point x="146" y="400"/>
      <point x="137" y="409"/>
      <point x="126" y="409" type="curve" smooth="yes"/>
      <point x="115" y="409"/>
      <point x="106" y="400"/>
      <point x="106" y="389" type="curve" smooth="yes"/>
      <point x="106" y="-47" type="line" smooth="yes"/>
      <point x="106" y="-110"/>
      <point x="74" y="-150"/>
      <point x="-18" y="-155" type="curve" smooth="yes"/>
      <point x="-29" y="-156"/>
      <point x="-38" y="-165"/>
      <point x="-37" y="-176" type="curve" smooth="yes"/>
      <point x="-36" y="-187"/>
      <point x="-27" y="-196"/>
    </contour>
  </outline>
</glyph>
<glyph name="BASE" format="1">
  <advance width="623"/>
  <unicode hex="25CC"/>
  <outline>
    <contour>
      <point x="311" y="463" type="curve" smooth="yes"/>
      <point x="331" y="463"/>
      <point x="344" y="476"/>
      <point x="344" y="497" type="curve" smooth="yes"/>
      <point x="344" y="518"/>
      <point x="330" y="530"/>
      <point x="311" y="530" type="curve" smooth="yes"/>
      <point x="294" y="530"/>
      <point x="280" y="518"/>
      <point x="280" y="497" type="curve" smooth="yes"/>
      <point x="280" y="476"/>
      <point x="294" y="463"/>
    </contour>
    <contour>
      <point x="311" y="-6" type="curve" smooth="yes"/>
      <point x="331" y="-6"/>
      <point x="344" y="7"/>
      <point x="344" y="29" type="curve" smooth="yes"/>
      <point x="344" y="50"/>
      <point x="330" y="61"/>
      <point x="311" y="61" type="curve" smooth="yes"/>
      <point x="294" y="61"/>
      <point x="280" y="50"/>
      <point x="280" y="29" type="curve" smooth="yes"/>
      <point x="280" y="7"/>
      <point x="294" y="-6"/>
    </contour>
    <contour>
      <point x="537" y="228" type="curve" smooth="yes"/>
      <point x="557" y="228"/>
      <point x="570" y="241"/>
      <point x="570" y="263" type="curve" smooth="yes"/>
      <point x="570" y="284"/>
      <point x="555" y="296"/>
      <point x="537" y="296" type="curve" smooth="yes"/>
      <point x="520" y="296"/>
      <point x="506" y="284"/>
      <point x="506" y="263" type="curve" smooth="yes"/>
      <point x="506" y="241"/>
      <point x="520" y="228"/>
    </contour>
    <contour>
      <point x="84" y="228" type="curve" smooth="yes"/>
      <point x="104" y="228"/>
      <point x="117" y="241"/>
      <point x="117" y="263" type="curve" smooth="yes"/>
      <point x="117" y="284"/>
      <point x="103" y="296"/>
      <point x="84" y="296" type="curve" smooth="yes"/>
      <point x="67" y="296"/>
      <point x="53" y="284"/>
      <point x="53" y="263" type="curve" smooth="yes"/>
      <point x="53" y="241"/>
      <point x="67" y="228"/>
    </contour>
    <contour>
      <point x="197" y="434" type="curve" smooth="yes"/>
      <point x="217" y="434"/>
      <point x="230" y="447"/>
      <point x="230" y="468" type="curve" smooth="yes"/>
      <point x="230" y="490"/>
      <point x="216" y="501"/>
      <point x="197" y="501" type="curve" smooth="yes"/>
      <point x="180" y="501"/>
      <point x="166" y="490"/>
      <point x="166" y="468" type="curve" smooth="yes"/>
      <point x="166" y="447"/>
      <point x="180" y="434"/>
    </contour>
    <contour>
      <point x="114" y="347" type="curve" smooth="yes"/>
      <point x="134" y="347"/>
      <point x="147" y="360"/>
      <point x="147" y="381" type="curve" smooth="yes"/>
      <point x="147" y="403"/>
      <point x="133" y="414"/>
      <point x="114" y="414" type="curve" smooth="yes"/>
      <point x="97" y="414"/>
      <point x="83" y="403"/>
      <point x="83" y="381" type="curve" smooth="yes"/>
      <point x="83" y="360"/>
      <point x="97" y="347"/>
    </contour>
    <contour>
      <point x="114" y="111" type="curve" smooth="yes"/>
      <point x="134" y="111"/>
      <point x="147" y="124"/>
      <point x="147" y="146" type="curve" smooth="yes"/>
      <point x="147" y="167"/>
      <point x="133" y="179"/>
      <point x="114" y="179" type="curve" smooth="yes"/>
      <point x="97" y="179"/>
      <point x="83" y="167"/>
      <point x="83" y="146" type="curve" smooth="yes"/>
      <point x="83" y="124"/>
      <point x="97" y="111"/>
    </contour>
    <contour>
      <point x="197" y="24" type="curve" smooth="yes"/>
      <point x="217" y="24"/>
      <point x="230" y="37"/>
      <point x="230" y="59" type="curve" smooth="yes"/>
      <point x="230" y="80"/>
      <point x="216" y="91"/>
      <point x="197" y="91" type="curve" smooth="yes"/>
      <point x="180" y="91"/>
      <point x="166" y="80"/>
      <point x="166" y="59" type="curve" smooth="yes"/>
      <point x="166" y="37"/>
      <point x="180" y="24"/>
    </contour>
    <contour>
      <point x="424" y="24" type="curve" smooth="yes"/>
      <point x="444" y="24"/>
      <point x="457" y="37"/>
      <point x="457" y="59" type="curve" smooth="yes"/>
      <point x="457" y="80"/>
      <point x="443" y="91"/>
      <point x="424" y="91" type="curve" smooth="yes"/>
      <point x="407" y="91"/>
      <point x="393" y="80"/>
      <point x="393" y="59" type="curve" smooth="yes"/>
      <point x="393" y="37"/>
      <point x="407" y="24"/>
    </contour>
    <contour>
      <point x="508" y="111" type="curve" smooth="yes"/>
      <point x="528" y="111"/>
      <point x="541" y="124"/>
      <point x="541" y="146" type="curve" smooth="yes"/>
      <point x="541" y="167"/>
      <point x="527" y="179"/>
      <point x="508" y="179" type="curve" smooth="yes"/>
      <point x="491" y="179"/>
      <point x="477" y="167"/>
      <point x="477" y="146" type="curve" smooth="yes"/>
      <point x="477" y="124"/>
      <point x="491" y="111"/>
    </contour>
    <contour>
      <point x="424" y="433" type="curve" smooth="yes"/>
      <point x="444" y="433"/>
      <point x="457" y="446"/>
      <point x="457" y="467" type="curve" smooth="yes"/>
      <point x="457" y="488"/>
      <point x="443" y="500"/>
      <point x="424" y="500" type="curve" smooth="yes"/>
      <point x="407" y="500"/>
      <point x="393" y="488"/>
      <point x="393" y="467" type="curve" smooth="yes"/>
      <point x="393" y="446"/>
      <point x="407" y="433"/>
    </contour>
    <contour>
      <point x="508" y="346" type="curve" smooth="yes"/>
      <point x="528" y="346"/>
      <point x="541" y="358"/>
      <point x="541" y="380" type="curve" smooth="yes"/>
      <point x="541" y="401"/>
      <point x="527" y="413"/>
      <point x="508" y="413" type="curve" smooth="yes"/>
      <point x="491" y="413"/>
      <point x="477" y="401"/>
      <point x="477" y="380" type="curve" smooth="yes"/>
      <point x="477" y="358"/>
      <point x="491" y="346"/>
    </contour>
  </outline>
</glyph>
<glyph name="bBDa" format="1">
  <advance width="730"/>
  <outline>
    <contour>
      <point x="611" y="-13" type="curve" smooth="yes"/>
      <point x="622" y="-13"/>
      <point x="631" y="-1"/>
      <point x="631" y="14" type="curve" smooth="yes"/>
      <point x="631" y="155"/>
      <point x="617" y="189"/>
      <point x="617" y="236" type="curve" smooth="yes"/>
      <point x="617" y="318"/>
      <point x="646" y="387"/>
      <point x="646" y="415" type="curve" smooth="yes"/>
      <point x="646" y="427"/>
      <point x="641" y="437"/>
      <point x="628" y="437" type="curve" smooth="yes"/>
      <point x="590" y="437"/>
      <point x="404" y="321"/>
      <point x="303" y="207" type="curve"/>
      <point x="328" y="184" type="line"/>
      <point x="328" y="457" type="line" smooth="yes"/>
      <point x="328" y="499"/>
      <point x="329" y="554"/>
      <point x="378" y="554" type="curve" smooth="yes"/>
      <point x="730" y="554" type="line" smooth="yes"/>
      <point x="741" y="554"/>
      <point x="750" y="562"/>
      <point x="750" y="571" type="curve" smooth="yes"/>
      <point x="750" y="580"/>
      <point x="741" y="587"/>
      <point x="730" y="587" type="curve" smooth="yes"/>
      <point x="363" y="587" type="line" smooth="yes"/>
      <point x="319" y="587"/>
      <point x="288" y="554"/>
      <point x="288" y="497" type="curve" smooth="yes"/>
      <point x="288" y="180" type="line" smooth="yes"/>
      <point x="288" y="156"/>
      <point x="299" y="152"/>
      <point x="307" y="152" type="curve" smooth="yes"/>
      <point x="314" y="152"/>
      <point x="318" y="156"/>
      <point x="344" y="184" type="curve" smooth="yes"/>
      <point x="394" y="236"/>
      <point x="541" y="364"/>
      <point x="625" y="392" type="curve"/>
      <point x="617" y="415" type="line"/>
      <point x="586" y="361"/>
      <point x="579" y="303"/>
      <point x="579" y="246" type="curve" smooth="yes"/>
      <point x="579" y="188"/>
      <point x="588" y="174"/>
      <point x="591" y="13" type="curve"/>
      <point x="591" y="-2"/>
      <point x="600" y="-13"/>
    </contour>
    <contour>
      <point x="307" y="228" type="line"/>
      <point x="279" y="307"/>
      <point x="133" y="371"/>
      <point x="58" y="371" type="curve"/>
      <point x="66" y="357" type="line"/>
      <point x="147" y="395"/>
      <point x="317" y="444"/>
      <point x="317" y="523" type="curve" smooth="yes"/>
      <point x="317" y="561"/>
      <point x="286" y="587"/>
      <point x="232" y="587" type="curve" smooth="yes"/>
      <point x="0" y="587" type="line" smooth="yes"/>
      <point x="-11" y="587"/>
      <point x="-20" y="580"/>
      <point x="-20" y="571" type="curve" smooth="yes"/>
      <point x="-20" y="562"/>
      <point x="-11" y="554"/>
      <point x="0" y="554" type="curve" smooth="yes"/>
      <point x="240" y="554" type="line" smooth="yes"/>
      <point x="285" y="554"/>
      <point x="288" y="537"/>
      <point x="288" y="531" type="curve" smooth="yes"/>
      <point x="288" y="482"/>
      <point x="155" y="437"/>
      <point x="79" y="406" type="curve" smooth="yes"/>
      <point x="47" y="393"/>
      <point x="37" y="385"/>
      <point x="37" y="367" type="curve" smooth="yes"/>
      <point x="37" y="357"/>
      <point x="45" y="345"/>
      <point x="60" y="341" type="curve" smooth="yes"/>
      <point x="220" y="294"/>
      <point x="288" y="233"/>
      <point x="288" y="187" type="curve"/>
    </contour>
  </outline>
</glyph>
<glyph name="bBhRa_bSignU" format="1">
  <advance width="778"/>
  <outline>
    <contour>
      <point x="612" y="91" type="curve" smooth="yes"/>
      <point x="683" y="91"/>
      <point x="742" y="141"/>
      <point x="742" y="221" type="curve" smooth="yes"/>
      <point x="742" y="296"/>
      <point x="689" y="355"/>
      <point x="623" y="355" type="curve" smooth="yes"/>
      <point x="581" y="355"/>
      <point x="551" y="332"/>
      <point x="551" y="296" type="curve" smooth="yes"/>
      <point x="551" y="264"/>
      <point x="576" y="234"/>
      <point x="612" y="234" type="curve" smooth="yes"/>
      <point x="645" y="234"/>
      <point x="671" y="259"/>
      <point x="671" y="288" type="curve" smooth="yes"/>
      <point x="671" y="307"/>
      <point x="660" y="341"/>
      <point x="627" y="341" type="curve"/>
      <point x="634" y="326" type="line"/>
      <point x="684" y="318"/>
      <point x="707" y="269"/>
      <point x="707" y="232" type="curve" smooth="yes"/>
      <point x="707" y="183"/>
      <point x="667" y="134"/>
      <point x="605" y="134" type="curve" smooth="yes"/>
      <point x="537" y="134"/>
      <point x="459" y="191"/>
      <point x="459" y="273" type="curve"/>
      <point x="432" y="260" type="line"/>
      <point x="432" y="191"/>
      <point x="499" y="91"/>
    </contour>
    <contour>
      <point x="612" y="262" type="curve" smooth="yes"/>
      <point x="592" y="262"/>
      <point x="581" y="278"/>
      <point x="581" y="292" type="curve" smooth="yes"/>
      <point x="581" y="307"/>
      <point x="593" y="322"/>
      <point x="612" y="322" type="curve" smooth="yes"/>
      <point x="630" y="322"/>
      <point x="642" y="307"/>
      <point x="642" y="292" type="curve" smooth="yes"/>
      <point x="642" y="278"/>
      <point x="631" y="262"/>
    </contour>
    <contour>
      <point x="778" y="554" type="line" smooth="yes"/>
      <point x="789" y="554"/>
      <point x="798" y="562"/>
      <point x="798" y="571" type="curve" smooth="yes"/>
      <point x="798" y="580"/>
      <point x="789" y="587"/>
      <point x="778" y="587" type="curve" smooth="yes"/>
      <point x="550" y="587" type="line" smooth="yes"/>
      <point x="543" y="587"/>
      <point x="535" y="582"/>
      <point x="535" y="571" type="curve" smooth="yes"/>
      <point x="535" y="562"/>
      <point x="541" y="554"/>
      <point x="550" y="554" type="curve" smooth="yes"/>
    </contour>
    <contour>
      <point x="440" y="-12" type="curve" smooth="yes"/>
      <point x="452" y="-12"/>
      <point x="459" y="-1"/>
      <point x="459" y="13" type="curve" smooth="yes"/>
      <point x="459" y="278" type="line" smooth="yes"/>
      <point x="459" y="367"/>
      <point x="421" y="415"/>
      <point x="390" y="415" type="curve" smooth="yes"/>
      <point x="374" y="415"/>
      <point x="368" y="404"/>
      <point x="363" y="387" type="curve" smooth="yes"/>
      <point x="350" y="344"/>
      <point x="304" y="295"/>
      <point x="237" y="295" type="curve" smooth="yes"/>
      <point x="201" y="295"/>
      <point x="175" y="312"/>
      <point x="151" y="333" type="curve"/>
      <point x="134" y="331" type="line"/>
      <point x="150" y="322"/>
      <point x="168" y="315"/>
      <point x="180" y="315" type="curve" smooth="yes"/>
      <point x="218" y="315"/>
      <point x="255" y="343"/>
      <point x="255" y="383" type="curve" smooth="yes"/>
      <point x="255" y="426"/>
      <point x="224" y="461"/>
      <point x="178" y="461" type="curve" smooth="yes"/>
      <point x="140" y="461"/>
      <point x="100" y="428"/>
      <point x="100" y="380" type="curve" smooth="yes"/>
      <point x="100" y="322"/>
      <point x="160" y="258"/>
      <point x="243" y="258" type="curve" smooth="yes"/>
      <point x="366" y="258"/>
      <point x="403" y="369"/>
      <point x="403" y="393" type="curve"/>
      <point x="374" y="376" type="line"/>
      <point x="391" y="376"/>
      <point x="419" y="368"/>
      <point x="419" y="284" type="curve" smooth="yes"/>
      <point x="419" y="13" type="line" smooth="yes"/>
      <point x="419" y="-1"/>
      <point x="428" y="-12"/>
    </contour>
    <contour>
      <point x="176" y="343" type="curve" smooth="yes"/>
      <point x="157" y="343"/>
      <point x="136" y="357"/>
      <point x="136" y="383" type="curve" smooth="yes"/>
      <point x="136" y="410"/>
      <point x="157" y="423"/>
      <point x="176" y="423" type="curve" smooth="yes"/>
      <point x="196" y="423"/>
      <point x="216" y="410"/>
      <point x="216" y="383" type="curve" smooth="yes"/>
      <point x="216" y="357"/>
      <point x="196" y="343"/>
    </contour>
    <contour>
      <point x="558" y="554" type="line" smooth="yes"/>
      <point x="569" y="554"/>
      <point x="578" y="562"/>
      <point x="578" y="571" type="curve" smooth="yes"/>
      <point x="578" y="580"/>
      <point x="569" y="587"/>
      <point x="558" y="587" type="curve" smooth="yes"/>
      <point x="0" y="587" type="line" smooth="yes"/>
      <point x="-11" y="587"/>
      <point x="-20" y="580"/>
      <point x="-20" y="571" type="curve" smooth="yes"/>
      <point x="-20" y="562"/>
      <point x="-11" y="554"/>
      <point x="0" y="554" type="curve" smooth="yes"/>
    </contour>
    <contour>
      <point x="440" y="31" type="line"/>
      <point x="426" y="95"/>
      <point x="351" y="110"/>
      <point x="308" y="110" type="curve" smooth="yes"/>
      <point x="253" y="110"/>
      <point x="178" y="90"/>
      <point x="138" y="90" type="curve" smooth="yes"/>
      <point x="101" y="90"/>
      <point x="69" y="108"/>
      <point x="69" y="157" type="curve" smooth="yes"/>
      <point x="69" y="183"/>
      <point x="77" y="208"/>
      <point x="77" y="219" type="curve" smooth="yes"/>
      <point x="77" y="226"/>
      <point x="74" y="234"/>
      <point x="64" y="234" type="curve" smooth="yes"/>
      <point x="39" y="234"/>
      <point x="31" y="185"/>
      <point x="31" y="158" type="curve" smooth="yes"/>
      <point x="31" y="97"/>
      <point x="73" y="50"/>
      <point x="137" y="50" type="curve" smooth="yes"/>
      <point x="180" y="50"/>
      <point x="265" y="71"/>
      <point x="321" y="71" type="curve" smooth="yes"/>
      <point x="371" y="71"/>
      <point x="419" y="53"/>
      <point x="419" y="13" type="curve"/>
    </contour>
  </outline>
</glyph>
<glyph name="bCCha" format="1">
  <advance width="772"/>
  <outline>
    <contour>
      <point x="185" y="63" type="curve" smooth="yes"/>
      <point x="279" y="63"/>
      <point x="395" y="210"/>
      <point x="395" y="296" type="curve" smooth="yes"/>
      <point x="395" y="340"/>
      <point x="381" y="371"/>
      <point x="286" y="393" type="curve" smooth="yes"/>
      <point x="227" y="407"/>
      <point x="139" y="434"/>
      <point x="139" y="512" type="curve" smooth="yes"/>
      <point x="139" y="544"/>
      <point x="150" y="554"/>
      <point x="169" y="554" type="curve" smooth="yes"/>
      <point x="276" y="554" type="line"/>
      <point x="276" y="587" type="line"/>
      <point x="166" y="587" type="line"/>
      <point x="116" y="586"/>
      <point x="100" y="575"/>
      <point x="100" y="518" type="curve"/>
      <point x="112" y="518" type="line"/>
      <point x="100" y="563"/>
      <point x="86" y="587"/>
      <point x="21" y="587" type="curve" smooth="yes"/>
      <point x="0" y="587" type="line" smooth="yes"/>
      <point x="-11" y="587"/>
      <point x="-20" y="580"/>
      <point x="-20" y="571" type="curve" smooth="yes"/>
      <point x="-20" y="562"/>
      <point x="-11" y="554"/>
      <point x="0" y="554" type="curve" smooth="yes"/>
      <point x="32" y="554" type="line" smooth="yes"/>
      <point x="83" y="554"/>
      <point x="99" y="503"/>
      <point x="99" y="454" type="curve" smooth="yes"/>
      <point x="99" y="181" type="line" smooth="yes"/>
      <point x="99" y="103"/>
      <point x="135" y="63"/>
    </contour>
    <contour>
      <point x="188" y="104" type="curve" smooth="yes"/>
      <point x="166" y="104"/>
      <point x="139" y="115"/>
      <point x="139" y="181" type="curve" smooth="yes"/>
      <point x="139" y="467" type="line"/>
      <point x="121" y="464" type="line"/>
      <point x="142" y="392"/>
      <point x="245" y="360"/>
      <point x="286" y="351" type="curve" smooth="yes"/>
      <point x="331" y="340"/>
      <point x="359" y="327"/>
      <point x="359" y="298" type="curve" smooth="yes"/>
      <point x="359" y="238"/>
      <point x="253" y="104"/>
    </contour>
    <contour>
      <point x="767" y="-82" type="curve" smooth="yes"/>
      <point x="781" y="-82"/>
      <point x="789" y="-72"/>
      <point x="789" y="-63" type="curve" smooth="yes"/>
      <point x="789" y="-55"/>
      <point x="784" y="-46"/>
      <point x="768" y="-46" type="curve" smooth="yes"/>
      <point x="724" y="-46"/>
      <point x="654" y="33"/>
      <point x="579" y="89" type="curve" smooth="yes"/>
      <point x="543" y="116"/>
      <point x="492" y="148"/>
      <point x="454" y="148" type="curve" smooth="yes"/>
      <point x="416" y="148"/>
      <point x="394" y="126"/>
      <point x="394" y="100" type="curve" smooth="yes"/>
      <point x="394" y="65"/>
      <point x="430" y="46"/>
      <point x="472" y="46" type="curve" smooth="yes"/>
      <point x="583" y="46"/>
      <point x="725" y="145"/>
      <point x="725" y="270" type="curve" smooth="yes"/>
      <point x="725" y="356"/>
      <point x="649" y="425"/>
      <point x="552" y="425" type="curve" smooth="yes"/>
      <point x="474" y="425"/>
      <point x="411" y="461"/>
      <point x="411" y="515" type="curve" smooth="yes"/>
      <point x="411" y="552"/>
      <point x="431" y="554"/>
      <point x="459" y="554" type="curve" smooth="yes"/>
      <point x="772" y="554" type="line" smooth="yes"/>
      <point x="783" y="554"/>
      <point x="792" y="562"/>
      <point x="792" y="571" type="curve" smooth="yes"/>
      <point x="792" y="580"/>
      <point x="783" y="587"/>
      <point x="772" y="587" type="curve" smooth="yes"/>
      <point x="448" y="587" type="line" smooth="yes"/>
      <point x="391" y="587"/>
      <point x="372" y="574"/>
      <point x="372" y="511" type="curve"/>
      <point x="387" y="525" type="line"/>
      <point x="374" y="561"/>
      <point x="357" y="587"/>
      <point x="296" y="587" type="curve" smooth="yes"/>
      <point x="272" y="587" type="line" smooth="yes"/>
      <point x="261" y="587"/>
      <point x="252" y="580"/>
      <point x="252" y="571" type="curve" smooth="yes"/>
      <point x="252" y="562"/>
      <point x="261" y="554"/>
      <point x="272" y="554" type="curve" smooth="yes"/>
      <point x="307" y="554" type="line" smooth="yes"/>
      <point x="356" y="554"/>
      <point x="372" y="513"/>
      <point x="372" y="482" type="curve"/>
      <point x="370" y="277" type="line" smooth="yes"/>
      <point x="369" y="203"/>
      <point x="406" y="184"/>
      <point x="453" y="184" type="curve" smooth="yes"/>
      <point x="526" y="184"/>
      <point x="629" y="284"/>
      <point x="629" y="359" type="curve" smooth="yes"/>
      <point x="629" y="389"/>
      <point x="610" y="403"/>
      <point x="601" y="403" type="curve"/>
      <point x="606" y="386" type="line"/>
      <point x="672" y="357"/>
      <point x="687" y="317"/>
      <point x="687" y="273" type="curve" smooth="yes"/>
      <point x="687" y="184"/>
      <point x="569" y="88"/>
      <point x="471" y="88" type="curve" smooth="yes"/>
      <point x="452" y="88"/>
      <point x="441" y="96"/>
      <point x="441" y="102" type="curve" smooth="yes"/>
      <point x="441" y="107"/>
      <point x="446" y="110"/>
      <point x="455" y="110" type="curve" smooth="yes"/>
      <point x="472" y="110"/>
      <point x="512" y="87"/>
      <point x="536" y="71" type="curve"/>
      <point x="614" y="14"/>
      <point x="710" y="-82"/>
    </contour>
    <contour>
      <point x="448" y="219" type="curve" smooth="yes"/>
      <point x="421" y="219"/>
      <point x="410" y="236"/>
      <point x="410" y="276" type="curve" smooth="yes"/>
      <point x="410" y="484" type="line"/>
      <point x="395" y="474" type="line"/>
      <point x="413" y="403"/>
      <point x="481" y="390"/>
      <point x="529" y="390" type="curve" smooth="yes"/>
      <point x="569" y="390"/>
      <point x="594" y="383"/>
      <point x="594" y="355" type="curve" smooth="yes"/>
      <point x="594" y="308"/>
      <point x="502" y="219"/>
    </contour>
  </outline>
</glyph>
<glyph name="bCNya" format="1">
  <advance width="860"/>
  <outline>
    <contour>
      <point x="179" y="143" type="curve" smooth="yes"/>
      <point x="288" y="143"/>
      <point x="396" y="283"/>
      <point x="396" y="356" type="curve" smooth="yes"/>
      <point x="396" y="390"/>
      <point x="381" y="421"/>
      <point x="286" y="443" type="curve" smooth="yes"/>
      <point x="227" y="457"/>
      <point x="138" y="484"/>
      <point x="138" y="532" type="curve" smooth="yes"/>
      <point x="138" y="551"/>
      <point x="150" y="554"/>
      <point x="169" y="554" type="curve" smooth="yes"/>
      <point x="860" y="554" type="line" smooth="yes"/>
      <point x="871" y="554"/>
      <point x="880" y="562"/>
      <point x="880" y="571" type="curve" smooth="yes"/>
      <point x="880" y="580"/>
      <point x="871" y="587"/>
      <point x="860" y="587" type="curve" smooth="yes"/>
      <point x="166" y="587" type="line" smooth="yes"/>
      <point x="122" y="587"/>
      <point x="98" y="572"/>
      <point x="98" y="517" type="curve"/>
      <point x="112" y="518" type="line"/>
      <point x="112" y="554"/>
      <point x="86" y="587"/>
      <point x="38" y="587" type="curve" smooth="yes"/>
      <point x="0" y="587" type="line" smooth="yes"/>
      <point x="-11" y="587"/>
      <point x="-20" y="580"/>
      <point x="-20" y="571" type="curve" smooth="yes"/>
      <point x="-20" y="562"/>
      <point x="-11" y="554"/>
      <point x="0" y="554" type="curve" smooth="yes"/>
      <point x="44" y="554" type="line" smooth="yes"/>
      <point x="83" y="554"/>
      <point x="98" y="513"/>
      <point x="98" y="489" type="curve" smooth="yes"/>
      <point x="98" y="265" type="line" smooth="yes"/>
      <point x="98" y="177"/>
      <point x="135" y="143"/>
    </contour>
    <contour>
      <point x="570" y="-140" type="curve" smooth="yes"/>
      <point x="581" y="-140"/>
      <point x="589" y="-130"/>
      <point x="589" y="-116" type="curve"/>
      <point x="590" y="290" type="line"/>
      <point x="590" y="354"/>
      <point x="580" y="395"/>
      <point x="523" y="395" type="curve" smooth="yes"/>
      <point x="420" y="395"/>
      <point x="278" y="270"/>
      <point x="278" y="153" type="curve" smooth="yes"/>
      <point x="278" y="101"/>
      <point x="311" y="65"/>
      <point x="357" y="65" type="curve" smooth="yes"/>
      <point x="396" y="65"/>
      <point x="436" y="87"/>
      <point x="436" y="137" type="curve" smooth="yes"/>
      <point x="436" y="183"/>
      <point x="399" y="211"/>
      <point x="361" y="211" type="curve" smooth="yes"/>
      <point x="341" y="211"/>
      <point x="321" y="203"/>
      <point x="305" y="186" type="curve"/>
      <point x="326" y="186" type="line"/>
      <point x="348" y="276"/>
      <point x="455" y="361"/>
      <point x="519" y="361" type="curve" smooth="yes"/>
      <point x="550" y="361"/>
      <point x="550" y="341"/>
      <point x="550" y="286" type="curve" smooth="yes"/>
      <point x="550" y="-71" type="line"/>
      <point x="567" y="-50" type="line"/>
      <point x="546" y="-18"/>
      <point x="501" y="9"/>
      <point x="444" y="9" type="curve" smooth="yes"/>
      <point x="355" y="9"/>
      <point x="273" y="-44"/>
      <point x="177" y="-44" type="curve" smooth="yes"/>
      <point x="140" y="-44"/>
      <point x="74" y="-28"/>
      <point x="74" y="49" type="curve" smooth="yes"/>
      <point x="74" y="104"/>
      <point x="94" y="119"/>
      <point x="94" y="142" type="curve" smooth="yes"/>
      <point x="94" y="153"/>
      <point x="87" y="158"/>
      <point x="79" y="158" type="curve" smooth="yes"/>
      <point x="54" y="158"/>
      <point x="33" y="111"/>
      <point x="33" y="59" type="curve" smooth="yes"/>
      <point x="33" y="-60"/>
      <point x="124" y="-90"/>
      <point x="184" y="-90" type="curve" smooth="yes"/>
      <point x="302" y="-90"/>
      <point x="366" y="-35"/>
      <point x="448" y="-35" type="curve" smooth="yes"/>
      <point x="489" y="-35"/>
      <point x="550" y="-47"/>
      <point x="550" y="-116" type="curve" smooth="yes"/>
      <point x="550" y="-130"/>
      <point x="559" y="-140"/>
    </contour>
    <contour>
      <point x="188" y="181" type="curve" smooth="yes"/>
      <point x="166" y="181"/>
      <point x="138" y="189"/>
      <point x="138" y="254" type="curve" smooth="yes"/>
      <point x="138" y="507" type="line"/>
      <point x="118" y="484" type="line"/>
      <point x="135" y="445"/>
      <point x="245" y="409"/>
      <point x="286" y="400" type="curve" smooth="yes"/>
      <point x="331" y="389"/>
      <point x="359" y="377"/>
      <point x="359" y="348" type="curve" smooth="yes"/>
      <point x="359" y="297"/>
      <point x="253" y="181"/>
    </contour>
    <contour>
      <point x="358" y="98" type="curve" smooth="yes"/>
      <point x="336" y="98"/>
      <point x="318" y="116"/>
      <point x="318" y="138" type="curve" smooth="yes"/>
      <point x="318" y="160"/>
      <point x="336" y="178"/>
      <point x="358" y="178" type="curve" smooth="yes"/>
      <point x="380" y="178"/>
      <point x="398" y="160"/>
      <point x="398" y="138" type="curve" smooth="yes"/>
      <point x="398" y="116"/>
      <point x="380" y="98"/>
    </contour>
    <contour>
      <point x="742" y="-54" type="curve" smooth="yes"/>
      <point x="807" y="-54"/>
      <point x="862" y="-11"/>
      <point x="862" y="56" type="curve" smooth="yes"/>
      <point x="862" y="120"/>
      <point x="812" y="180"/>
      <point x="754" y="180" type="curve" smooth="yes"/>
      <point x="725" y="180"/>
      <point x="703" y="161"/>
      <point x="703" y="136" type="curve" smooth="yes"/>
      <point x="703" y="112"/>
      <point x="722" y="97"/>
      <point x="752" y="97" type="curve" smooth="yes"/>
      <point x="807" y="97"/>
      <point x="857" y="172"/>
      <point x="857" y="230" type="curve" smooth="yes"/>
      <point x="857" y="286"/>
      <point x="811" y="338"/>
      <point x="740" y="338" type="curve" smooth="yes"/>
      <point x="636" y="338"/>
      <point x="563" y="227"/>
      <point x="563" y="137" type="curve" smooth="yes"/>
      <point x="563" y="42"/>
      <point x="646" y="-54"/>
    </contour>
    <contour>
      <point x="735" y="-14" type="curve" smooth="yes"/>
      <point x="662" y="-14"/>
      <point x="590" y="55"/>
      <point x="590" y="134" type="curve" smooth="yes"/>
      <point x="590" y="214"/>
      <point x="663" y="300"/>
      <point x="742" y="300" type="curve" smooth="yes"/>
      <point x="792" y="300"/>
      <point x="820" y="266"/>
      <point x="820" y="222" type="curve" smooth="yes"/>
      <point x="820" y="177"/>
      <point x="790" y="126"/>
      <point x="752" y="126" type="curve" smooth="yes"/>
      <point x="739" y="126"/>
      <point x="733" y="132"/>
      <point x="733" y="139" type="curve" smooth="yes"/>
      <point x="733" y="145"/>
      <point x="738" y="152"/>
      <point x="752" y="152" type="curve" smooth="yes"/>
      <point x="787" y="152"/>
      <point x="823" y="112"/>
      <point x="823" y="68" type="curve" smooth="yes"/>
      <point x="823" y="25"/>
      <point x="790" y="-14"/>
    </contour>
  </outline>
</glyph>
<glyph name="bDDhBa" format="1">
  <advance width="663"/>
  <outline>
    <contour>
      <point x="409" y="-119" type="curve" smooth="yes"/>
      <point x="420" y="-119"/>
      <point x="428" y="-107"/>
      <point x="428" y="-92" type="curve"/>
      <point x="426" y="150"/>
      <point x="421" y="205"/>
      <point x="421" y="295" type="curve" smooth="yes"/>
      <point x="421" y="400"/>
      <point x="444" y="437"/>
      <point x="444" y="465" type="curve" smooth="yes"/>
      <point x="444" y="477"/>
      <point x="439" y="487"/>
      <point x="426" y="487" type="curve" smooth="yes"/>
      <point x="388" y="487"/>
      <point x="213" y="387"/>
      <point x="101" y="283" type="curve"/>
      <point x="126" y="264" type="line"/>
      <point x="126" y="457" type="line" smooth="yes"/>
      <point x="126" y="497"/>
      <point x="127" y="554"/>
      <point x="176" y="554" type="curve" smooth="yes"/>
      <point x="663" y="554" type="line" smooth="yes"/>
      <point x="674" y="554"/>
      <point x="683" y="562"/>
      <point x="683" y="571" type="curve" smooth="yes"/>
      <point x="683" y="580"/>
      <point x="674" y="587"/>
      <point x="663" y="587" type="curve" smooth="yes"/>
      <point x="161" y="587" type="line" smooth="yes"/>
      <point x="123" y="587"/>
      <point x="91" y="566"/>
      <point x="90" y="520" type="curve"/>
      <point x="104" y="530" type="line"/>
      <point x="105" y="561"/>
      <point x="70" y="587"/>
      <point x="25" y="587" type="curve" smooth="yes"/>
      <point x="0" y="587" type="line" smooth="yes"/>
      <point x="-11" y="587"/>
      <point x="-20" y="580"/>
      <point x="-20" y="571" type="curve" smooth="yes"/>
      <point x="-20" y="562"/>
      <point x="-11" y="554"/>
      <point x="0" y="554" type="curve" smooth="yes"/>
      <point x="23" y="554" type="line" smooth="yes"/>
      <point x="89" y="554"/>
      <point x="86" y="494"/>
      <point x="86" y="457" type="curve" smooth="yes"/>
      <point x="86" y="260" type="line" smooth="yes"/>
      <point x="86" y="236"/>
      <point x="95" y="232"/>
      <point x="103" y="232" type="curve" smooth="yes"/>
      <point x="116" y="232"/>
      <point x="123" y="243"/>
      <point x="151" y="267" type="curve" smooth="yes"/>
      <point x="221" y="328"/>
      <point x="339" y="416"/>
      <point x="423" y="446" type="curve"/>
      <point x="415" y="465" type="line"/>
      <point x="389" y="411"/>
      <point x="383" y="375"/>
      <point x="383" y="296" type="curve" smooth="yes"/>
      <point x="383" y="205"/>
      <point x="389" y="150"/>
      <point x="389" y="-93" type="curve" smooth="yes"/>
      <point x="389" y="-108"/>
      <point x="398" y="-119"/>
    </contour>
    <contour>
      <point x="412" y="-58" type="line"/>
      <point x="388" y="1"/>
      <point x="277" y="69"/>
      <point x="218" y="68" type="curve"/>
      <point x="231" y="58" type="line"/>
      <point x="413" y="163" type="line"/>
      <point x="403" y="200" type="line"/>
      <point x="238" y="104" type="line" smooth="yes"/>
      <point x="205" y="85"/>
      <point x="195" y="79"/>
      <point x="195" y="64" type="curve" smooth="yes"/>
      <point x="195" y="51"/>
      <point x="202" y="42"/>
      <point x="218" y="38" type="curve" smooth="yes"/>
      <point x="299" y="20"/>
      <point x="389" y="-47"/>
      <point x="389" y="-82" type="curve"/>
    </contour>
    <contour>
      <point x="302" y="121" type="line"/>
      <point x="256" y="140"/>
      <point x="206" y="151"/>
      <point x="168" y="151" type="curve"/>
      <point x="176" y="135" type="line"/>
      <point x="581" y="390" type="line"/>
      <point x="576" y="400" type="line"/>
      <point x="540" y="363"/>
      <point x="540" y="300"/>
      <point x="540" y="251" type="curve" smooth="yes"/>
      <point x="540" y="-31" type="line" smooth="yes"/>
      <point x="540" y="-45"/>
      <point x="549" y="-56"/>
      <point x="560" y="-56" type="curve" smooth="yes"/>
      <point x="572" y="-56"/>
      <point x="580" y="-45"/>
      <point x="580" y="-30" type="curve" smooth="yes"/>
      <point x="580" y="252" type="line" smooth="yes"/>
      <point x="580" y="362"/>
      <point x="602" y="375"/>
      <point x="602" y="411" type="curve" smooth="yes"/>
      <point x="602" y="421"/>
      <point x="597" y="429"/>
      <point x="587" y="429" type="curve" smooth="yes"/>
      <point x="576" y="429"/>
      <point x="567" y="425"/>
      <point x="537" y="407" type="curve" smooth="yes"/>
      <point x="189" y="191" type="line"/>
      <point x="160" y="172"/>
      <point x="147" y="165"/>
      <point x="147" y="147" type="curve" smooth="yes"/>
      <point x="147" y="137"/>
      <point x="155" y="124"/>
      <point x="170" y="121" type="curve" smooth="yes"/>
      <point x="206" y="115"/>
      <point x="239" y="110"/>
      <point x="266" y="101" type="curve"/>
    </contour>
  </outline>
</glyph>
<glyph name="bDRa" format="1">
  <advance width="528"/>
  <outline>
    <contour>
      <point x="412" y="-42" type="line"/>
      <point x="391" y="22"/>
      <point x="333" y="40"/>
      <point x="286" y="40" type="curve" smooth="yes"/>
      <point x="231" y="40"/>
      <point x="156" y="10"/>
      <point x="116" y="10" type="curve" smooth="yes"/>
      <point x="79" y="10"/>
      <point x="47" y="28"/>
      <point x="47" y="77" type="curve" smooth="yes"/>
      <point x="47" y="103"/>
      <point x="55" y="128"/>
      <point x="55" y="139" type="curve" smooth="yes"/>
      <point x="55" y="146"/>
      <point x="52" y="154"/>
      <point x="42" y="154" type="curve" smooth="yes"/>
      <point x="17" y="154"/>
      <point x="9" y="105"/>
      <point x="9" y="78" type="curve" smooth="yes"/>
      <point x="9" y="17"/>
      <point x="51" y="-30"/>
      <point x="115" y="-30" type="curve" smooth="yes"/>
      <point x="158" y="-30"/>
      <point x="243" y="1"/>
      <point x="295" y="1" type="curve" smooth="yes"/>
      <point x="333" y="1"/>
      <point x="387" y="-17"/>
      <point x="387" y="-67" type="curve"/>
    </contour>
    <contour>
      <point x="407" y="-93" type="curve" smooth="yes"/>
      <point x="418" y="-93"/>
      <point x="427" y="-81"/>
      <point x="427" y="-66" type="curve" smooth="yes"/>
      <point x="427" y="79" type="line" smooth="yes"/>
      <point x="427" y="178"/>
      <point x="415" y="216"/>
      <point x="415" y="267" type="curve" smooth="yes"/>
      <point x="415" y="335"/>
      <point x="444" y="387"/>
      <point x="444" y="415" type="curve" smooth="yes"/>
      <point x="444" y="427"/>
      <point x="439" y="437"/>
      <point x="426" y="437" type="curve" smooth="yes"/>
      <point x="388" y="437"/>
      <point x="202" y="317"/>
      <point x="101" y="203" type="curve"/>
      <point x="126" y="184" type="line"/>
      <point x="126" y="480" type="line" smooth="yes"/>
      <point x="126" y="520"/>
      <point x="127" y="554"/>
      <point x="176" y="554" type="curve" smooth="yes"/>
      <point x="528" y="554" type="line" smooth="yes"/>
      <point x="539" y="554"/>
      <point x="548" y="562"/>
      <point x="548" y="571" type="curve" smooth="yes"/>
      <point x="548" y="580"/>
      <point x="539" y="587"/>
      <point x="528" y="587" type="curve" smooth="yes"/>
      <point x="161" y="587" type="line" smooth="yes"/>
      <point x="123" y="587"/>
      <point x="91" y="566"/>
      <point x="90" y="520" type="curve"/>
      <point x="104" y="530" type="line"/>
      <point x="105" y="561"/>
      <point x="70" y="587"/>
      <point x="25" y="587" type="curve" smooth="yes"/>
      <point x="0" y="587" type="line" smooth="yes"/>
      <point x="-11" y="587"/>
      <point x="-20" y="580"/>
      <point x="-20" y="571" type="curve" smooth="yes"/>
      <point x="-20" y="562"/>
      <point x="-11" y="554"/>
      <point x="0" y="554" type="curve" smooth="yes"/>
      <point x="23" y="554" type="line" smooth="yes"/>
      <point x="89" y="554"/>
      <point x="86" y="494"/>
      <point x="86" y="457" type="curve" smooth="yes"/>
      <point x="86" y="180" type="line" smooth="yes"/>
      <point x="86" y="156"/>
      <point x="96" y="152"/>
      <point x="104" y="152" type="curve" smooth="yes"/>
      <point x="120" y="152"/>
      <point x="130" y="170"/>
      <point x="143" y="183" type="curve" smooth="yes"/>
      <point x="200" y="244"/>
      <point x="339" y="368"/>
      <point x="423" y="396" type="curve"/>
      <point x="415" y="415" type="line"/>
      <point x="384" y="361"/>
      <point x="377" y="320"/>
      <point x="377" y="277" type="curve" smooth="yes"/>
      <point x="377" y="216"/>
      <point x="387" y="179"/>
      <point x="387" y="79" type="curve" smooth="yes"/>
      <point x="387" y="-67" type="line" smooth="yes"/>
      <point x="387" y="-82"/>
      <point x="396" y="-93"/>
    </contour>
  </outline>
</glyph>
<glyph name="bDRa_bSignU" format="1">
  <advance width="763"/>
  <outline>
    <contour>
      <point x="565" y="65" type="curve" smooth="yes"/>
      <point x="642" y="65"/>
      <point x="701" y="115"/>
      <point x="701" y="195" type="curve" smooth="yes"/>
      <point x="701" y="270"/>
      <point x="648" y="329"/>
      <point x="582" y="329" type="curve" smooth="yes"/>
      <point x="540" y="329"/>
      <point x="510" y="306"/>
      <point x="510" y="270" type="curve" smooth="yes"/>
      <point x="510" y="238"/>
      <point x="535" y="208"/>
      <point x="571" y="208" type="curve" smooth="yes"/>
      <point x="604" y="208"/>
      <point x="630" y="233"/>
      <point x="630" y="262" type="curve" smooth="yes"/>
      <point x="630" y="281"/>
      <point x="619" y="315"/>
      <point x="586" y="315" type="curve"/>
      <point x="593" y="300" type="line"/>
      <point x="643" y="292"/>
      <point x="666" y="243"/>
      <point x="666" y="206" type="curve" smooth="yes"/>
      <point x="666" y="157"/>
      <point x="626" y="108"/>
      <point x="564" y="108" type="curve" smooth="yes"/>
      <point x="506" y="108"/>
      <point x="415" y="152"/>
      <point x="415" y="288" type="curve"/>
      <point x="382" y="277" type="line"/>
      <point x="382" y="177"/>
      <point x="450" y="65"/>
    </contour>
    <contour>
      <point x="571" y="236" type="curve" smooth="yes"/>
      <point x="551" y="236"/>
      <point x="540" y="252"/>
      <point x="540" y="266" type="curve" smooth="yes"/>
      <point x="540" y="281"/>
      <point x="552" y="296"/>
      <point x="571" y="296" type="curve" smooth="yes"/>
      <point x="589" y="296"/>
      <point x="601" y="281"/>
      <point x="601" y="266" type="curve" smooth="yes"/>
      <point x="601" y="252"/>
      <point x="590" y="236"/>
    </contour>
    <contour>
      <point x="763" y="554" type="line" smooth="yes"/>
      <point x="774" y="554"/>
      <point x="783" y="562"/>
      <point x="783" y="571" type="curve" smooth="yes"/>
      <point x="783" y="580"/>
      <point x="774" y="587"/>
      <point x="763" y="587" type="curve" smooth="yes"/>
      <point x="525" y="587" type="line" smooth="yes"/>
      <point x="514" y="587"/>
      <point x="505" y="580"/>
      <point x="505" y="571" type="curve" smooth="yes"/>
      <point x="505" y="562"/>
      <point x="514" y="554"/>
      <point x="525" y="554" type="curve" smooth="yes"/>
    </contour>
    <contour>
      <point x="412" y="-42" type="line"/>
      <point x="391" y="22"/>
      <point x="333" y="40"/>
      <point x="286" y="40" type="curve" smooth="yes"/>
      <point x="231" y="40"/>
      <point x="156" y="10"/>
      <point x="116" y="10" type="curve" smooth="yes"/>
      <point x="79" y="10"/>
      <point x="47" y="28"/>
      <point x="47" y="77" type="curve" smooth="yes"/>
      <point x="47" y="103"/>
      <point x="55" y="128"/>
      <point x="55" y="139" type="curve" smooth="yes"/>
      <point x="55" y="146"/>
      <point x="52" y="154"/>
      <point x="42" y="154" type="curve" smooth="yes"/>
      <point x="17" y="154"/>
      <point x="9" y="105"/>
      <point x="9" y="78" type="curve" smooth="yes"/>
      <point x="9" y="17"/>
      <point x="51" y="-30"/>
      <point x="115" y="-30" type="curve" smooth="yes"/>
      <point x="158" y="-30"/>
      <point x="243" y="1"/>
      <point x="295" y="1" type="curve" smooth="yes"/>
      <point x="333" y="1"/>
      <point x="387" y="-17"/>
      <point x="387" y="-67" type="curve"/>
    </contour>
    <contour>
      <point x="407" y="-93" type="curve" smooth="yes"/>
      <point x="418" y="-93"/>
      <point x="427" y="-81"/>
      <point x="427" y="-66" type="curve" smooth="yes"/>
      <point x="427" y="79" type="line" smooth="yes"/>
      <point x="427" y="178"/>
      <point x="415" y="216"/>
      <point x="415" y="267" type="curve" smooth="yes"/>
      <point x="415" y="335"/>
      <point x="444" y="387"/>
      <point x="444" y="415" type="curve" smooth="yes"/>
      <point x="444" y="427"/>
      <point x="439" y="437"/>
      <point x="426" y="437" type="curve" smooth="yes"/>
      <point x="388" y="437"/>
      <point x="202" y="317"/>
      <point x="101" y="203" type="curve"/>
      <point x="126" y="184" type="line"/>
      <point x="126" y="480" type="line" smooth="yes"/>
      <point x="126" y="520"/>
      <point x="127" y="554"/>
      <point x="176" y="554" type="curve" smooth="yes"/>
      <point x="528" y="554" type="line" smooth="yes"/>
      <point x="539" y="554"/>
      <point x="548" y="562"/>
      <point x="548" y="571" type="curve" smooth="yes"/>
      <point x="548" y="580"/>
      <point x="539" y="587"/>
      <point x="528" y="587" type="curve" smooth="yes"/>
      <point x="161" y="587" type="line" smooth="yes"/>
      <point x="123" y="587"/>
      <point x="91" y="566"/>
      <point x="90" y="520" type="curve"/>
      <point x="104" y="530" type="line"/>
      <point x="105" y="561"/>
      <point x="70" y="587"/>
      <point x="25" y="587" type="curve" smooth="yes"/>
      <point x="0" y="587" type="line" smooth="yes"/>
      <point x="-11" y="587"/>
      <point x="-20" y="580"/>
      <point x="-20" y="571" type="curve" smooth="yes"/>
      <point x="-20" y="562"/>
      <point x="-11" y="554"/>
      <point x="0" y="554" type="curve" smooth="yes"/>
      <point x="23" y="554" type="line" smooth="yes"/>
      <point x="89" y="554"/>
      <point x="86" y="494"/>
      <point x="86" y="457" type="curve" smooth="yes"/>
      <point x="86" y="180" type="line" smooth="yes"/>
      <point x="86" y="156"/>
      <point x="96" y="152"/>
      <point x="104" y="152" type="curve" smooth="yes"/>
      <point x="120" y="152"/>
      <point x="130" y="170"/>
      <point x="143" y="183" type="curve" smooth="yes"/>
      <point x="200" y="244"/>
      <point x="339" y="368"/>
      <point x="423" y="396" type="curve"/>
      <point x="415" y="415" type="line"/>
      <point x="384" y="361"/>
      <point x="377" y="320"/>
      <point x="377" y="277" type="curve" smooth="yes"/>
      <point x="377" y="216"/>
      <point x="387" y="179"/>
      <point x="387" y="79" type="curve" smooth="yes"/>
      <point x="387" y="-67" type="line" smooth="yes"/>
      <point x="387" y="-82"/>
      <point x="396" y="-93"/>
    </contour>
  </outline>
</glyph>
<glyph name="bDandaPoetic" format="1">
  <advance width="322"/>
  <outline>
    <contour>
      <point x="262" y="-12" type="curve" smooth="yes"/>
      <point x="275" y="-12"/>
      <point x="280" y="-4"/>
      <point x="280" y="6" type="curve" smooth="yes"/>
      <point x="280" y="26"/>
      <point x="231" y="47"/>
      <point x="231" y="92" type="curve" smooth="yes"/>
      <point x="231" y="549" type="line" smooth="yes"/>
      <point x="231" y="584"/>
      <point x="216" y="608"/>
      <point x="196" y="631" type="curve" smooth="yes"/>
      <point x="184" y="645"/>
      <point x="173" y="657"/>
      <point x="160" y="657" type="curve" smooth="yes"/>
      <point x="147" y="657"/>
      <point x="142" y="649"/>
      <point x="142" y="639" type="curve" smooth="yes"/>
      <point x="142" y="619"/>
      <point x="191" y="598"/>
      <point x="191" y="553" type="curve" smooth="yes"/>
      <point x="191" y="96" type="line" smooth="yes"/>
      <point x="191" y="61"/>
      <point x="206" y="37"/>
      <point x="226" y="14" type="curve" smooth="yes"/>
      <point x="238" y="0"/>
      <point x="249" y="-12"/>
    </contour>
  </outline>
</glyph>
<glyph name="bDhRa_bSignU" format="1">
  <advance width="733"/>
  <outline>
    <contour>
      <point x="558" y="197" type="curve" smooth="yes"/>
      <point x="635" y="197"/>
      <point x="694" y="247"/>
      <point x="694" y="327" type="curve" smooth="yes"/>
      <point x="694" y="402"/>
      <point x="641" y="461"/>
      <point x="575" y="461" type="curve" smooth="yes"/>
      <point x="533" y="461"/>
      <point x="503" y="438"/>
      <point x="503" y="402" type="curve" smooth="yes"/>
      <point x="503" y="370"/>
      <point x="528" y="340"/>
      <point x="564" y="340" type="curve" smooth="yes"/>
      <point x="597" y="340"/>
      <point x="623" y="365"/>
      <point x="623" y="394" type="curve" smooth="yes"/>
      <point x="623" y="413"/>
      <point x="612" y="447"/>
      <point x="579" y="447" type="curve"/>
      <point x="586" y="432" type="line"/>
      <point x="636" y="424"/>
      <point x="659" y="375"/>
      <point x="659" y="338" type="curve" smooth="yes"/>
      <point x="659" y="289"/>
      <point x="619" y="240"/>
      <point x="557" y="240" type="curve" smooth="yes"/>
      <point x="499" y="240"/>
      <point x="408" y="284"/>
      <point x="408" y="420" type="curve"/>
      <point x="375" y="409" type="line"/>
      <point x="375" y="309"/>
      <point x="443" y="197"/>
    </contour>
    <contour>
      <point x="733" y="554" type="line" smooth="yes"/>
      <point x="744" y="554"/>
      <point x="753" y="562"/>
      <point x="753" y="571" type="curve" smooth="yes"/>
      <point x="753" y="580"/>
      <point x="744" y="587"/>
      <point x="733" y="587" type="curve" smooth="yes"/>
      <point x="505" y="587" type="line" smooth="yes"/>
      <point x="494" y="587"/>
      <point x="485" y="580"/>
      <point x="485" y="571" type="curve" smooth="yes"/>
      <point x="485" y="562"/>
      <point x="494" y="554"/>
      <point x="505" y="554" type="curve" smooth="yes"/>
    </contour>
    <contour>
      <point x="564" y="368" type="curve" smooth="yes"/>
      <point x="544" y="368"/>
      <point x="533" y="384"/>
      <point x="533" y="398" type="curve" smooth="yes"/>
      <point x="533" y="413"/>
      <point x="545" y="428"/>
      <point x="564" y="428" type="curve" smooth="yes"/>
      <point x="582" y="428"/>
      <point x="594" y="413"/>
      <point x="594" y="398" type="curve" smooth="yes"/>
      <point x="594" y="384"/>
      <point x="583" y="368"/>
    </contour>
    <contour>
      <point x="394" y="-32" type="line"/>
      <point x="376" y="22"/>
      <point x="333" y="40"/>
      <point x="291" y="40" type="curve" smooth="yes"/>
      <point x="245" y="40"/>
      <point x="191" y="20"/>
      <point x="150" y="20" type="curve" smooth="yes"/>
      <point x="111" y="20"/>
      <point x="78" y="38"/>
      <point x="78" y="82" type="curve" smooth="yes"/>
      <point x="78" y="107"/>
      <point x="87" y="138"/>
      <point x="87" y="150" type="curve" smooth="yes"/>
      <point x="87" y="156"/>
      <point x="84" y="164"/>
      <point x="74" y="164" type="curve" smooth="yes"/>
      <point x="49" y="164"/>
      <point x="41" y="115"/>
      <point x="41" y="89" type="curve" smooth="yes"/>
      <point x="41" y="31"/>
      <point x="79" y="-20"/>
      <point x="148" y="-20" type="curve" smooth="yes"/>
      <point x="193" y="-20"/>
      <point x="243" y="1"/>
      <point x="304" y="1" type="curve" smooth="yes"/>
      <point x="333" y="1"/>
      <point x="368" y="-14"/>
      <point x="368" y="-47" type="curve"/>
    </contour>
    <contour>
      <point x="392" y="74" type="line"/>
      <point x="342" y="202"/>
      <point x="160" y="276"/>
      <point x="53" y="301" type="curve"/>
      <point x="53" y="283" type="line"/>
      <point x="167" y="330"/>
      <point x="399" y="390"/>
      <point x="399" y="484" type="curve"/>
      <point x="370" y="505" type="line"/>
      <point x="370" y="456"/>
      <point x="297" y="411"/>
      <point x="244" y="411" type="curve" smooth="yes"/>
      <point x="192" y="411"/>
      <point x="130" y="454"/>
      <point x="130" y="502" type="curve" smooth="yes"/>
      <point x="130" y="512"/>
      <point x="133" y="525"/>
      <point x="141" y="532" type="curve"/>
      <point x="122" y="537" type="line"/>
      <point x="122" y="492"/>
      <point x="157" y="472"/>
      <point x="189" y="472" type="curve" smooth="yes"/>
      <point x="229" y="472"/>
      <point x="257" y="503"/>
      <point x="257" y="539" type="curve" smooth="yes"/>
      <point x="257" y="576"/>
      <point x="226" y="605"/>
      <point x="186" y="605" type="curve" smooth="yes"/>
      <point x="141" y="605"/>
      <point x="93" y="567"/>
      <point x="93" y="507" type="curve" smooth="yes"/>
      <point x="93" y="429"/>
      <point x="168" y="384"/>
      <point x="226" y="384" type="curve"/>
      <point x="245" y="399" type="line"/>
      <point x="64" y="333" type="line" smooth="yes"/>
      <point x="48" y="327"/>
      <point x="30" y="317"/>
      <point x="30" y="294" type="curve" smooth="yes"/>
      <point x="30" y="270"/>
      <point x="51" y="262"/>
      <point x="68" y="257" type="curve" smooth="yes"/>
      <point x="175" y="222"/>
      <point x="368" y="151"/>
      <point x="368" y="22" type="curve"/>
    </contour>
    <contour>
      <point x="186" y="503" type="curve" smooth="yes"/>
      <point x="165" y="503"/>
      <point x="150" y="520"/>
      <point x="150" y="538" type="curve" smooth="yes"/>
      <point x="150" y="558"/>
      <point x="167" y="573"/>
      <point x="185" y="573" type="curve" smooth="yes"/>
      <point x="203" y="573"/>
      <point x="220" y="558"/>
      <point x="220" y="538" type="curve" smooth="yes"/>
      <point x="220" y="521"/>
      <point x="208" y="503"/>
    </contour>
    <contour>
      <point x="388" y="-72" type="curve" smooth="yes"/>
      <point x="399" y="-72"/>
      <point x="408" y="-61"/>
      <point x="408" y="-47" type="curve" smooth="yes"/>
      <point x="408" y="470" type="line" smooth="yes"/>
      <point x="408" y="544"/>
      <point x="415" y="554"/>
      <point x="449" y="554" type="curve" smooth="yes"/>
      <point x="522" y="554" type="line" smooth="yes"/>
      <point x="533" y="554"/>
      <point x="542" y="561"/>
      <point x="542" y="571" type="curve" smooth="yes"/>
      <point x="542" y="580"/>
      <point x="533" y="587"/>
      <point x="522" y="587" type="curve" smooth="yes"/>
      <point x="437" y="587" type="line" smooth="yes"/>
      <point x="388" y="587"/>
      <point x="368" y="558"/>
      <point x="368" y="482" type="curve" smooth="yes"/>
      <point x="368" y="-47" type="line" smooth="yes"/>
      <point x="368" y="-61"/>
      <point x="377" y="-72"/>
    </contour>
  </outline>
</glyph>
<glyph name="bHMa" format="1">
  <advance width="706"/>
  <outline>
    <contour>
      <point x="423" y="-12" type="curve" smooth="yes"/>
      <point x="434" y="-12"/>
      <point x="443" y="-1"/>
      <point x="443" y="13" type="curve" smooth="yes"/>
      <point x="443" y="470" type="line" smooth="yes"/>
      <point x="443" y="544"/>
      <point x="450" y="554"/>
      <point x="484" y="554" type="curve" smooth="yes"/>
      <point x="706" y="554" type="line" smooth="yes"/>
      <point x="717" y="554"/>
      <point x="726" y="561"/>
      <point x="726" y="571" type="curve" smooth="yes"/>
      <point x="726" y="580"/>
      <point x="717" y="587"/>
      <point x="706" y="587" type="curve" smooth="yes"/>
      <point x="472" y="587" type="line" smooth="yes"/>
      <point x="440" y="587"/>
      <point x="405" y="569"/>
      <point x="405" y="498" type="curve"/>
      <point x="425" y="515" type="line"/>
      <point x="425" y="572"/>
      <point x="392" y="587"/>
      <point x="348" y="587" type="curve" smooth="yes"/>
      <point x="0" y="587" type="line" smooth="yes"/>
      <point x="-11" y="587"/>
      <point x="-20" y="580"/>
      <point x="-20" y="571" type="curve" smooth="yes"/>
      <point x="-20" y="561"/>
      <point x="-11" y="554"/>
      <point x="0" y="554" type="curve" smooth="yes"/>
      <point x="348" y="554" type="line" smooth="yes"/>
      <point x="398" y="554"/>
      <point x="403" y="530"/>
      <point x="403" y="477" type="curve" smooth="yes"/>
      <point x="403" y="13" type="line" smooth="yes"/>
      <point x="403" y="-1"/>
      <point x="412" y="-12"/>
    </contour>
    <contour>
      <point x="596" y="-12" type="curve" smooth="yes"/>
      <point x="606" y="-12"/>
      <point x="611" y="-2"/>
      <point x="611" y="20" type="curve" smooth="yes"/>
      <point x="611" y="130"/>
      <point x="604" y="181"/>
      <point x="604" y="256" type="curve" smooth="yes"/>
      <point x="604" y="364"/>
      <point x="631" y="424"/>
      <point x="631" y="449" type="curve" smooth="yes"/>
      <point x="631" y="460"/>
      <point x="625" y="469"/>
      <point x="611" y="469" type="curve" smooth="yes"/>
      <point x="579" y="469"/>
      <point x="498" y="396"/>
      <point x="413" y="396" type="curve" smooth="yes"/>
      <point x="350" y="396"/>
      <point x="255" y="401"/>
      <point x="187" y="437" type="curve" smooth="yes"/>
      <point x="156" y="454"/>
      <point x="137" y="460"/>
      <point x="109" y="460" type="curve" smooth="yes"/>
      <point x="48" y="460"/>
      <point x="30" y="419"/>
      <point x="30" y="392" type="curve" smooth="yes"/>
      <point x="30" y="359"/>
      <point x="57" y="331"/>
      <point x="99" y="331" type="curve" smooth="yes"/>
      <point x="143" y="331"/>
      <point x="193" y="379"/>
      <point x="193" y="444" type="curve" smooth="yes"/>
      <point x="193" y="500"/>
      <point x="176" y="554"/>
      <point x="99" y="580" type="curve"/>
      <point x="51" y="554" type="line"/>
      <point x="113" y="554"/>
      <point x="162" y="515"/>
      <point x="162" y="440" type="curve" smooth="yes"/>
      <point x="162" y="401"/>
      <point x="128" y="363"/>
      <point x="98" y="363" type="curve" smooth="yes"/>
      <point x="78" y="363"/>
      <point x="63" y="375"/>
      <point x="63" y="392" type="curve" smooth="yes"/>
      <point x="63" y="407"/>
      <point x="74" y="428"/>
      <point x="110" y="428" type="curve" smooth="yes"/>
      <point x="181" y="428"/>
      <point x="249" y="349"/>
      <point x="249" y="263" type="curve" smooth="yes"/>
      <point x="249" y="223"/>
      <point x="228" y="182"/>
      <point x="187" y="182" type="curve" smooth="yes"/>
      <point x="165" y="182"/>
      <point x="151" y="196"/>
      <point x="151" y="212" type="curve" smooth="yes"/>
      <point x="151" y="228"/>
      <point x="166" y="246"/>
      <point x="194" y="246" type="curve" smooth="yes"/>
      <point x="299" y="246"/>
      <point x="402" y="122"/>
      <point x="403" y="50" type="curve"/>
      <point x="418" y="94" type="line"/>
      <point x="395" y="188"/>
      <point x="292" y="282"/>
      <point x="190" y="282" type="curve" smooth="yes"/>
      <point x="146" y="282"/>
      <point x="114" y="252"/>
      <point x="114" y="213" type="curve" smooth="yes"/>
      <point x="114" y="174"/>
      <point x="145" y="148"/>
      <point x="193" y="148" type="curve" smooth="yes"/>
      <point x="239" y="148"/>
      <point x="283" y="188"/>
      <point x="283" y="250" type="curve" smooth="yes"/>
      <point x="283" y="308"/>
      <point x="268" y="361"/>
      <point x="228" y="407" type="curve"/>
      <point x="213" y="392" type="line"/>
      <point x="278" y="368"/>
      <point x="349" y="358"/>
      <point x="415" y="358" type="curve" smooth="yes"/>
      <point x="490" y="358"/>
      <point x="566" y="400"/>
      <point x="610" y="444" type="curve"/>
      <point x="595" y="453" type="line"/>
      <point x="576" y="395"/>
      <point x="569" y="328"/>
      <point x="569" y="263" type="curve" smooth="yes"/>
      <point x="569" y="226"/>
      <point x="578" y="143"/>
      <point x="578" y="20" type="curve" smooth="yes"/>
      <point x="578" y="-6"/>
      <point x="585" y="-12"/>
    </contour>
  </outline>
</glyph>
<glyph name="bHa_bSignVocalicR" format="1">
  <advance width="632"/>
  <outline>
    <contour>
      <point x="524" y="8" type="curve" smooth="yes"/>
      <point x="536" y="8"/>
      <point x="543" y="19"/>
      <point x="543" y="34" type="curve" smooth="yes"/>
      <point x="543" y="244" type="line" smooth="yes"/>
      <point x="543" y="324"/>
      <point x="566" y="376"/>
      <point x="566" y="399" type="curve" smooth="yes"/>
      <point x="566" y="415"/>
      <point x="554" y="429"/>
      <point x="531" y="429" type="curve" smooth="yes"/>
      <point x="510" y="429"/>
      <point x="435" y="383"/>
      <point x="383" y="349" type="curve"/>
      <point x="383" y="299" type="line"/>
      <point x="436" y="336"/>
      <point x="515" y="388"/>
      <point x="538" y="393" type="curve"/>
      <point x="533" y="419" type="line"/>
      <point x="511" y="360"/>
      <point x="504" y="290"/>
      <point x="504" y="239" type="curve" smooth="yes"/>
      <point x="504" y="34" type="line" smooth="yes"/>
      <point x="504" y="19"/>
      <point x="513" y="8"/>
    </contour>
    <contour>
      <point x="632" y="554" type="line" smooth="yes"/>
      <point x="643" y="554"/>
      <point x="652" y="562"/>
      <point x="652" y="571" type="curve" smooth="yes"/>
      <point x="652" y="580"/>
      <point x="643" y="587"/>
      <point x="632" y="587" type="curve" smooth="yes"/>
      <point x="465" y="587" type="line" smooth="yes"/>
      <point x="454" y="587"/>
      <point x="445" y="580"/>
      <point x="445" y="571" type="curve" smooth="yes"/>
      <point x="445" y="562"/>
      <point x="454" y="554"/>
      <point x="465" y="554" type="curve" smooth="yes"/>
    </contour>
    <contour>
      <point x="418" y="-12" type="curve" smooth="yes"/>
      <point x="446" y="-12"/>
      <point x="452" y="-3"/>
      <point x="452" y="6" type="curve" smooth="yes"/>
      <point x="452" y="24"/>
      <point x="430" y="17"/>
      <point x="394" y="29" type="curve" smooth="yes"/>
      <point x="333" y="50"/>
      <point x="301" y="98"/>
      <point x="248" y="166" type="curve" smooth="yes"/>
      <point x="210" y="215"/>
      <point x="177" y="237"/>
      <point x="143" y="237" type="curve" smooth="yes"/>
      <point x="108" y="237"/>
      <point x="87" y="216"/>
      <point x="87" y="191" type="curve" smooth="yes"/>
      <point x="87" y="161"/>
      <point x="119" y="134"/>
      <point x="169" y="134" type="curve" smooth="yes"/>
      <point x="296" y="134"/>
      <point x="408" y="228"/>
      <point x="408" y="333" type="curve" smooth="yes"/>
      <point x="408" y="440"/>
      <point x="329" y="499"/>
      <point x="235" y="499" type="curve" smooth="yes"/>
      <point x="170" y="499"/>
      <point x="88" y="470"/>
      <point x="88" y="401" type="curve" smooth="yes"/>
      <point x="88" y="363"/>
      <point x="115" y="329"/>
      <point x="160" y="329" type="curve" smooth="yes"/>
      <point x="203" y="329"/>
      <point x="233" y="360"/>
      <point x="233" y="398" type="curve" smooth="yes"/>
      <point x="233" y="435"/>
      <point x="202" y="459"/>
      <point x="173" y="459" type="curve" smooth="yes"/>
      <point x="155" y="459"/>
      <point x="141" y="455"/>
      <point x="129" y="446" type="curve"/>
      <point x="138" y="441" type="line"/>
      <point x="159" y="455"/>
      <point x="194" y="467"/>
      <point x="228" y="467" type="curve" smooth="yes"/>
      <point x="291" y="467"/>
      <point x="366" y="421"/>
      <point x="366" y="342" type="curve" smooth="yes"/>
      <point x="366" y="246"/>
      <point x="268" y="177"/>
      <point x="161" y="177" type="curve" smooth="yes"/>
      <point x="137" y="177"/>
      <point x="124" y="186"/>
      <point x="124" y="192" type="curve" smooth="yes"/>
      <point x="124" y="196"/>
      <point x="129" y="199"/>
      <point x="138" y="199" type="curve" smooth="yes"/>
      <point x="163" y="199"/>
      <point x="187" y="170"/>
      <point x="210" y="145" type="curve" smooth="yes"/>
      <point x="254" y="98"/>
      <point x="329" y="-12"/>
    </contour>
    <contour>
      <point x="160" y="365" type="curve" smooth="yes"/>
      <point x="140" y="365"/>
      <point x="124" y="381"/>
      <point x="124" y="401" type="curve" smooth="yes"/>
      <point x="124" y="421"/>
      <point x="140" y="437"/>
      <point x="160" y="437" type="curve" smooth="yes"/>
      <point x="180" y="437"/>
      <point x="196" y="421"/>
      <point x="196" y="401" type="curve" smooth="yes"/>
      <point x="196" y="381"/>
      <point x="180" y="365"/>
    </contour>
    <contour>
      <point x="488" y="554" type="line" smooth="yes"/>
      <point x="499" y="554"/>
      <point x="508" y="562"/>
      <point x="508" y="571" type="curve" smooth="yes"/>
      <point x="508" y="580"/>
      <point x="499" y="587"/>
      <point x="488" y="587" type="curve" smooth="yes"/>
      <point x="0" y="587" type="line" smooth="yes"/>
      <point x="-11" y="587"/>
      <point x="-20" y="580"/>
      <point x="-20" y="571" type="curve" smooth="yes"/>
      <point x="-20" y="562"/>
      <point x="-11" y="554"/>
      <point x="0" y="554" type="curve" smooth="yes"/>
    </contour>
  </outline>
</glyph>
<glyph name="bJJha" format="1">
  <advance width="823"/>
  <outline>
    <contour>
      <point x="703" y="-140" type="curve" smooth="yes"/>
      <point x="714" y="-140"/>
      <point x="723" y="-129"/>
      <point x="723" y="-115" type="curve" smooth="yes"/>
      <point x="723" y="470" type="line" smooth="yes"/>
      <point x="723" y="544"/>
      <point x="730" y="554"/>
      <point x="764" y="554" type="curve" smooth="yes"/>
      <point x="823" y="554" type="line" smooth="yes"/>
      <point x="834" y="554"/>
      <point x="843" y="561"/>
      <point x="843" y="571" type="curve" smooth="yes"/>
      <point x="843" y="580"/>
      <point x="834" y="587"/>
      <point x="823" y="587" type="curve" smooth="yes"/>
      <point x="752" y="587" type="line" smooth="yes"/>
      <point x="720" y="587"/>
      <point x="685" y="569"/>
      <point x="685" y="498" type="curve"/>
      <point x="705" y="515" type="line"/>
      <point x="705" y="572"/>
      <point x="672" y="587"/>
      <point x="628" y="587" type="curve" smooth="yes"/>
      <point x="338" y="587" type="line" smooth="yes"/>
      <point x="294" y="587"/>
      <point x="256" y="554"/>
      <point x="235" y="522" type="curve"/>
      <point x="251" y="505" type="line"/>
      <point x="253" y="567"/>
      <point x="210" y="587"/>
      <point x="144" y="587" type="curve" smooth="yes"/>
      <point x="0" y="587" type="line" smooth="yes"/>
      <point x="-11" y="587"/>
      <point x="-20" y="580"/>
      <point x="-20" y="571" type="curve" smooth="yes"/>
      <point x="-20" y="562"/>
      <point x="-11" y="554"/>
      <point x="0" y="554" type="curve" smooth="yes"/>
      <point x="157" y="554" type="line" smooth="yes"/>
      <point x="184" y="554"/>
      <point x="223" y="542"/>
      <point x="223" y="517" type="curve" smooth="yes"/>
      <point x="223" y="500"/>
      <point x="176" y="447"/>
      <point x="176" y="371" type="curve" smooth="yes"/>
      <point x="176" y="308"/>
      <point x="214" y="224"/>
      <point x="303" y="224" type="curve" smooth="yes"/>
      <point x="370" y="224"/>
      <point x="408" y="277"/>
      <point x="408" y="323" type="curve"/>
      <point x="399" y="306" type="line"/>
      <point x="422" y="280"/>
      <point x="434" y="246"/>
      <point x="434" y="211" type="curve" smooth="yes"/>
      <point x="434" y="158"/>
      <point x="395" y="105"/>
      <point x="313" y="105" type="curve" smooth="yes"/>
      <point x="197" y="105"/>
      <point x="70" y="252"/>
      <point x="60" y="446" type="curve" smooth="yes"/>
      <point x="59" y="458"/>
      <point x="52" y="466"/>
      <point x="42" y="466" type="curve" smooth="yes"/>
      <point x="33" y="466"/>
      <point x="27" y="458"/>
      <point x="27" y="448" type="curve" smooth="yes"/>
      <point x="27" y="270"/>
      <point x="155" y="57"/>
      <point x="318" y="57" type="curve" smooth="yes"/>
      <point x="420" y="57"/>
      <point x="477" y="128"/>
      <point x="477" y="196" type="curve" smooth="yes"/>
      <point x="477" y="290"/>
      <point x="412" y="346"/>
      <point x="391" y="346" type="curve" smooth="yes"/>
      <point x="384" y="346"/>
      <point x="373" y="344"/>
      <point x="373" y="325" type="curve" smooth="yes"/>
      <point x="373" y="294"/>
      <point x="349" y="268"/>
      <point x="300" y="268" type="curve" smooth="yes"/>
      <point x="249" y="268"/>
      <point x="216" y="311"/>
      <point x="216" y="376" type="curve" smooth="yes"/>
      <point x="216" y="437"/>
      <point x="264" y="554"/>
      <point x="353" y="554" type="curve" smooth="yes"/>
      <point x="628" y="554" type="line" smooth="yes"/>
      <point x="678" y="554"/>
      <point x="683" y="530"/>
      <point x="683" y="477" type="curve" smooth="yes"/>
      <point x="683" y="-115" type="line" smooth="yes"/>
      <point x="683" y="-129"/>
      <point x="692" y="-140"/>
    </contour>
    <contour>
      <point x="558" y="-143" type="line"/>
      <point x="547" y="-70"/>
      <point x="412" y="-6"/>
      <point x="353" y="-7" type="curve"/>
      <point x="344" y="-26" type="line"/>
      <point x="561" y="76" type="line"/>
      <point x="561" y="121" type="line"/>
      <point x="344" y="16" type="line" smooth="yes"/>
      <point x="328" y="8"/>
      <point x="319" y="0"/>
      <point x="319" y="-12" type="curve" smooth="yes"/>
      <point x="319" y="-22"/>
      <point x="325" y="-33"/>
      <point x="341" y="-37" type="curve" smooth="yes"/>
      <point x="439" y="-61"/>
      <point x="534" y="-113"/>
      <point x="534" y="-155" type="curve"/>
    </contour>
    <contour>
      <point x="702" y="-80" type="line"/>
      <point x="702" y="-26"/>
      <point x="574" y="-36"/>
      <point x="574" y="44" type="curve"/>
      <point x="555" y="29" type="line"/>
      <point x="555" y="-68"/>
      <point x="683" y="-40"/>
      <point x="683" y="-107" type="curve"/>
    </contour>
    <contour>
      <point x="554" y="-180" type="curve" smooth="yes"/>
      <point x="565" y="-180"/>
      <point x="574" y="-169"/>
      <point x="574" y="-155" type="curve" smooth="yes"/>
      <point x="574" y="57" type="line" smooth="yes"/>
      <point x="574" y="186"/>
      <point x="562" y="221"/>
      <point x="562" y="279" type="curve" smooth="yes"/>
      <point x="562" y="367"/>
      <point x="618" y="423"/>
      <point x="618" y="451" type="curve" smooth="yes"/>
      <point x="618" y="458"/>
      <point x="614" y="467"/>
      <point x="600" y="467" type="curve" smooth="yes"/>
      <point x="567" y="467"/>
      <point x="542" y="418"/>
      <point x="468" y="418" type="curve" smooth="yes"/>
      <point x="378" y="418"/>
      <point x="342" y="500"/>
      <point x="342" y="563" type="curve"/>
      <point x="311" y="558" type="line"/>
      <point x="311" y="476"/>
      <point x="362" y="375"/>
      <point x="467" y="375" type="curve" smooth="yes"/>
      <point x="522" y="375"/>
      <point x="568" y="407"/>
      <point x="589" y="429" type="curve"/>
      <point x="580" y="435" type="line"/>
      <point x="538" y="390"/>
      <point x="522" y="323"/>
      <point x="522" y="271" type="curve" smooth="yes"/>
      <point x="522" y="219"/>
      <point x="534" y="186"/>
      <point x="534" y="57" type="curve" smooth="yes"/>
      <point x="534" y="-155" type="line" smooth="yes"/>
      <point x="534" y="-169"/>
      <point x="543" y="-180"/>
    </contour>
  </outline>
</glyph>
<glyph name="bKTBa" format="1">
  <advance width="717"/>
  <outline>
    <contour>
      <point x="360" y="57" type="curve" smooth="yes"/>
      <point x="436" y="57"/>
      <point x="518" y="99"/>
      <point x="518" y="188" type="curve" smooth="yes"/>
      <point x="518" y="259"/>
      <point x="458" y="311"/>
      <point x="384" y="311" type="curve" smooth="yes"/>
      <point x="345" y="311"/>
      <point x="313" y="291"/>
      <point x="313" y="249" type="curve" smooth="yes"/>
      <point x="313" y="217"/>
      <point x="342" y="193"/>
      <point x="375" y="193" type="curve" smooth="yes"/>
      <point x="409" y="193"/>
      <point x="453" y="224"/>
      <point x="477" y="271" type="curve" smooth="yes"/>
      <point x="516" y="347"/>
      <point x="556" y="408"/>
      <point x="607" y="408" type="curve" smooth="yes"/>
      <point x="643" y="408"/>
      <point x="662" y="379"/>
      <point x="662" y="347" type="curve" smooth="yes"/>
      <point x="662" y="316"/>
      <point x="646" y="271"/>
      <point x="602" y="271" type="curve"/>
      <point x="609" y="257" type="line"/>
      <point x="627" y="257"/>
      <point x="644" y="286"/>
      <point x="644" y="302" type="curve" smooth="yes"/>
      <point x="644" y="328"/>
      <point x="624" y="354"/>
      <point x="591" y="354" type="curve" smooth="yes"/>
      <point x="562" y="354"/>
      <point x="539" y="330"/>
      <point x="539" y="302" type="curve" smooth="yes"/>
      <point x="539" y="266"/>
      <point x="567" y="245"/>
      <point x="601" y="245" type="curve" smooth="yes"/>
      <point x="655" y="245"/>
      <point x="692" y="301"/>
      <point x="692" y="353" type="curve" smooth="yes"/>
      <point x="692" y="411"/>
      <point x="647" y="443"/>
      <point x="603" y="443" type="curve" smooth="yes"/>
      <point x="550" y="443"/>
      <point x="508" y="394"/>
      <point x="477" y="346" type="curve"/>
      <point x="497" y="343" type="line"/>
      <point x="500" y="423"/>
      <point x="434" y="493"/>
      <point x="328" y="493" type="curve" smooth="yes"/>
      <point x="238" y="493"/>
      <point x="161" y="417"/>
      <point x="161" y="340" type="curve" smooth="yes"/>
      <point x="161" y="290"/>
      <point x="193" y="262"/>
      <point x="230" y="262" type="curve" smooth="yes"/>
      <point x="265" y="262"/>
      <point x="297" y="283"/>
      <point x="297" y="328" type="curve" smooth="yes"/>
      <point x="297" y="366"/>
      <point x="267" y="393"/>
      <point x="232" y="392" type="curve" smooth="yes"/>
      <point x="208" y="391"/>
      <point x="179" y="373"/>
      <point x="179" y="341" type="curve"/>
      <point x="202" y="358" type="line"/>
      <point x="202" y="409"/>
      <point x="272" y="458"/>
      <point x="342" y="458" type="curve" smooth="yes"/>
      <point x="412" y="458"/>
      <point x="459" y="415"/>
      <point x="459" y="354" type="curve" smooth="yes"/>
      <point x="459" y="302"/>
      <point x="418" y="231"/>
      <point x="377" y="231" type="curve" smooth="yes"/>
      <point x="364" y="231"/>
      <point x="352" y="238"/>
      <point x="352" y="251" type="curve" smooth="yes"/>
      <point x="352" y="264"/>
      <point x="365" y="278"/>
      <point x="391" y="278" type="curve" smooth="yes"/>
      <point x="437" y="278"/>
      <point x="482" y="248"/>
      <point x="482" y="196" type="curve" smooth="yes"/>
      <point x="482" y="138"/>
      <point x="430" y="102"/>
      <point x="358" y="102" type="curve" smooth="yes"/>
      <point x="144" y="102"/>
      <point x="77" y="384"/>
      <point x="64" y="425" type="curve" smooth="yes"/>
      <point x="60" y="440"/>
      <point x="54" y="452"/>
      <point x="41" y="452" type="curve" smooth="yes"/>
      <point x="31" y="452"/>
      <point x="28" y="442"/>
      <point x="28" y="436" type="curve" smooth="yes"/>
      <point x="28" y="403"/>
      <point x="107" y="57"/>
    </contour>
    <contour>
      <point x="452" y="-108" type="line"/>
      <point x="418" y="-42"/>
      <point x="308" y="-4"/>
      <point x="264" y="-4" type="curve"/>
      <point x="274" y="-15" type="line"/>
      <point x="445" y="76" type="line"/>
      <point x="422" y="103" type="line"/>
      <point x="274" y="24" type="line" smooth="yes"/>
      <point x="253" y="12"/>
      <point x="241" y="7"/>
      <point x="241" y="-8" type="curve" smooth="yes"/>
      <point x="241" y="-21"/>
      <point x="248" y="-28"/>
      <point x="264" y="-32" type="curve" smooth="yes"/>
      <point x="342" y="-49"/>
      <point x="427" y="-90"/>
      <point x="427" y="-121" type="curve"/>
    </contour>
    <contour>
      <point x="447" y="-146" type="curve" smooth="yes"/>
      <point x="458" y="-146"/>
      <point x="466" y="-135"/>
      <point x="466" y="-121" type="curve"/>
      <point x="467" y="104" type="line"/>
      <point x="427" y="89" type="line"/>
      <point x="427" y="-121" type="line" smooth="yes"/>
      <point x="427" y="-135"/>
      <point x="436" y="-146"/>
    </contour>
    <contour>
      <point x="231" y="294" type="curve" smooth="yes"/>
      <point x="212" y="294"/>
      <point x="196" y="310"/>
      <point x="196" y="329" type="curve" smooth="yes"/>
      <point x="196" y="348"/>
      <point x="212" y="364"/>
      <point x="231" y="364" type="curve" smooth="yes"/>
      <point x="250" y="364"/>
      <point x="266" y="348"/>
      <point x="266" y="329" type="curve" smooth="yes"/>
      <point x="266" y="310"/>
      <point x="250" y="294"/>
    </contour>
    <contour>
      <point x="594" y="272" type="curve" smooth="yes"/>
      <point x="580" y="272"/>
      <point x="566" y="283"/>
      <point x="566" y="299" type="curve" smooth="yes"/>
      <point x="566" y="317"/>
      <point x="580" y="326"/>
      <point x="594" y="326" type="curve" smooth="yes"/>
      <point x="608" y="326"/>
      <point x="620" y="317"/>
      <point x="620" y="299" type="curve" smooth="yes"/>
      <point x="620" y="283"/>
      <point x="608" y="272"/>
    </contour>
    <contour>
      <point x="717" y="554" type="line" smooth="yes"/>
      <point x="728" y="554"/>
      <point x="737" y="562"/>
      <point x="737" y="571" type="curve" smooth="yes"/>
      <point x="737" y="580"/>
      <point x="728" y="587"/>
      <point x="717" y="587" type="curve" smooth="yes"/>
      <point x="0" y="587" type="line" smooth="yes"/>
      <point x="-11" y="587"/>
      <point x="-20" y="580"/>
      <point x="-20" y="571" type="curve" smooth="yes"/>
      <point x="-20" y="562"/>
      <point x="-11" y="554"/>
      <point x="0" y="554" type="curve" smooth="yes"/>
    </contour>
  </outline>
</glyph>
<glyph name="bLDa" format="1">
  <advance width="847"/>
  <outline>
    <contour>
      <point x="728" y="-13" type="curve" smooth="yes"/>
      <point x="739" y="-13"/>
      <point x="748" y="-1"/>
      <point x="748" y="14" type="curve" smooth="yes"/>
      <point x="748" y="155"/>
      <point x="734" y="189"/>
      <point x="734" y="236" type="curve" smooth="yes"/>
      <point x="734" y="318"/>
      <point x="763" y="387"/>
      <point x="763" y="415" type="curve" smooth="yes"/>
      <point x="763" y="427"/>
      <point x="758" y="437"/>
      <point x="745" y="437" type="curve" smooth="yes"/>
      <point x="709" y="437"/>
      <point x="541" y="318"/>
      <point x="440" y="201" type="curve"/>
      <point x="465" y="184" type="line"/>
      <point x="465" y="457" type="line" smooth="yes"/>
      <point x="465" y="497"/>
      <point x="466" y="554"/>
      <point x="515" y="554" type="curve" smooth="yes"/>
      <point x="847" y="554" type="line" smooth="yes"/>
      <point x="858" y="554"/>
      <point x="867" y="562"/>
      <point x="867" y="571" type="curve" smooth="yes"/>
      <point x="867" y="580"/>
      <point x="858" y="587"/>
      <point x="847" y="587" type="curve" smooth="yes"/>
      <point x="500" y="587" type="line" smooth="yes"/>
      <point x="462" y="587"/>
      <point x="430" y="566"/>
      <point x="429" y="520" type="curve"/>
      <point x="443" y="530" type="line"/>
      <point x="444" y="561"/>
      <point x="409" y="587"/>
      <point x="364" y="587" type="curve" smooth="yes"/>
      <point x="0" y="587" type="line" smooth="yes"/>
      <point x="-11" y="587"/>
      <point x="-20" y="580"/>
      <point x="-20" y="571" type="curve" smooth="yes"/>
      <point x="-20" y="562"/>
      <point x="-11" y="554"/>
      <point x="0" y="554" type="curve" smooth="yes"/>
      <point x="362" y="554" type="line" smooth="yes"/>
      <point x="428" y="554"/>
      <point x="425" y="494"/>
      <point x="425" y="457" type="curve" smooth="yes"/>
      <point x="425" y="180" type="line" smooth="yes"/>
      <point x="425" y="156"/>
      <point x="436" y="152"/>
      <point x="444" y="152" type="curve" smooth="yes"/>
      <point x="451" y="152"/>
      <point x="455" y="156"/>
      <point x="481" y="184" type="curve" smooth="yes"/>
      <point x="531" y="237"/>
      <point x="664" y="367"/>
      <point x="742" y="396" type="curve"/>
      <point x="734" y="415" type="line"/>
      <point x="703" y="361"/>
      <point x="696" y="303"/>
      <point x="696" y="246" type="curve" smooth="yes"/>
      <point x="696" y="188"/>
      <point x="705" y="174"/>
      <point x="708" y="13" type="curve"/>
      <point x="708" y="-2"/>
      <point x="717" y="-13"/>
    </contour>
    <contour>
      <point x="173" y="169" type="curve" smooth="yes"/>
      <point x="220" y="169"/>
      <point x="249" y="200"/>
      <point x="249" y="238" type="curve" smooth="yes"/>
      <point x="249" y="275"/>
      <point x="222" y="304"/>
      <point x="183" y="304" type="curve" smooth="yes"/>
      <point x="143" y="304"/>
      <point x="118" y="272"/>
      <point x="118" y="241" type="curve" smooth="yes"/>
      <point x="118" y="220"/>
      <point x="129" y="200"/>
      <point x="154" y="189" type="curve"/>
      <point x="144" y="206" type="line"/>
      <point x="107" y="221"/>
      <point x="74" y="263"/>
      <point x="74" y="316" type="curve" smooth="yes"/>
      <point x="74" y="380"/>
      <point x="122" y="427"/>
      <point x="193" y="427" type="curve" smooth="yes"/>
      <point x="257" y="427"/>
      <point x="308" y="381"/>
      <point x="308" y="336" type="curve" smooth="yes"/>
      <point x="308" y="319"/>
      <point x="300" y="311"/>
      <point x="291" y="311" type="curve" smooth="yes"/>
      <point x="279" y="311"/>
      <point x="266" y="324"/>
      <point x="266" y="348" type="curve" smooth="yes"/>
      <point x="266" y="396"/>
      <point x="309" y="426"/>
      <point x="345" y="426" type="curve" smooth="yes"/>
      <point x="403" y="426"/>
      <point x="425" y="385"/>
      <point x="425" y="349" type="curve"/>
      <point x="451" y="366" type="line"/>
      <point x="435" y="421"/>
      <point x="408" y="463"/>
      <point x="341" y="463" type="curve" smooth="yes"/>
      <point x="279" y="463"/>
      <point x="231" y="408"/>
      <point x="231" y="349" type="curve" smooth="yes"/>
      <point x="231" y="311"/>
      <point x="253" y="280"/>
      <point x="290" y="280" type="curve" smooth="yes"/>
      <point x="320" y="280"/>
      <point x="342" y="300"/>
      <point x="342" y="336" type="curve" smooth="yes"/>
      <point x="342" y="403"/>
      <point x="272" y="467"/>
      <point x="186" y="467" type="curve" smooth="yes"/>
      <point x="105" y="467"/>
      <point x="33" y="417"/>
      <point x="33" y="326" type="curve" smooth="yes"/>
      <point x="33" y="234"/>
      <point x="105" y="169"/>
    </contour>
    <contour>
      <point x="183" y="204" type="curve" smooth="yes"/>
      <point x="163" y="204"/>
      <point x="148" y="218"/>
      <point x="148" y="239" type="curve" smooth="yes"/>
      <point x="148" y="259"/>
      <point x="163" y="274"/>
      <point x="183" y="274" type="curve" smooth="yes"/>
      <point x="203" y="274"/>
      <point x="218" y="259"/>
      <point x="218" y="239" type="curve" smooth="yes"/>
      <point x="218" y="218"/>
      <point x="203" y="204"/>
    </contour>
  </outline>
</glyph>
<glyph name="bLGa_bSignU" format="1">
  <advance width="650"/>
  <outline>
    <contour>
      <point x="395" y="-140" type="curve" smooth="yes"/>
      <point x="484" y="-140"/>
      <point x="565" y="-96"/>
      <point x="565" y="-14" type="curve" smooth="yes"/>
      <point x="565" y="50"/>
      <point x="515" y="96"/>
      <point x="458" y="96" type="curve" smooth="yes"/>
      <point x="413" y="96"/>
      <point x="393" y="68"/>
      <point x="393" y="42" type="curve" smooth="yes"/>
      <point x="393" y="18"/>
      <point x="410" y="-12"/>
      <point x="459" y="-12" type="curve" smooth="yes"/>
      <point x="514" y="-12"/>
      <point x="598" y="26"/>
      <point x="598" y="107" type="curve" smooth="yes"/>
      <point x="598" y="193"/>
      <point x="503" y="186"/>
      <point x="503" y="312" type="curve" smooth="yes"/>
      <point x="503" y="470" type="line" smooth="yes"/>
      <point x="503" y="544"/>
      <point x="510" y="554"/>
      <point x="544" y="554" type="curve" smooth="yes"/>
      <point x="650" y="554" type="line" smooth="yes"/>
      <point x="661" y="554"/>
      <point x="670" y="561"/>
      <point x="670" y="571" type="curve" smooth="yes"/>
      <point x="670" y="580"/>
      <point x="661" y="587"/>
      <point x="650" y="587" type="curve" smooth="yes"/>
      <point x="532" y="587" type="line" smooth="yes"/>
      <point x="500" y="587"/>
      <point x="465" y="569"/>
      <point x="465" y="498" type="curve"/>
      <point x="485" y="515" type="line"/>
      <point x="485" y="572"/>
      <point x="452" y="587"/>
      <point x="408" y="587" type="curve" smooth="yes"/>
      <point x="0" y="587" type="line" smooth="yes"/>
      <point x="-11" y="587"/>
      <point x="-20" y="580"/>
      <point x="-20" y="571" type="curve" smooth="yes"/>
      <point x="-20" y="561"/>
      <point x="-11" y="554"/>
      <point x="0" y="554" type="curve" smooth="yes"/>
      <point x="408" y="554" type="line" smooth="yes"/>
      <point x="458" y="554"/>
      <point x="463" y="530"/>
      <point x="463" y="477" type="curve" smooth="yes"/>
      <point x="463" y="312" type="line"/>
      <point x="464" y="242"/>
      <point x="454" y="190"/>
      <point x="442" y="155" type="curve"/>
      <point x="454" y="148" type="line"/>
      <point x="439" y="210"/>
      <point x="370" y="298"/>
      <point x="260" y="298" type="curve" smooth="yes"/>
      <point x="186" y="298"/>
      <point x="129" y="258"/>
      <point x="129" y="205" type="curve" smooth="yes"/>
      <point x="129" y="163"/>
      <point x="164" y="131"/>
      <point x="208" y="131" type="curve" smooth="yes"/>
      <point x="255" y="131"/>
      <point x="278" y="167"/>
      <point x="313" y="167" type="curve" smooth="yes"/>
      <point x="331" y="167"/>
      <point x="340" y="157"/>
      <point x="340" y="139" type="curve" smooth="yes"/>
      <point x="340" y="97"/>
      <point x="293" y="69"/>
      <point x="255" y="47" type="curve" smooth="yes"/>
      <point x="246" y="42"/>
      <point x="237" y="36"/>
      <point x="237" y="25" type="curve" smooth="yes"/>
      <point x="237" y="13"/>
      <point x="246" y="8"/>
      <point x="255" y="8" type="curve" smooth="yes"/>
      <point x="286" y="8"/>
      <point x="375" y="71"/>
      <point x="375" y="142" type="curve" smooth="yes"/>
      <point x="375" y="178"/>
      <point x="353" y="200"/>
      <point x="318" y="200" type="curve" smooth="yes"/>
      <point x="275" y="200"/>
      <point x="241" y="167"/>
      <point x="209" y="167" type="curve" smooth="yes"/>
      <point x="190" y="167"/>
      <point x="165" y="179"/>
      <point x="165" y="205" type="curve" smooth="yes"/>
      <point x="165" y="245"/>
      <point x="229" y="263"/>
      <point x="272" y="263" type="curve" smooth="yes"/>
      <point x="317" y="263"/>
      <point x="371" y="243"/>
      <point x="411" y="176" type="curve" smooth="yes"/>
      <point x="428" y="147"/>
      <point x="436" y="121"/>
      <point x="449" y="121" type="curve" smooth="yes"/>
      <point x="476" y="121"/>
      <point x="497" y="226"/>
      <point x="497" y="271" type="curve"/>
      <point x="482" y="271" type="line"/>
      <point x="482" y="176"/>
      <point x="564" y="170"/>
      <point x="564" y="108" type="curve" smooth="yes"/>
      <point x="564" y="55"/>
      <point x="506" y="22"/>
      <point x="462" y="22" type="curve" smooth="yes"/>
      <point x="438" y="22"/>
      <point x="431" y="32"/>
      <point x="431" y="40" type="curve" smooth="yes"/>
      <point x="431" y="50"/>
      <point x="442" y="59"/>
      <point x="462" y="59" type="curve" smooth="yes"/>
      <point x="497" y="59"/>
      <point x="529" y="31"/>
      <point x="529" y="-11" type="curve" smooth="yes"/>
      <point x="529" y="-68"/>
      <point x="471" y="-98"/>
      <point x="396" y="-98" type="curve" smooth="yes"/>
      <point x="200" y="-98"/>
      <point x="113" y="103"/>
      <point x="76" y="190" type="curve" smooth="yes"/>
      <point x="70" y="205"/>
      <point x="64" y="216"/>
      <point x="53" y="216" type="curve" smooth="yes"/>
      <point x="42" y="216"/>
      <point x="36" y="206"/>
      <point x="36" y="198" type="curve" smooth="yes"/>
      <point x="36" y="159"/>
      <point x="162" y="-140"/>
    </contour>
    <contour>
      <point x="180" y="287" type="curve" smooth="yes"/>
      <point x="160" y="287"/>
      <point x="145" y="301"/>
      <point x="145" y="322" type="curve" smooth="yes"/>
      <point x="145" y="342"/>
      <point x="160" y="357"/>
      <point x="180" y="357" type="curve" smooth="yes"/>
      <point x="200" y="357"/>
      <point x="215" y="342"/>
      <point x="215" y="322" type="curve" smooth="yes"/>
      <point x="215" y="301"/>
      <point x="200" y="287"/>
    </contour>
    <contour>
      <point x="170" y="252" type="curve" smooth="yes"/>
      <point x="217" y="252"/>
      <point x="246" y="283"/>
      <point x="246" y="321" type="curve" smooth="yes"/>
      <point x="246" y="358"/>
      <point x="219" y="387"/>
      <point x="180" y="387" type="curve" smooth="yes"/>
      <point x="140" y="387"/>
      <point x="115" y="355"/>
      <point x="115" y="324" type="curve" smooth="yes"/>
      <point x="115" y="303"/>
      <point x="126" y="283"/>
      <point x="151" y="272" type="curve"/>
      <point x="141" y="289" type="line"/>
      <point x="104" y="304"/>
      <point x="81" y="331"/>
      <point x="81" y="374" type="curve" smooth="yes"/>
      <point x="81" y="427"/>
      <point x="129" y="477"/>
      <point x="200" y="477" type="curve" smooth="yes"/>
      <point x="270" y="477"/>
      <point x="325" y="431"/>
      <point x="325" y="386" type="curve" smooth="yes"/>
      <point x="325" y="369"/>
      <point x="317" y="361"/>
      <point x="308" y="361" type="curve" smooth="yes"/>
      <point x="296" y="361"/>
      <point x="283" y="374"/>
      <point x="283" y="398" type="curve" smooth="yes"/>
      <point x="283" y="446"/>
      <point x="333" y="476"/>
      <point x="379" y="476" type="curve" smooth="yes"/>
      <point x="433" y="476"/>
      <point x="463" y="435"/>
      <point x="463" y="399" type="curve"/>
      <point x="489" y="416" type="line"/>
      <point x="473" y="471"/>
      <point x="437" y="513"/>
      <point x="375" y="513" type="curve" smooth="yes"/>
      <point x="304" y="513"/>
      <point x="248" y="458"/>
      <point x="248" y="399" type="curve" smooth="yes"/>
      <point x="248" y="361"/>
      <point x="270" y="330"/>
      <point x="307" y="330" type="curve" smooth="yes"/>
      <point x="337" y="330"/>
      <point x="359" y="350"/>
      <point x="359" y="386" type="curve" smooth="yes"/>
      <point x="359" y="453"/>
      <point x="285" y="517"/>
      <point x="193" y="517" type="curve" smooth="yes"/>
      <point x="112" y="517"/>
      <point x="40" y="463"/>
      <point x="40" y="384" type="curve" smooth="yes"/>
      <point x="40" y="303"/>
      <point x="102" y="252"/>
    </contour>
  </outline>
</glyph>
<glyph name="bMMa" format="1">
  <advance width="655"/>
  <outline>
    <contour>
      <point x="535" y="-12" type="curve" smooth="yes"/>
      <point x="546" y="-12"/>
      <point x="555" y="-1"/>
      <point x="555" y="13" type="curve" smooth="yes"/>
      <point x="555" y="470" type="line" smooth="yes"/>
      <point x="555" y="544"/>
      <point x="562" y="554"/>
      <point x="596" y="554" type="curve" smooth="yes"/>
      <point x="655" y="554" type="line" smooth="yes"/>
      <point x="666" y="554"/>
      <point x="675" y="561"/>
      <point x="675" y="571" type="curve" smooth="yes"/>
      <point x="675" y="580"/>
      <point x="666" y="587"/>
      <point x="655" y="587" type="curve" smooth="yes"/>
      <point x="584" y="587" type="line" smooth="yes"/>
      <point x="552" y="587"/>
      <point x="517" y="569"/>
      <point x="517" y="498" type="curve"/>
      <point x="537" y="515" type="line"/>
      <point x="537" y="572"/>
      <point x="504" y="587"/>
      <point x="460" y="587" type="curve" smooth="yes"/>
      <point x="274" y="587" type="line"/>
      <point x="278" y="554" type="line"/>
      <point x="460" y="554" type="line" smooth="yes"/>
      <point x="510" y="554"/>
      <point x="515" y="530"/>
      <point x="515" y="477" type="curve" smooth="yes"/>
      <point x="515" y="13" type="line" smooth="yes"/>
      <point x="515" y="-1"/>
      <point x="524" y="-12"/>
    </contour>
    <contour>
      <point x="535" y="102" type="line"/>
      <point x="518" y="172"/>
      <point x="445" y="253"/>
      <point x="321" y="253" type="curve" smooth="yes"/>
      <point x="236" y="253"/>
      <point x="198" y="200"/>
      <point x="198" y="164" type="curve" smooth="yes"/>
      <point x="198" y="120"/>
      <point x="229" y="92"/>
      <point x="274" y="92" type="curve" smooth="yes"/>
      <point x="327" y="92"/>
      <point x="360" y="135"/>
      <point x="360" y="191" type="curve" smooth="yes"/>
      <point x="360" y="249"/>
      <point x="336" y="336"/>
      <point x="271" y="397" type="curve"/>
      <point x="244" y="382" type="line"/>
      <point x="295" y="341"/>
      <point x="321" y="252"/>
      <point x="321" y="202" type="curve" smooth="yes"/>
      <point x="321" y="161"/>
      <point x="302" y="134"/>
      <point x="270" y="134" type="curve" smooth="yes"/>
      <point x="252" y="134"/>
      <point x="240" y="143"/>
      <point x="240" y="161" type="curve" smooth="yes"/>
      <point x="240" y="181"/>
      <point x="258" y="213"/>
      <point x="329" y="213" type="curve" smooth="yes"/>
      <point x="466" y="213"/>
      <point x="515" y="96"/>
      <point x="515" y="39" type="curve"/>
    </contour>
    <contour>
      <point x="107" y="328" type="curve" smooth="yes"/>
      <point x="156" y="328"/>
      <point x="189" y="370"/>
      <point x="189" y="419" type="curve" smooth="yes"/>
      <point x="189" y="484"/>
      <point x="131" y="576"/>
      <point x="69" y="576" type="curve"/>
      <point x="22" y="554" type="line"/>
      <point x="102" y="554"/>
      <point x="152" y="484"/>
      <point x="152" y="428" type="curve" smooth="yes"/>
      <point x="152" y="392"/>
      <point x="132" y="366"/>
      <point x="105" y="366" type="curve" smooth="yes"/>
      <point x="82" y="366"/>
      <point x="67" y="384"/>
      <point x="67" y="403" type="curve" smooth="yes"/>
      <point x="67" y="431"/>
      <point x="99" y="442"/>
      <point x="126" y="442" type="curve" smooth="yes"/>
      <point x="208" y="442"/>
      <point x="251" y="337"/>
      <point x="355" y="337" type="curve" smooth="yes"/>
      <point x="413" y="337"/>
      <point x="459" y="371"/>
      <point x="459" y="442" type="curve" smooth="yes"/>
      <point x="459" y="541"/>
      <point x="371" y="587"/>
      <point x="255" y="587" type="curve" smooth="yes"/>
      <point x="0" y="587" type="line" smooth="yes"/>
      <point x="-11" y="587"/>
      <point x="-20" y="580"/>
      <point x="-20" y="571" type="curve" smooth="yes"/>
      <point x="-20" y="562"/>
      <point x="-11" y="554"/>
      <point x="0" y="554" type="curve" smooth="yes"/>
      <point x="271" y="554" type="line" smooth="yes"/>
      <point x="348" y="554"/>
      <point x="417" y="507"/>
      <point x="417" y="446" type="curve" smooth="yes"/>
      <point x="417" y="405"/>
      <point x="388" y="377"/>
      <point x="344" y="377" type="curve" smooth="yes"/>
      <point x="267" y="377"/>
      <point x="216" y="483"/>
      <point x="120" y="483" type="curve" smooth="yes"/>
      <point x="70" y="483"/>
      <point x="30" y="456"/>
      <point x="30" y="406" type="curve" smooth="yes"/>
      <point x="30" y="359"/>
      <point x="65" y="328"/>
    </contour>
  </outline>
</glyph>
<glyph name="bMPa" format="1">
  <advance width="982"/>
  <outline>
    <contour>
      <point x="579" y="231" type="curve" smooth="yes"/>
      <point x="598" y="231"/>
      <point x="625" y="281"/>
      <point x="696" y="348" type="curve" smooth="yes"/>
      <point x="752" y="401"/>
      <point x="800" y="433"/>
      <point x="821" y="449" type="curve"/>
      <point x="798" y="476" type="line"/>
      <point x="753" y="445"/>
      <point x="717" y="419"/>
      <point x="670" y="380" type="curve" smooth="yes"/>
      <point x="647" y="362"/>
      <point x="606" y="353"/>
      <point x="573" y="353" type="curve" smooth="yes"/>
      <point x="506" y="353"/>
      <point x="480" y="391"/>
      <point x="480" y="433" type="curve" smooth="yes"/>
      <point x="480" y="505"/>
      <point x="559" y="549"/>
      <point x="636" y="549" type="curve" smooth="yes"/>
      <point x="764" y="549"/>
      <point x="842" y="442"/>
      <point x="842" y="300" type="curve"/>
      <point x="857" y="394" type="line"/>
      <point x="831" y="521"/>
      <point x="747" y="587"/>
      <point x="631" y="587" type="curve" smooth="yes"/>
      <point x="534" y="587"/>
      <point x="434" y="528"/>
      <point x="434" y="439" type="curve" smooth="yes"/>
      <point x="434" y="370"/>
      <point x="484" y="318"/>
      <point x="565" y="318" type="curve" smooth="yes"/>
      <point x="612" y="318"/>
      <point x="650" y="341"/>
      <point x="662" y="351" type="curve"/>
      <point x="648" y="356" type="line"/>
      <point x="618" y="329"/>
      <point x="565" y="270"/>
      <point x="565" y="247" type="curve" smooth="yes"/>
      <point x="565" y="238"/>
      <point x="571" y="231"/>
    </contour>
    <contour>
      <point x="127" y="328" type="curve" smooth="yes"/>
      <point x="176" y="328"/>
      <point x="209" y="370"/>
      <point x="209" y="419" type="curve" smooth="yes"/>
      <point x="209" y="484"/>
      <point x="151" y="576"/>
      <point x="89" y="576" type="curve"/>
      <point x="42" y="554" type="line"/>
      <point x="122" y="554"/>
      <point x="172" y="484"/>
      <point x="172" y="428" type="curve" smooth="yes"/>
      <point x="172" y="392"/>
      <point x="152" y="366"/>
      <point x="125" y="366" type="curve" smooth="yes"/>
      <point x="102" y="366"/>
      <point x="87" y="384"/>
      <point x="87" y="403" type="curve" smooth="yes"/>
      <point x="87" y="431"/>
      <point x="119" y="442"/>
      <point x="146" y="442" type="curve" smooth="yes"/>
      <point x="232" y="442"/>
      <point x="277" y="331"/>
      <point x="374" y="331" type="curve" smooth="yes"/>
      <point x="425" y="331"/>
      <point x="471" y="361"/>
      <point x="471" y="432" type="curve" smooth="yes"/>
      <point x="471" y="527"/>
      <point x="392" y="587"/>
      <point x="270" y="587" type="curve" smooth="yes"/>
      <point x="0" y="587" type="line" smooth="yes"/>
      <point x="-11" y="587"/>
      <point x="-20" y="580"/>
      <point x="-20" y="571" type="curve" smooth="yes"/>
      <point x="-20" y="562"/>
      <point x="-11" y="554"/>
      <point x="0" y="554" type="curve" smooth="yes"/>
      <point x="286" y="554" type="line" smooth="yes"/>
      <point x="385" y="554"/>
      <point x="434" y="488"/>
      <point x="434" y="442" type="curve" smooth="yes"/>
      <point x="434" y="395"/>
      <point x="404" y="377"/>
      <point x="369" y="377" type="curve" smooth="yes"/>
      <point x="292" y="377"/>
      <point x="240" y="483"/>
      <point x="140" y="483" type="curve" smooth="yes"/>
      <point x="90" y="483"/>
      <point x="50" y="456"/>
      <point x="50" y="406" type="curve" smooth="yes"/>
      <point x="50" y="359"/>
      <point x="85" y="328"/>
    </contour>
    <contour>
      <point x="862" y="-12" type="curve" smooth="yes"/>
      <point x="873" y="-12"/>
      <point x="882" y="-1"/>
      <point x="882" y="13" type="curve" smooth="yes"/>
      <point x="882" y="470" type="line" smooth="yes"/>
      <point x="882" y="544"/>
      <point x="889" y="554"/>
      <point x="923" y="554" type="curve" smooth="yes"/>
      <point x="982" y="554" type="line" smooth="yes"/>
      <point x="993" y="554"/>
      <point x="1002" y="561"/>
      <point x="1002" y="571" type="curve" smooth="yes"/>
      <point x="1002" y="580"/>
      <point x="993" y="587"/>
      <point x="982" y="587" type="curve" smooth="yes"/>
      <point x="911" y="587" type="line" smooth="yes"/>
      <point x="862" y="587"/>
      <point x="842" y="561"/>
      <point x="842" y="490" type="curve" smooth="yes"/>
      <point x="842" y="13" type="line" smooth="yes"/>
      <point x="842" y="-1"/>
      <point x="851" y="-12"/>
    </contour>
  </outline>
</glyph>
<glyph name="bNBa" format="1">
  <advance width="506"/>
  <outline>
    <contour>
      <point x="386" y="-12" type="curve" smooth="yes"/>
      <point x="397" y="-12"/>
      <point x="406" y="-1"/>
      <point x="406" y="13" type="curve" smooth="yes"/>
      <point x="406" y="470" type="line" smooth="yes"/>
      <point x="406" y="544"/>
      <point x="413" y="554"/>
      <point x="447" y="554" type="curve" smooth="yes"/>
      <point x="506" y="554" type="line" smooth="yes"/>
      <point x="517" y="554"/>
      <point x="526" y="561"/>
      <point x="526" y="571" type="curve" smooth="yes"/>
      <point x="526" y="580"/>
      <point x="517" y="587"/>
      <point x="506" y="587" type="curve" smooth="yes"/>
      <point x="435" y="587" type="line" smooth="yes"/>
      <point x="403" y="587"/>
      <point x="368" y="569"/>
      <point x="368" y="498" type="curve"/>
      <point x="388" y="515" type="line"/>
      <point x="388" y="572"/>
      <point x="355" y="587"/>
      <point x="311" y="587" type="curve" smooth="yes"/>
      <point x="0" y="587" type="line" smooth="yes"/>
      <point x="-11" y="587"/>
      <point x="-20" y="580"/>
      <point x="-20" y="571" type="curve" smooth="yes"/>
      <point x="-20" y="561"/>
      <point x="-11" y="554"/>
      <point x="0" y="554" type="curve" smooth="yes"/>
      <point x="311" y="554" type="line" smooth="yes"/>
      <point x="361" y="554"/>
      <point x="366" y="530"/>
      <point x="366" y="477" type="curve" smooth="yes"/>
      <point x="366" y="13" type="line" smooth="yes"/>
      <point x="366" y="-1"/>
      <point x="375" y="-12"/>
    </contour>
    <contour>
      <point x="385" y="48" type="line"/>
      <point x="347" y="136"/>
      <point x="212" y="201"/>
      <point x="137" y="201" type="curve"/>
      <point x="145" y="187" type="line"/>
      <point x="381" y="297" type="line"/>
      <point x="380" y="340" type="line"/>
      <point x="158" y="236" type="line" smooth="yes"/>
      <point x="126" y="221"/>
      <point x="116" y="215"/>
      <point x="116" y="197" type="curve" smooth="yes"/>
      <point x="116" y="187"/>
      <point x="124" y="175"/>
      <point x="139" y="171" type="curve" smooth="yes"/>
      <point x="299" y="124"/>
      <point x="366" y="48"/>
      <point x="366" y="17" type="curve"/>
    </contour>
    <contour>
      <point x="130" y="342" type="curve" smooth="yes"/>
      <point x="107" y="342"/>
      <point x="89" y="360"/>
      <point x="89" y="382" type="curve" smooth="yes"/>
      <point x="89" y="408"/>
      <point x="107" y="422"/>
      <point x="130" y="422" type="curve" smooth="yes"/>
      <point x="151" y="422"/>
      <point x="169" y="408"/>
      <point x="169" y="382" type="curve" smooth="yes"/>
      <point x="169" y="360"/>
      <point x="151" y="342"/>
    </contour>
    <contour>
      <point x="399" y="296" type="line"/>
      <point x="399" y="393"/>
      <point x="273" y="475"/>
      <point x="166" y="475" type="curve" smooth="yes"/>
      <point x="111" y="475"/>
      <point x="52" y="440"/>
      <point x="52" y="386" type="curve" smooth="yes"/>
      <point x="52" y="338"/>
      <point x="86" y="307"/>
      <point x="131" y="307" type="curve" smooth="yes"/>
      <point x="168" y="307"/>
      <point x="205" y="335"/>
      <point x="205" y="378" type="curve" smooth="yes"/>
      <point x="205" y="418"/>
      <point x="174" y="445"/>
      <point x="135" y="450" type="curve"/>
      <point x="118" y="431" type="line"/>
      <point x="135" y="437"/>
      <point x="152" y="440"/>
      <point x="169" y="440" type="curve" smooth="yes"/>
      <point x="260" y="440"/>
      <point x="366" y="372"/>
      <point x="366" y="296" type="curve"/>
    </contour>
  </outline>
</glyph>
<glyph name="bNDdRa" format="1">
  <advance width="620"/>
  <outline>
    <contour>
      <point x="496" y="-95" type="line"/>
      <point x="477" y="-23"/>
      <point x="408" y="-7"/>
      <point x="362" y="-7" type="curve" smooth="yes"/>
      <point x="301" y="-7"/>
      <point x="225" y="-32"/>
      <point x="171" y="-32" type="curve" smooth="yes"/>
      <point x="135" y="-32"/>
      <point x="98" y="-13"/>
      <point x="98" y="34" type="curve" smooth="yes"/>
      <point x="98" y="62"/>
      <point x="111" y="90"/>
      <point x="111" y="103" type="curve" smooth="yes"/>
      <point x="111" y="109"/>
      <point x="108" y="117"/>
      <point x="98" y="117" type="curve" smooth="yes"/>
      <point x="73" y="117"/>
      <point x="65" y="68"/>
      <point x="65" y="41" type="curve" smooth="yes"/>
      <point x="65" y="-15"/>
      <point x="99" y="-67"/>
      <point x="179" y="-67" type="curve" smooth="yes"/>
      <point x="242" y="-67"/>
      <point x="318" y="-46"/>
      <point x="370" y="-46" type="curve" smooth="yes"/>
      <point x="423" y="-46"/>
      <point x="470" y="-68"/>
      <point x="470" y="-115" type="curve"/>
    </contour>
    <contour>
      <point x="490" y="-140" type="curve" smooth="yes"/>
      <point x="501" y="-140"/>
      <point x="510" y="-128"/>
      <point x="510" y="-114" type="curve" smooth="yes"/>
      <point x="510" y="94" type="line"/>
      <point x="470" y="61" type="line"/>
      <point x="470" y="-115" type="line" smooth="yes"/>
      <point x="470" y="-129"/>
      <point x="479" y="-140"/>
    </contour>
    <contour>
      <point x="385" y="40" type="curve" smooth="yes"/>
      <point x="505" y="40"/>
      <point x="586" y="119"/>
      <point x="586" y="225" type="curve" smooth="yes"/>
      <point x="586" y="312"/>
      <point x="539" y="393"/>
      <point x="503" y="393" type="curve" smooth="yes"/>
      <point x="488" y="393"/>
      <point x="488" y="378"/>
      <point x="488" y="364" type="curve" smooth="yes"/>
      <point x="488" y="308"/>
      <point x="465" y="267"/>
      <point x="424" y="267" type="curve" smooth="yes"/>
      <point x="374" y="267"/>
      <point x="348" y="313"/>
      <point x="349" y="402" type="curve" smooth="yes"/>
      <point x="351" y="508"/>
      <point x="374" y="554"/>
      <point x="428" y="554" type="curve" smooth="yes"/>
      <point x="620" y="554" type="line" smooth="yes"/>
      <point x="631" y="554"/>
      <point x="640" y="562"/>
      <point x="640" y="571" type="curve" smooth="yes"/>
      <point x="640" y="580"/>
      <point x="631" y="587"/>
      <point x="620" y="587" type="curve" smooth="yes"/>
      <point x="424" y="587" type="line" smooth="yes"/>
      <point x="382" y="587"/>
      <point x="340" y="564"/>
      <point x="340" y="529" type="curve"/>
      <point x="355" y="529" type="line"/>
      <point x="355" y="567"/>
      <point x="313" y="587"/>
      <point x="267" y="587" type="curve" smooth="yes"/>
      <point x="0" y="587" type="line" smooth="yes"/>
      <point x="-11" y="587"/>
      <point x="-20" y="580"/>
      <point x="-20" y="571" type="curve" smooth="yes"/>
      <point x="-20" y="562"/>
      <point x="-11" y="554"/>
      <point x="0" y="554" type="curve" smooth="yes"/>
      <point x="263" y="554" type="line" smooth="yes"/>
      <point x="302" y="554"/>
      <point x="328" y="547"/>
      <point x="328" y="522" type="curve" smooth="yes"/>
      <point x="328" y="503"/>
      <point x="313" y="462"/>
      <point x="313" y="402" type="curve" smooth="yes"/>
      <point x="313" y="296"/>
      <point x="348" y="224"/>
      <point x="424" y="224" type="curve" smooth="yes"/>
      <point x="515" y="224"/>
      <point x="526" y="341"/>
      <point x="521" y="362" type="curve"/>
      <point x="509" y="354" type="line"/>
      <point x="542" y="310"/>
      <point x="549" y="267"/>
      <point x="549" y="236" type="curve" smooth="yes"/>
      <point x="549" y="153"/>
      <point x="485" y="86"/>
      <point x="381" y="86" type="curve" smooth="yes"/>
      <point x="193" y="86"/>
      <point x="79" y="265"/>
      <point x="57" y="427" type="curve" smooth="yes"/>
      <point x="55" y="443"/>
      <point x="52" y="457"/>
      <point x="38" y="457" type="curve" smooth="yes"/>
      <point x="28" y="457"/>
      <point x="22" y="447"/>
      <point x="22" y="429" type="curve" smooth="yes"/>
      <point x="22" y="323"/>
      <point x="139" y="40"/>
    </contour>
    <contour>
      <point x="172" y="343" type="curve" smooth="yes"/>
      <point x="151" y="343"/>
      <point x="134" y="358"/>
      <point x="134" y="380" type="curve" smooth="yes"/>
      <point x="134" y="403"/>
      <point x="151" y="419"/>
      <point x="172" y="419" type="curve" smooth="yes"/>
      <point x="193" y="419"/>
      <point x="210" y="403"/>
      <point x="210" y="381" type="curve" smooth="yes"/>
      <point x="210" y="358"/>
      <point x="193" y="343"/>
    </contour>
    <contour>
      <point x="175" y="308" type="curve" smooth="yes"/>
      <point x="219" y="308"/>
      <point x="245" y="341"/>
      <point x="245" y="379" type="curve" smooth="yes"/>
      <point x="245" y="409"/>
      <point x="222" y="440"/>
      <point x="172" y="445" type="curve"/>
      <point x="182" y="427" type="line"/>
      <point x="245" y="440"/>
      <point x="312" y="403"/>
      <point x="316" y="351" type="curve"/>
      <point x="341" y="362" type="line"/>
      <point x="341" y="413"/>
      <point x="264" y="464"/>
      <point x="200" y="464" type="curve" smooth="yes"/>
      <point x="159" y="464"/>
      <point x="99" y="444"/>
      <point x="99" y="383" type="curve" smooth="yes"/>
      <point x="99" y="343"/>
      <point x="133" y="308"/>
    </contour>
  </outline>
</glyph>
<glyph name="bNDda" format="1">
  <advance width="620"/>
  <outline>
    <contour>
      <point x="395" y="30" type="curve" smooth="yes"/>
      <point x="509" y="30"/>
      <point x="586" y="113"/>
      <point x="586" y="225" type="curve" smooth="yes"/>
      <point x="586" y="312"/>
      <point x="539" y="393"/>
      <point x="503" y="393" type="curve" smooth="yes"/>
      <point x="488" y="393"/>
      <point x="488" y="378"/>
      <point x="488" y="364" type="curve" smooth="yes"/>
      <point x="488" y="308"/>
      <point x="465" y="267"/>
      <point x="424" y="267" type="curve" smooth="yes"/>
      <point x="374" y="267"/>
      <point x="348" y="313"/>
      <point x="349" y="402" type="curve" smooth="yes"/>
      <point x="351" y="508"/>
      <point x="374" y="554"/>
      <point x="428" y="554" type="curve" smooth="yes"/>
      <point x="620" y="554" type="line" smooth="yes"/>
      <point x="631" y="554"/>
      <point x="640" y="562"/>
      <point x="640" y="571" type="curve" smooth="yes"/>
      <point x="640" y="580"/>
      <point x="631" y="587"/>
      <point x="620" y="587" type="curve" smooth="yes"/>
      <point x="424" y="587" type="line" smooth="yes"/>
      <point x="382" y="587"/>
      <point x="340" y="564"/>
      <point x="340" y="529" type="curve"/>
      <point x="355" y="529" type="line"/>
      <point x="355" y="567"/>
      <point x="313" y="587"/>
      <point x="267" y="587" type="curve" smooth="yes"/>
      <point x="0" y="587" type="line" smooth="yes"/>
      <point x="-11" y="587"/>
      <point x="-20" y="580"/>
      <point x="-20" y="571" type="curve" smooth="yes"/>
      <point x="-20" y="562"/>
      <point x="-11" y="554"/>
      <point x="0" y="554" type="curve" smooth="yes"/>
      <point x="263" y="554" type="line" smooth="yes"/>
      <point x="302" y="554"/>
      <point x="328" y="547"/>
      <point x="328" y="522" type="curve" smooth="yes"/>
      <point x="328" y="503"/>
      <point x="313" y="462"/>
      <point x="313" y="402" type="curve" smooth="yes"/>
      <point x="313" y="296"/>
      <point x="348" y="224"/>
      <point x="424" y="224" type="curve" smooth="yes"/>
      <point x="515" y="224"/>
      <point x="526" y="341"/>
      <point x="521" y="362" type="curve"/>
      <point x="509" y="354" type="line"/>
      <point x="542" y="310"/>
      <point x="549" y="267"/>
      <point x="549" y="236" type="curve" smooth="yes"/>
      <point x="549" y="147"/>
      <point x="489" y="76"/>
      <point x="391" y="76" type="curve" smooth="yes"/>
      <point x="197" y="76"/>
      <point x="80" y="260"/>
      <point x="57" y="427" type="curve" smooth="yes"/>
      <point x="55" y="443"/>
      <point x="52" y="457"/>
      <point x="38" y="457" type="curve" smooth="yes"/>
      <point x="28" y="457"/>
      <point x="22" y="447"/>
      <point x="22" y="429" type="curve" smooth="yes"/>
      <point x="22" y="320"/>
      <point x="142" y="30"/>
    </contour>
    <contour>
      <point x="172" y="343" type="curve" smooth="yes"/>
      <point x="151" y="343"/>
      <point x="134" y="358"/>
      <point x="134" y="380" type="curve" smooth="yes"/>
      <point x="134" y="403"/>
      <point x="151" y="419"/>
      <point x="172" y="419" type="curve" smooth="yes"/>
      <point x="193" y="419"/>
      <point x="210" y="403"/>
      <point x="210" y="381" type="curve" smooth="yes"/>
      <point x="210" y="358"/>
      <point x="193" y="343"/>
    </contour>
    <contour>
      <point x="175" y="308" type="curve" smooth="yes"/>
      <point x="219" y="308"/>
      <point x="245" y="341"/>
      <point x="245" y="379" type="curve" smooth="yes"/>
      <point x="245" y="409"/>
      <point x="222" y="440"/>
      <point x="172" y="445" type="curve"/>
      <point x="182" y="427" type="line"/>
      <point x="245" y="440"/>
      <point x="312" y="403"/>
      <point x="316" y="351" type="curve"/>
      <point x="341" y="362" type="line"/>
      <point x="341" y="413"/>
      <point x="264" y="464"/>
      <point x="200" y="464" type="curve" smooth="yes"/>
      <point x="159" y="464"/>
      <point x="99" y="444"/>
      <point x="99" y="383" type="curve" smooth="yes"/>
      <point x="99" y="343"/>
      <point x="133" y="308"/>
    </contour>
  </outline>
</glyph>
<glyph name="bNgKSsa" format="1">
  <advance width="1177"/>
  <outline>
    <contour>
      <point x="339" y="28" type="curve" smooth="yes"/>
      <point x="445" y="28"/>
      <point x="528" y="97"/>
      <point x="528" y="204" type="curve" smooth="yes"/>
      <point x="528" y="303"/>
      <point x="468" y="374"/>
      <point x="438" y="374" type="curve" smooth="yes"/>
      <point x="415" y="374"/>
      <point x="416" y="354"/>
      <point x="416" y="337" type="curve" smooth="yes"/>
      <point x="416" y="297"/>
      <point x="388" y="245"/>
      <point x="339" y="245" type="curve" smooth="yes"/>
      <point x="281" y="245"/>
      <point x="259" y="307"/>
      <point x="259" y="364" type="curve" smooth="yes"/>
      <point x="259" y="459"/>
      <point x="303" y="558"/>
      <point x="382" y="558" type="curve" smooth="yes"/>
      <point x="402" y="558"/>
      <point x="423" y="551"/>
      <point x="423" y="527" type="curve" smooth="yes"/>
      <point x="423" y="484"/>
      <point x="367" y="467"/>
      <point x="316" y="467" type="curve" smooth="yes"/>
      <point x="220" y="467"/>
      <point x="183" y="529"/>
      <point x="122" y="561" type="curve" smooth="yes"/>
      <point x="102" y="572"/>
      <point x="71" y="587"/>
      <point x="0" y="587" type="curve" smooth="yes"/>
      <point x="-13" y="587"/>
      <point x="-22" y="580"/>
      <point x="-22" y="571" type="curve" smooth="yes"/>
      <point x="-22" y="562"/>
      <point x="-13" y="554"/>
      <point x="-2" y="554" type="curve" smooth="yes"/>
      <point x="62" y="554"/>
      <point x="87" y="542"/>
      <point x="114" y="524" type="curve" smooth="yes"/>
      <point x="167" y="489"/>
      <point x="225" y="431"/>
      <point x="323" y="431" type="curve" smooth="yes"/>
      <point x="392" y="431"/>
      <point x="456" y="464"/>
      <point x="456" y="523" type="curve" smooth="yes"/>
      <point x="456" y="547"/>
      <point x="443" y="597"/>
      <point x="374" y="597" type="curve" smooth="yes"/>
      <point x="289" y="597"/>
      <point x="216" y="485"/>
      <point x="216" y="364" type="curve" smooth="yes"/>
      <point x="216" y="270"/>
      <point x="266" y="204"/>
      <point x="338" y="204" type="curve" smooth="yes"/>
      <point x="417" y="204"/>
      <point x="449" y="284"/>
      <point x="449" y="331" type="curve" smooth="yes"/>
      <point x="449" y="341"/>
      <point x="447" y="354"/>
      <point x="444" y="360" type="curve"/>
      <point x="439" y="344" type="line"/>
      <point x="465" y="318"/>
      <point x="488" y="268"/>
      <point x="488" y="213" type="curve" smooth="yes"/>
      <point x="488" y="134"/>
      <point x="426" y="73"/>
      <point x="334" y="73" type="curve" smooth="yes"/>
      <point x="184" y="73"/>
      <point x="78" y="253"/>
      <point x="68" y="446" type="curve" smooth="yes"/>
      <point x="67" y="458"/>
      <point x="60" y="466"/>
      <point x="50" y="466" type="curve" smooth="yes"/>
      <point x="41" y="466"/>
      <point x="35" y="458"/>
      <point x="35" y="448" type="curve" smooth="yes"/>
      <point x="35" y="257"/>
      <point x="159" y="28"/>
    </contour>
    <contour>
      <point x="922" y="82" type="line"/>
      <point x="894" y="178"/>
      <point x="750" y="282"/>
      <point x="650" y="282" type="curve" smooth="yes"/>
      <point x="599" y="282"/>
      <point x="567" y="252"/>
      <point x="567" y="213" type="curve" smooth="yes"/>
      <point x="567" y="174"/>
      <point x="598" y="148"/>
      <point x="640" y="148" type="curve" smooth="yes"/>
      <point x="696" y="148"/>
      <point x="735" y="191"/>
      <point x="735" y="276" type="curve" smooth="yes"/>
      <point x="735" y="360"/>
      <point x="670" y="460"/>
      <point x="562" y="460" type="curve" smooth="yes"/>
      <point x="501" y="460"/>
      <point x="483" y="419"/>
      <point x="483" y="392" type="curve" smooth="yes"/>
      <point x="483" y="359"/>
      <point x="510" y="331"/>
      <point x="552" y="331" type="curve" smooth="yes"/>
      <point x="596" y="331"/>
      <point x="652" y="373"/>
      <point x="652" y="435" type="curve" smooth="yes"/>
      <point x="652" y="527"/>
      <point x="601" y="587"/>
      <point x="529" y="587" type="curve" smooth="yes"/>
      <point x="450" y="587"/>
      <point x="443" y="515"/>
      <point x="414" y="487" type="curve"/>
      <point x="423" y="461" type="line"/>
      <point x="464" y="489"/>
      <point x="467" y="554"/>
      <point x="529" y="554" type="curve" smooth="yes"/>
      <point x="568" y="554"/>
      <point x="617" y="515"/>
      <point x="617" y="443" type="curve" smooth="yes"/>
      <point x="617" y="397"/>
      <point x="581" y="369"/>
      <point x="551" y="369" type="curve" smooth="yes"/>
      <point x="531" y="369"/>
      <point x="516" y="378"/>
      <point x="516" y="392" type="curve" smooth="yes"/>
      <point x="516" y="407"/>
      <point x="527" y="422"/>
      <point x="567" y="422" type="curve" smooth="yes"/>
      <point x="640" y="422"/>
      <point x="698" y="349"/>
      <point x="698" y="277" type="curve" smooth="yes"/>
      <point x="698" y="216"/>
      <point x="674" y="186"/>
      <point x="640" y="186" type="curve" smooth="yes"/>
      <point x="618" y="186"/>
      <point x="604" y="196"/>
      <point x="604" y="212" type="curve" smooth="yes"/>
      <point x="604" y="228"/>
      <point x="619" y="242"/>
      <point x="652" y="242" type="curve" smooth="yes"/>
      <point x="750" y="242"/>
      <point x="896" y="135"/>
      <point x="898" y="50" type="curve"/>
    </contour>
    <contour>
      <point x="918" y="-12" type="curve" smooth="yes"/>
      <point x="929" y="-12"/>
      <point x="938" y="-1"/>
      <point x="938" y="13" type="curve" smooth="yes"/>
      <point x="938" y="470" type="line" smooth="yes"/>
      <point x="938" y="544"/>
      <point x="945" y="554"/>
      <point x="979" y="554" type="curve" smooth="yes"/>
      <point x="1177" y="554" type="line" smooth="yes"/>
      <point x="1188" y="554"/>
      <point x="1197" y="561"/>
      <point x="1197" y="571" type="curve" smooth="yes"/>
      <point x="1197" y="580"/>
      <point x="1188" y="587"/>
      <point x="1177" y="587" type="curve" smooth="yes"/>
      <point x="967" y="587" type="line" smooth="yes"/>
      <point x="918" y="587"/>
      <point x="898" y="558"/>
      <point x="898" y="482" type="curve" smooth="yes"/>
      <point x="898" y="13" type="line" smooth="yes"/>
      <point x="898" y="-1"/>
      <point x="907" y="-12"/>
    </contour>
    <contour>
      <point x="1046" y="229" type="curve" smooth="yes"/>
      <point x="1024" y="229"/>
      <point x="1009" y="244"/>
      <point x="1009" y="264" type="curve" smooth="yes"/>
      <point x="1009" y="284"/>
      <point x="1024" y="299"/>
      <point x="1044" y="299" type="curve" smooth="yes"/>
      <point x="1059" y="299"/>
      <point x="1079" y="287"/>
      <point x="1079" y="263" type="curve" smooth="yes"/>
      <point x="1079" y="244"/>
      <point x="1064" y="229"/>
    </contour>
    <contour>
      <point x="1045" y="201" type="curve" smooth="yes"/>
      <point x="1100" y="201"/>
      <point x="1132" y="253"/>
      <point x="1132" y="311" type="curve" smooth="yes"/>
      <point x="1132" y="393"/>
      <point x="1073" y="423"/>
      <point x="1003" y="423" type="curve" smooth="yes"/>
      <point x="967" y="423"/>
      <point x="915" y="415"/>
      <point x="878" y="415" type="curve" smooth="yes"/>
      <point x="823" y="415"/>
      <point x="770" y="433"/>
      <point x="770" y="489" type="curve" smooth="yes"/>
      <point x="770" y="527"/>
      <point x="794" y="554"/>
      <point x="831" y="554" type="curve" smooth="yes"/>
      <point x="882" y="554"/>
      <point x="898" y="519"/>
      <point x="898" y="482" type="curve"/>
      <point x="921" y="489" type="line"/>
      <point x="921" y="555"/>
      <point x="874" y="585"/>
      <point x="826" y="585" type="curve" smooth="yes"/>
      <point x="781" y="585"/>
      <point x="735" y="558"/>
      <point x="735" y="493" type="curve" smooth="yes"/>
      <point x="735" y="395"/>
      <point x="834" y="378"/>
      <point x="895" y="378" type="curve" smooth="yes"/>
      <point x="935" y="378"/>
      <point x="979" y="386"/>
      <point x="1013" y="386" type="curve" smooth="yes"/>
      <point x="1067" y="386"/>
      <point x="1103" y="364"/>
      <point x="1103" y="313" type="curve" smooth="yes"/>
      <point x="1103" y="284"/>
      <point x="1097" y="262"/>
      <point x="1077" y="240" type="curve"/>
      <point x="1083" y="231" type="line"/>
      <point x="1096" y="242"/>
      <point x="1103" y="257"/>
      <point x="1103" y="274" type="curve" smooth="yes"/>
      <point x="1103" y="301"/>
      <point x="1075" y="327"/>
      <point x="1044" y="327" type="curve" smooth="yes"/>
      <point x="1003" y="327"/>
      <point x="977" y="298"/>
      <point x="977" y="262" type="curve" smooth="yes"/>
      <point x="977" y="233"/>
      <point x="1003" y="201"/>
    </contour>
  </outline>
</glyph>
